<svg xmlns="http://www.w3.org/2000/svg" width="1233" height="196" viewBox="0 0 1233 196" fill="none"><path d="M105.866 76V5.2H118.346V76H105.866ZM166.993 76V53.392C166.993 52.112 166.993 50.992 166.993 50.032C166.993 49.04 166.993 48.144 166.993 47.344C166.993 45.04 166.657 42.976 165.985 41.152C165.345 39.296 164.225 37.84 162.625 36.784C161.057 35.728 158.881 35.2 156.097 35.2C153.665 35.2 151.505 35.792 149.617 36.976C147.729 38.128 146.241 39.728 145.153 41.776C144.097 43.792 143.569 46.128 143.569 48.784L139.297 46.144C139.297 41.888 140.257 38.112 142.177 34.816C144.129 31.488 146.737 28.88 150.001 26.992C153.265 25.104 156.881 24.16 160.849 24.16C164.945 24.16 168.385 24.96 171.169 26.56C173.985 28.16 176.097 30.432 177.505 33.376C178.945 36.32 179.665 39.776 179.665 43.744C179.665 45.28 179.665 47.008 179.665 48.928C179.665 50.848 179.665 52.736 179.665 54.592V76H166.993ZM130.945 76V25.024H143.569V76H130.945ZM213.994 76.96C212.17 76.96 210.314 76.784 208.426 76.432C206.538 76.08 204.81 75.424 203.242 74.464C201.674 73.504 200.41 72.096 199.45 70.24C198.49 68.384 198.01 65.936 198.01 62.896C198.01 62.192 198.01 61.488 198.01 60.784C198.01 60.048 198.01 59.296 198.01 58.528V35.104H185.962V25.024H190.858C192.522 25.024 193.834 24.96 194.794 24.832C195.754 24.672 196.458 24.32 196.906 23.776C197.354 23.232 197.642 22.384 197.77 21.232C197.93 20.048 198.01 18.416 198.01 16.336V8.224H210.682V25.024H225.85V35.104H210.682V55.552C210.682 56.16 210.682 56.768 210.682 57.376C210.682 57.952 210.682 58.512 210.682 59.056C210.682 61.424 210.97 63.328 211.546 64.768C212.122 66.208 213.482 66.928 215.626 66.928C216.65 66.928 217.61 66.832 218.506 66.64C219.434 66.448 220.122 66.256 220.57 66.064V75.952C219.962 76.176 219.082 76.4 217.93 76.624C216.778 76.848 215.466 76.96 213.994 76.96ZM238.681 54.592V45.616H274.345L272.905 48.016C272.905 47.824 272.905 47.616 272.905 47.392C272.905 47.136 272.905 46.928 272.905 46.768C272.905 44.56 272.409 42.496 271.417 40.576C270.425 38.624 268.921 37.056 266.905 35.872C264.889 34.656 262.329 34.048 259.225 34.048C256.153 34.048 253.481 34.704 251.209 36.016C248.969 37.296 247.225 39.152 245.977 41.584C244.761 44.016 244.153 46.928 244.153 50.32C244.153 53.808 244.745 56.816 245.929 59.344C247.113 61.84 248.841 63.76 251.113 65.104C253.417 66.416 256.217 67.072 259.513 67.072C261.753 67.072 263.689 66.864 265.321 66.448C266.953 66.032 268.281 65.472 269.305 64.768C270.361 64.032 271.145 63.248 271.657 62.416C272.201 61.584 272.521 60.752 272.617 59.92H285.193C285.001 62.064 284.281 64.16 283.033 66.208C281.817 68.224 280.105 70.064 277.897 71.728C275.689 73.36 273.001 74.672 269.833 75.664C266.697 76.624 263.113 77.104 259.081 77.104C253.609 77.104 248.825 75.984 244.729 73.744C240.633 71.504 237.433 68.384 235.129 64.384C232.857 60.384 231.721 55.808 231.721 50.656C231.721 45.376 232.873 40.752 235.177 36.784C237.513 32.816 240.745 29.728 244.873 27.52C249.001 25.28 253.737 24.16 259.081 24.16C264.585 24.16 269.337 25.28 273.337 27.52C277.369 29.76 280.473 32.88 282.649 36.88C284.825 40.848 285.913 45.472 285.913 50.752C285.913 51.424 285.897 52.144 285.865 52.912C285.833 53.68 285.785 54.24 285.721 54.592H238.681ZM316.912 77.056C313.872 77.056 310.976 76.72 308.224 76.048C305.504 75.376 303.072 74.368 300.928 73.024C298.816 71.68 297.136 70.016 295.888 68.032C294.672 66.016 294.064 63.696 294.064 61.072C294.064 60.88 294.064 60.688 294.064 60.496C294.064 60.304 294.064 60.128 294.064 59.968H306.64C306.64 60.128 306.64 60.272 306.64 60.4C306.64 60.496 306.64 60.64 306.64 60.832C306.64 62.912 307.584 64.48 309.472 65.536C311.392 66.56 314 67.072 317.296 67.072C319.088 67.072 320.768 66.88 322.336 66.496C323.936 66.112 325.216 65.52 326.176 64.72C327.168 63.92 327.664 62.896 327.664 61.648C327.664 59.632 326.624 58.192 324.544 57.328C322.496 56.464 319.264 55.68 314.848 54.976C312.416 54.56 310.016 54 307.648 53.296C305.28 52.592 303.12 51.648 301.168 50.464C299.248 49.28 297.696 47.808 296.512 46.048C295.36 44.288 294.784 42.144 294.784 39.616C294.784 36.256 295.776 33.44 297.76 31.168C299.776 28.864 302.464 27.12 305.824 25.936C309.216 24.752 312.944 24.16 317.008 24.16C320.912 24.16 324.544 24.8 327.904 26.08C331.264 27.36 333.968 29.2 336.016 31.6C338.096 34 339.136 36.896 339.136 40.288C339.136 40.416 339.136 40.56 339.136 40.72C339.136 40.848 339.136 40.96 339.136 41.056H326.656C326.656 40.96 326.656 40.864 326.656 40.768C326.656 40.672 326.656 40.56 326.656 40.432C326.656 38.96 326.192 37.76 325.264 36.832C324.336 35.904 323.136 35.216 321.664 34.768C320.192 34.32 318.64 34.096 317.008 34.096C315.568 34.096 314.08 34.256 312.544 34.576C311.008 34.864 309.728 35.392 308.704 36.16C307.68 36.896 307.168 37.936 307.168 39.28C307.168 40.56 307.696 41.6 308.752 42.4C309.808 43.2 311.28 43.872 313.168 44.416C315.056 44.928 317.232 45.392 319.696 45.808C322.032 46.192 324.384 46.72 326.752 47.392C329.152 48.064 331.344 48.96 333.328 50.08C335.312 51.2 336.912 52.672 338.128 54.496C339.376 56.288 340 58.512 340 61.168C340 63.984 339.36 66.384 338.08 68.368C336.8 70.352 335.056 72 332.848 73.312C330.672 74.592 328.208 75.536 325.456 76.144C322.704 76.752 319.856 77.056 316.912 77.056ZM373.276 76.96C371.452 76.96 369.596 76.784 367.708 76.432C365.82 76.08 364.092 75.424 362.524 74.464C360.956 73.504 359.692 72.096 358.732 70.24C357.772 68.384 357.292 65.936 357.292 62.896C357.292 62.192 357.292 61.488 357.292 60.784C357.292 60.048 357.292 59.296 357.292 58.528V35.104H345.244V25.024H350.14C351.804 25.024 353.116 24.96 354.076 24.832C355.036 24.672 355.74 24.32 356.188 23.776C356.636 23.232 356.924 22.384 357.052 21.232C357.212 20.048 357.292 18.416 357.292 16.336V8.224H369.964V25.024H385.132V35.104H369.964V55.552C369.964 56.16 369.964 56.768 369.964 57.376C369.964 57.952 369.964 58.512 369.964 59.056C369.964 61.424 370.252 63.328 370.828 64.768C371.404 66.208 372.764 66.928 374.908 66.928C375.932 66.928 376.892 66.832 377.788 66.64C378.716 66.448 379.404 66.256 379.852 66.064V75.952C379.244 76.176 378.364 76.4 377.212 76.624C376.06 76.848 374.748 76.96 373.276 76.96ZM394.424 76V25.024H406.904V76H394.424ZM400.712 15.616C398.664 15.616 396.872 15.072 395.336 13.984C393.832 12.864 393.08 11.312 393.08 9.328C393.08 7.376 393.832 5.856 395.336 4.768C396.872 3.67999 398.664 3.13599 400.712 3.13599C402.728 3.13599 404.488 3.67999 405.992 4.768C407.496 5.856 408.248 7.376 408.248 9.328C408.248 11.312 407.496 12.864 405.992 13.984C404.488 15.072 402.728 15.616 400.712 15.616ZM455.462 76V53.392C455.462 52.112 455.462 50.992 455.462 50.032C455.462 49.04 455.462 48.144 455.462 47.344C455.462 45.04 455.126 42.976 454.454 41.152C453.814 39.296 452.694 37.84 451.094 36.784C449.526 35.728 447.35 35.2 444.566 35.2C442.134 35.2 439.974 35.792 438.086 36.976C436.198 38.128 434.71 39.728 433.622 41.776C432.566 43.792 432.038 46.128 432.038 48.784L427.766 46.144C427.766 41.888 428.726 38.112 430.646 34.816C432.598 31.488 435.206 28.88 438.47 26.992C441.734 25.104 445.35 24.16 449.318 24.16C453.414 24.16 456.854 24.96 459.638 26.56C462.454 28.16 464.566 30.432 465.974 33.376C467.414 36.32 468.134 39.776 468.134 43.744C468.134 45.28 468.134 47.008 468.134 48.928C468.134 50.848 468.134 52.736 468.134 54.592V76H455.462ZM419.414 76V25.024H432.038V76H419.414ZM505.314 77.008C499.938 77.008 495.202 75.888 491.106 73.648C487.01 71.376 483.794 68.24 481.458 64.24C479.154 60.24 478.002 55.664 478.002 50.512C478.002 45.328 479.154 40.768 481.458 36.832C483.794 32.864 487.01 29.76 491.106 27.52C495.202 25.28 499.938 24.16 505.314 24.16C510.69 24.16 515.426 25.28 519.522 27.52C523.618 29.76 526.818 32.864 529.122 36.832C531.458 40.768 532.626 45.328 532.626 50.512C532.626 55.664 531.458 60.24 529.122 64.24C526.818 68.24 523.618 71.376 519.522 73.648C515.426 75.888 510.69 77.008 505.314 77.008ZM505.314 66.688C508.226 66.688 510.77 66.016 512.946 64.672C515.122 63.328 516.818 61.456 518.034 59.056C519.25 56.624 519.858 53.776 519.858 50.512C519.858 47.248 519.25 44.432 518.034 42.064C516.818 39.664 515.122 37.808 512.946 36.496C510.77 35.184 508.226 34.528 505.314 34.528C502.434 34.528 499.89 35.184 497.682 36.496C495.506 37.808 493.81 39.664 492.594 42.064C491.378 44.432 490.77 47.248 490.77 50.512C490.77 53.776 491.378 56.624 492.594 59.056C493.81 61.456 495.506 63.328 497.682 64.672C499.89 66.016 502.434 66.688 505.314 66.688ZM574.712 174V151.392C574.712 150.112 574.712 148.992 574.712 148.032C574.712 147.04 574.712 146.144 574.712 145.344C574.712 143.04 574.376 140.976 573.704 139.152C573.064 137.296 571.944 135.84 570.344 134.784C568.776 133.728 566.6 133.2 563.816 133.2C561.384 133.2 559.224 133.792 557.336 134.976C555.448 136.128 553.96 137.728 552.872 139.776C551.816 141.792 551.288 144.128 551.288 146.784L547.016 144.144C547.016 139.888 547.976 136.112 549.896 132.816C551.848 129.488 554.456 126.88 557.72 124.992C560.984 123.104 564.6 122.16 568.568 122.16C572.664 122.16 576.104 122.96 578.888 124.56C581.704 126.16 583.816 128.432 585.224 131.376C586.664 134.32 587.384 137.776 587.384 141.744C587.384 143.28 587.384 145.008 587.384 146.928C587.384 148.848 587.384 150.736 587.384 152.592V174H574.712ZM538.664 174V123.024H551.288V174H538.664ZM616.98 175.056C613.172 175.056 609.828 174.464 606.948 173.28C604.068 172.064 601.812 170.32 600.18 168.048C598.548 165.776 597.732 163.04 597.732 159.84C597.732 156.352 598.676 153.488 600.564 151.248C602.484 148.976 605.06 147.232 608.292 146.016C611.524 144.768 615.108 143.968 619.044 143.616C624.868 143.04 628.932 142.496 631.236 141.984C633.572 141.44 634.74 140.576 634.74 139.392C634.74 139.36 634.74 139.344 634.74 139.344C634.74 139.312 634.74 139.296 634.74 139.296C634.74 137.056 633.732 135.328 631.716 134.112C629.7 132.896 626.852 132.288 623.172 132.288C619.3 132.288 616.324 132.976 614.244 134.352C612.196 135.696 611.172 137.84 611.172 140.784H598.692C598.692 136.784 599.748 133.408 601.86 130.656C604.004 127.872 606.932 125.76 610.644 124.32C614.356 122.88 618.564 122.16 623.268 122.16C627.652 122.16 631.668 122.816 635.316 124.128C638.964 125.44 641.892 127.424 644.1 130.08C646.308 132.736 647.412 136.048 647.412 140.016C647.412 140.688 647.412 141.36 647.412 142.032C647.412 142.704 647.412 143.376 647.412 144.048V163.248C647.412 164.464 647.444 165.664 647.508 166.848C647.604 168 647.78 169.04 648.036 169.968C648.356 170.992 648.74 171.856 649.188 172.56C649.636 173.264 649.988 173.744 650.244 174H637.764C637.54 173.776 637.22 173.344 636.804 172.704C636.42 172.032 636.068 171.264 635.748 170.4C635.428 169.44 635.188 168.416 635.028 167.328C634.868 166.208 634.788 164.976 634.788 163.632L637.284 165.36C636.324 167.312 634.852 169.024 632.868 170.496C630.916 171.936 628.58 173.056 625.86 173.856C623.14 174.656 620.18 175.056 616.98 175.056ZM620.052 165.12C622.676 165.12 625.108 164.672 627.348 163.776C629.588 162.88 631.396 161.504 632.772 159.648C634.148 157.76 634.836 155.344 634.836 152.4V145.584L637.908 149.04C635.86 149.808 633.396 150.448 630.516 150.96C627.636 151.44 624.724 151.824 621.78 152.112C618.004 152.464 615.156 153.12 613.236 154.08C611.348 155.04 610.404 156.608 610.404 158.784C610.404 160.896 611.204 162.48 612.804 163.536C614.404 164.592 616.82 165.12 620.052 165.12ZM639.156 104.208C639.124 105.616 638.788 107.072 638.148 108.576C637.54 110.08 636.58 111.36 635.268 112.416C633.956 113.472 632.26 114 630.18 114C628.548 114 627.172 113.68 626.052 113.04C624.932 112.4 624.004 111.776 623.268 111.168C622.564 110.56 621.844 110.032 621.108 109.584C620.404 109.136 619.588 108.912 618.66 108.912C617.476 108.912 616.628 109.312 616.116 110.112C615.636 110.88 615.38 111.808 615.348 112.896H608.676C608.74 111.456 609.108 109.968 609.78 108.432C610.484 106.896 611.524 105.6 612.9 104.544C614.276 103.488 616.02 102.96 618.132 102.96C619.668 102.96 620.98 103.28 622.068 103.92C623.188 104.56 624.1 105.184 624.804 105.792C625.54 106.4 626.292 106.944 627.06 107.424C627.828 107.904 628.628 108.144 629.46 108.144C630.58 108.144 631.364 107.76 631.812 106.992C632.26 106.224 632.5 105.296 632.532 104.208H639.156ZM684.189 175.008C678.813 175.008 674.077 173.888 669.981 171.648C665.885 169.376 662.669 166.24 660.333 162.24C658.029 158.24 656.877 153.664 656.877 148.512C656.877 143.328 658.029 138.768 660.333 134.832C662.669 130.864 665.885 127.76 669.981 125.52C674.077 123.28 678.813 122.16 684.189 122.16C689.565 122.16 694.301 123.28 698.397 125.52C702.493 127.76 705.693 130.864 707.997 134.832C710.333 138.768 711.501 143.328 711.501 148.512C711.501 153.664 710.333 158.24 707.997 162.24C705.693 166.24 702.493 169.376 698.397 171.648C694.301 173.888 689.565 175.008 684.189 175.008ZM684.189 164.688C687.101 164.688 689.645 164.016 691.821 162.672C693.997 161.328 695.693 159.456 696.909 157.056C698.125 154.624 698.733 151.776 698.733 148.512C698.733 145.248 698.125 142.432 696.909 140.064C695.693 137.664 693.997 135.808 691.821 134.496C689.645 133.184 687.101 132.528 684.189 132.528C681.309 132.528 678.765 133.184 676.557 134.496C674.381 135.808 672.685 137.664 671.469 140.064C670.253 142.432 669.645 145.248 669.645 148.512C669.645 151.776 670.253 154.624 671.469 157.056C672.685 159.456 674.381 161.328 676.557 162.672C678.765 164.016 681.309 164.688 684.189 164.688ZM750.837 152.592V143.616H786.501L785.061 146.016C785.061 145.824 785.061 145.616 785.061 145.392C785.061 145.136 785.061 144.928 785.061 144.768C785.061 142.56 784.565 140.496 783.573 138.576C782.581 136.624 781.077 135.056 779.061 133.872C777.045 132.656 774.485 132.048 771.381 132.048C768.309 132.048 765.637 132.704 763.365 134.016C761.125 135.296 759.381 137.152 758.133 139.584C756.917 142.016 756.309 144.928 756.309 148.32C756.309 151.808 756.901 154.816 758.085 157.344C759.269 159.84 760.997 161.76 763.269 163.104C765.573 164.416 768.373 165.072 771.669 165.072C773.909 165.072 775.845 164.864 777.477 164.448C779.109 164.032 780.437 163.472 781.461 162.768C782.517 162.032 783.301 161.248 783.813 160.416C784.357 159.584 784.677 158.752 784.773 157.92H797.349C797.157 160.064 796.437 162.16 795.189 164.208C793.973 166.224 792.261 168.064 790.053 169.728C787.845 171.36 785.157 172.672 781.989 173.664C778.853 174.624 775.269 175.104 771.237 175.104C765.765 175.104 760.981 173.984 756.885 171.744C752.789 169.504 749.589 166.384 747.285 162.384C745.013 158.384 743.877 153.808 743.877 148.656C743.877 143.376 745.029 138.752 747.333 134.784C749.669 130.816 752.901 127.728 757.029 125.52C761.157 123.28 765.893 122.16 771.237 122.16C776.741 122.16 781.493 123.28 785.493 125.52C789.525 127.76 792.629 130.88 794.805 134.88C796.981 138.848 798.069 143.472 798.069 148.752C798.069 149.424 798.053 150.144 798.021 150.912C797.989 151.68 797.941 152.24 797.877 152.592H750.837ZM840.157 174V153.312C840.157 151.424 840.157 149.776 840.157 148.368C840.157 146.928 840.157 145.728 840.157 144.768C840.157 143.52 840.077 142.224 839.917 140.88C839.757 139.504 839.405 138.24 838.861 137.088C838.317 135.936 837.469 135.008 836.317 134.304C835.197 133.568 833.645 133.2 831.661 133.2C829.741 133.2 828.109 133.6 826.765 134.4C825.453 135.168 824.365 136.208 823.501 137.52C822.669 138.8 822.061 140.272 821.677 141.936C821.293 143.568 821.101 145.248 821.101 146.976L816.877 144.144C816.877 139.952 817.661 136.208 819.229 132.912C820.797 129.616 823.021 127.008 825.901 125.088C828.813 123.136 832.253 122.16 836.221 122.16C840.317 122.16 843.565 123.024 845.965 124.752C848.365 126.448 850.077 128.752 851.101 131.664C852.157 134.576 852.685 137.84 852.685 141.456C852.685 142.8 852.685 144.592 852.685 146.832C852.685 149.04 852.685 151.648 852.685 154.656V174H840.157ZM808.477 174V123.024H821.101V174H808.477ZM871.645 174V153.36C871.645 151.344 871.645 149.632 871.645 148.224C871.645 146.816 871.645 145.632 871.645 144.672C871.645 143.328 871.565 141.984 871.405 140.64C871.245 139.264 870.893 138.032 870.349 136.944C869.805 135.824 868.957 134.928 867.805 134.256C866.653 133.552 865.085 133.2 863.101 133.2C861.149 133.2 859.501 133.584 858.157 134.352C856.845 135.12 855.789 136.144 854.989 137.424C854.189 138.704 853.597 140.144 853.213 141.744C852.861 143.344 852.685 144.944 852.685 146.544L848.461 143.76C848.461 139.696 849.229 136.032 850.765 132.768C852.301 129.504 854.509 126.928 857.389 125.04C860.269 123.12 863.693 122.16 867.661 122.16C871.661 122.16 874.877 122.976 877.309 124.608C879.741 126.24 881.501 128.48 882.589 131.328C883.709 134.144 884.269 137.36 884.269 140.976C884.269 142.384 884.269 144.176 884.269 146.352C884.269 148.528 884.269 151.104 884.269 154.08V174H871.645ZM913.886 175.056C910.078 175.056 906.734 174.464 903.854 173.28C900.974 172.064 898.718 170.32 897.086 168.048C895.454 165.776 894.638 163.04 894.638 159.84C894.638 156.352 895.582 153.488 897.47 151.248C899.39 148.976 901.966 147.232 905.198 146.016C908.43 144.768 912.014 143.968 915.95 143.616C921.774 143.04 925.838 142.496 928.142 141.984C930.478 141.44 931.646 140.576 931.646 139.392C931.646 139.36 931.646 139.344 931.646 139.344C931.646 139.312 931.646 139.296 931.646 139.296C931.646 137.056 930.638 135.328 928.622 134.112C926.606 132.896 923.758 132.288 920.078 132.288C916.206 132.288 913.23 132.976 911.15 134.352C909.102 135.696 908.078 137.84 908.078 140.784H895.598C895.598 136.784 896.654 133.408 898.766 130.656C900.91 127.872 903.838 125.76 907.55 124.32C911.262 122.88 915.47 122.16 920.174 122.16C924.558 122.16 928.574 122.816 932.222 124.128C935.87 125.44 938.798 127.424 941.006 130.08C943.214 132.736 944.318 136.048 944.318 140.016C944.318 140.688 944.318 141.36 944.318 142.032C944.318 142.704 944.318 143.376 944.318 144.048V163.248C944.318 164.464 944.35 165.664 944.414 166.848C944.51 168 944.686 169.04 944.942 169.968C945.262 170.992 945.646 171.856 946.094 172.56C946.542 173.264 946.894 173.744 947.15 174H934.67C934.446 173.776 934.126 173.344 933.71 172.704C933.326 172.032 932.974 171.264 932.654 170.4C932.334 169.44 932.094 168.416 931.934 167.328C931.774 166.208 931.694 164.976 931.694 163.632L934.19 165.36C933.23 167.312 931.758 169.024 929.774 170.496C927.822 171.936 925.486 173.056 922.766 173.856C920.046 174.656 917.086 175.056 913.886 175.056ZM916.958 165.12C919.582 165.12 922.014 164.672 924.254 163.776C926.494 162.88 928.302 161.504 929.678 159.648C931.054 157.76 931.742 155.344 931.742 152.4V145.584L934.814 149.04C932.766 149.808 930.302 150.448 927.422 150.96C924.542 151.44 921.63 151.824 918.686 152.112C914.91 152.464 912.062 153.12 910.142 154.08C908.254 155.04 907.31 156.608 907.31 158.784C907.31 160.896 908.11 162.48 909.71 163.536C911.31 164.592 913.726 165.12 916.958 165.12ZM990.311 168.96C993.319 169.248 995.959 169.808 998.231 170.64C1000.5 171.472 1002.28 172.704 1003.56 174.336C1004.84 176 1005.48 178.208 1005.48 180.96C1005.48 184.032 1004.44 186.688 1002.36 188.928C1000.28 191.168 997.223 192.896 993.191 194.112C989.191 195.328 984.263 195.936 978.407 195.936C969.895 195.936 963.351 194.704 958.775 192.24C954.199 189.808 951.911 186.496 951.911 182.304C951.911 181.12 952.055 180.048 952.343 179.088C952.631 178.128 952.983 177.328 953.399 176.688L964.967 178.368C964.775 178.624 964.583 179.024 964.391 179.568C964.199 180.144 964.103 180.832 964.103 181.632C964.103 183.616 965.431 185.04 968.087 185.904C970.775 186.8 974.343 187.248 978.791 187.248C982.055 187.248 984.775 187.024 986.951 186.576C989.159 186.128 990.823 185.488 991.943 184.656C993.095 183.824 993.671 182.848 993.671 181.728C993.671 180.064 992.919 178.992 991.415 178.512C989.911 178.032 988.119 177.712 986.039 177.552L966.695 175.776C963.239 175.424 960.391 174.4 958.151 172.704C955.943 171.008 954.839 168.768 954.839 165.984C954.839 164.288 955.287 162.72 956.183 161.28C957.111 159.84 958.167 158.64 959.351 157.68C960.535 156.688 961.543 156.08 962.375 155.856L969.575 159.408C968.903 159.504 968.103 159.936 967.175 160.704C966.279 161.472 965.831 162.384 965.831 163.44C965.831 164.432 966.279 165.264 967.175 165.936C968.071 166.576 969.799 167.024 972.359 167.28L990.311 168.96ZM996.023 123.024H1007.35L1002.74 142.8C1001.88 146.512 1000.49 149.84 998.567 152.784C996.647 155.728 994.087 158.048 990.887 159.744C987.687 161.44 983.655 162.288 978.791 162.288C973.735 162.288 969.367 161.472 965.687 159.84C962.039 158.176 959.223 155.856 957.239 152.88C955.255 149.872 954.263 146.416 954.263 142.512C954.263 138.512 955.271 134.992 957.287 131.952C959.335 128.88 962.135 126.48 965.687 124.752C969.271 123.024 973.319 122.16 977.831 122.16C981.479 122.16 984.759 122.768 987.671 123.984C990.583 125.168 992.903 126.72 994.631 128.64C996.391 130.56 997.335 132.608 997.463 134.784L994.631 135.312L996.023 123.024ZM978.743 152.544C981.207 152.544 983.335 152.144 985.127 151.344C986.919 150.544 988.311 149.392 989.303 147.888C990.295 146.352 990.791 144.496 990.791 142.32C990.791 140.176 990.295 138.336 989.303 136.8C988.311 135.264 986.919 134.096 985.127 133.296C983.335 132.464 981.223 132.048 978.791 132.048C976.423 132.048 974.327 132.464 972.503 133.296C970.679 134.128 969.239 135.328 968.183 136.896C967.159 138.432 966.647 140.272 966.647 142.416C966.647 144.56 967.143 146.4 968.135 147.936C969.159 149.44 970.567 150.592 972.359 151.392C974.183 152.16 976.311 152.544 978.743 152.544ZM1015.85 174V123.024H1028.48V139.968L1025.55 138.336C1025.87 136.128 1026.46 134.048 1027.32 132.096C1028.19 130.112 1029.34 128.384 1030.78 126.912C1032.22 125.408 1033.96 124.24 1036.01 123.408C1038.06 122.576 1040.4 122.16 1043.02 122.16C1045.1 122.16 1046.73 122.32 1047.92 122.64C1049.13 122.928 1049.88 123.168 1050.17 123.36L1047.87 134.928C1047.55 134.704 1046.89 134.432 1045.9 134.112C1044.94 133.76 1043.64 133.584 1042.01 133.584C1039.42 133.584 1037.24 134.032 1035.48 134.928C1033.76 135.792 1032.38 136.976 1031.36 138.48C1030.33 139.952 1029.6 141.584 1029.15 143.376C1028.7 145.136 1028.48 146.896 1028.48 148.656V174H1015.85ZM1061.9 152.592V143.616H1097.56L1096.12 146.016C1096.12 145.824 1096.12 145.616 1096.12 145.392C1096.12 145.136 1096.12 144.928 1096.12 144.768C1096.12 142.56 1095.63 140.496 1094.64 138.576C1093.64 136.624 1092.14 135.056 1090.12 133.872C1088.11 132.656 1085.55 132.048 1082.44 132.048C1079.37 132.048 1076.7 132.704 1074.43 134.016C1072.19 135.296 1070.44 137.152 1069.2 139.584C1067.98 142.016 1067.37 144.928 1067.37 148.32C1067.37 151.808 1067.96 154.816 1069.15 157.344C1070.33 159.84 1072.06 161.76 1074.33 163.104C1076.64 164.416 1079.44 165.072 1082.73 165.072C1084.97 165.072 1086.91 164.864 1088.54 164.448C1090.17 164.032 1091.5 163.472 1092.52 162.768C1093.58 162.032 1094.36 161.248 1094.88 160.416C1095.42 159.584 1095.74 158.752 1095.84 157.92H1108.41C1108.22 160.064 1107.5 162.16 1106.25 164.208C1105.04 166.224 1103.32 168.064 1101.12 169.728C1098.91 171.36 1096.22 172.672 1093.05 173.664C1089.92 174.624 1086.33 175.104 1082.3 175.104C1076.83 175.104 1072.04 173.984 1067.95 171.744C1063.85 169.504 1060.65 166.384 1058.35 162.384C1056.08 158.384 1054.94 153.808 1054.94 148.656C1054.94 143.376 1056.09 138.752 1058.4 134.784C1060.73 130.816 1063.96 127.728 1068.09 125.52C1072.22 123.28 1076.96 122.16 1082.3 122.16C1087.8 122.16 1092.56 123.28 1096.56 125.52C1100.59 127.76 1103.69 130.88 1105.87 134.88C1108.04 138.848 1109.13 143.472 1109.13 148.752C1109.13 149.424 1109.12 150.144 1109.08 150.912C1109.05 151.68 1109 152.24 1108.94 152.592H1061.9ZM1144.74 175.056C1139.36 175.056 1134.61 173.952 1130.48 171.744C1126.36 169.536 1123.12 166.432 1120.79 162.432C1118.45 158.432 1117.28 153.744 1117.28 148.368C1117.28 143.024 1118.45 138.384 1120.79 134.448C1123.12 130.512 1126.36 127.488 1130.48 125.376C1134.61 123.232 1139.36 122.16 1144.74 122.16C1148.77 122.16 1152.34 122.752 1155.44 123.936C1158.55 125.12 1161.16 126.704 1163.27 128.688C1165.41 130.64 1167.04 132.8 1168.16 135.168C1169.28 137.504 1169.84 139.84 1169.84 142.176C1169.84 142.24 1169.84 142.304 1169.84 142.368C1169.84 142.432 1169.84 142.496 1169.84 142.56H1157.32C1157.32 142.4 1157.3 142.224 1157.27 142.032C1157.24 141.84 1157.2 141.648 1157.17 141.456C1156.92 139.824 1156.26 138.352 1155.2 137.04C1154.15 135.696 1152.74 134.624 1150.98 133.824C1149.22 133.024 1147.09 132.624 1144.6 132.624C1141.94 132.624 1139.51 133.216 1137.3 134.4C1135.12 135.552 1133.38 137.296 1132.07 139.632C1130.79 141.968 1130.15 144.88 1130.15 148.368C1130.15 151.824 1130.79 154.768 1132.07 157.2C1133.35 159.6 1135.08 161.44 1137.25 162.72C1139.46 163.968 1141.91 164.592 1144.6 164.592C1147.44 164.592 1149.76 164.16 1151.56 163.296C1153.38 162.4 1154.76 161.216 1155.68 159.744C1156.61 158.24 1157.14 156.608 1157.27 154.848H1169.84C1169.84 157.216 1169.3 159.6 1168.21 162C1167.12 164.368 1165.52 166.544 1163.41 168.528C1161.3 170.512 1158.68 172.096 1155.54 173.28C1152.44 174.464 1148.84 175.056 1144.74 175.056ZM1184.99 152.592V143.616H1220.66L1219.22 146.016C1219.22 145.824 1219.22 145.616 1219.22 145.392C1219.22 145.136 1219.22 144.928 1219.22 144.768C1219.22 142.56 1218.72 140.496 1217.73 138.576C1216.74 136.624 1215.23 135.056 1213.22 133.872C1211.2 132.656 1208.64 132.048 1205.54 132.048C1202.47 132.048 1199.79 132.704 1197.52 134.016C1195.28 135.296 1193.54 137.152 1192.29 139.584C1191.07 142.016 1190.47 144.928 1190.47 148.32C1190.47 151.808 1191.06 154.816 1192.24 157.344C1193.43 159.84 1195.15 161.76 1197.43 163.104C1199.73 164.416 1202.53 165.072 1205.83 165.072C1208.07 165.072 1210 164.864 1211.63 164.448C1213.27 164.032 1214.59 163.472 1215.62 162.768C1216.67 162.032 1217.46 161.248 1217.97 160.416C1218.51 159.584 1218.83 158.752 1218.93 157.92H1231.51C1231.31 160.064 1230.59 162.16 1229.35 164.208C1228.13 166.224 1226.42 168.064 1224.21 169.728C1222 171.36 1219.31 172.672 1216.15 173.664C1213.01 174.624 1209.43 175.104 1205.39 175.104C1199.92 175.104 1195.14 173.984 1191.04 171.744C1186.95 169.504 1183.75 166.384 1181.44 162.384C1179.17 158.384 1178.03 153.808 1178.03 148.656C1178.03 143.376 1179.19 138.752 1181.49 134.784C1183.83 130.816 1187.06 127.728 1191.19 125.52C1195.31 123.28 1200.05 122.16 1205.39 122.16C1210.9 122.16 1215.65 123.28 1219.65 125.52C1223.68 127.76 1226.79 130.88 1228.96 134.88C1231.14 138.848 1232.23 143.472 1232.23 148.752C1232.23 149.424 1232.21 150.144 1232.18 150.912C1232.15 151.68 1232.1 152.24 1232.03 152.592H1184.99Z" fill="#C42D00"></path><path d="M566.83 76V25.024H579.31V76H566.83ZM573.118 15.616C571.07 15.616 569.278 15.072 567.742 13.984C566.238 12.864 565.486 11.312 565.486 9.328C565.486 7.376 566.238 5.856 567.742 4.768C569.278 3.67999 571.07 3.13599 573.118 3.13599C575.134 3.13599 576.894 3.67999 578.398 4.768C579.902 5.856 580.654 7.376 580.654 9.328C580.654 11.312 579.902 12.864 578.398 13.984C576.894 15.072 575.134 15.616 573.118 15.616ZM627.868 76V53.392C627.868 52.112 627.868 50.992 627.868 50.032C627.868 49.04 627.868 48.144 627.868 47.344C627.868 45.04 627.532 42.976 626.86 41.152C626.22 39.296 625.1 37.84 623.5 36.784C621.932 35.728 619.756 35.2 616.972 35.2C614.54 35.2 612.38 35.792 610.492 36.976C608.604 38.128 607.116 39.728 606.028 41.776C604.972 43.792 604.444 46.128 604.444 48.784L600.172 46.144C600.172 41.888 601.132 38.112 603.052 34.816C605.004 31.488 607.612 28.88 610.876 26.992C614.14 25.104 617.756 24.16 621.724 24.16C625.82 24.16 629.26 24.96 632.044 26.56C634.86 28.16 636.972 30.432 638.38 33.376C639.82 36.32 640.54 39.776 640.54 43.744C640.54 45.28 640.54 47.008 640.54 48.928C640.54 50.848 640.54 52.736 640.54 54.592V76H627.868ZM591.82 76V25.024H604.444V76H591.82ZM658.856 76V35.104H648.056V25.024H658.856V20.464C658.856 17.488 659.256 14.88 660.056 12.64C660.856 10.368 661.944 8.448 663.32 6.88C664.696 5.312 666.264 4.048 668.024 3.088C669.816 2.096 671.72 1.376 673.736 0.927994C675.784 0.479996 677.816 0.255997 679.832 0.255997C681.752 0.255997 683.208 0.367996 684.2 0.591995C685.224 0.815994 685.912 1.008 686.264 1.168V11.344C685.88 11.216 685.208 11.072 684.248 10.912C683.32 10.72 682.312 10.624 681.224 10.624C679.272 10.624 677.656 10.912 676.376 11.488C675.096 12.032 674.104 12.8 673.4 13.792C672.696 14.784 672.2 15.936 671.912 17.248C671.624 18.528 671.48 19.936 671.48 21.472V25.024H685.592V35.104H671.48V76H658.856ZM706.952 0.975996V76H694.52V0.975996H706.952ZM737.355 77.056C733.547 77.056 730.203 76.464 727.323 75.28C724.443 74.064 722.187 72.32 720.555 70.048C718.923 67.776 718.107 65.04 718.107 61.84C718.107 58.352 719.051 55.488 720.939 53.248C722.859 50.976 725.435 49.232 728.667 48.016C731.899 46.768 735.483 45.968 739.419 45.616C745.243 45.04 749.307 44.496 751.611 43.984C753.947 43.44 755.115 42.576 755.115 41.392C755.115 41.36 755.115 41.344 755.115 41.344C755.115 41.312 755.115 41.296 755.115 41.296C755.115 39.056 754.107 37.328 752.091 36.112C750.075 34.896 747.227 34.288 743.547 34.288C739.675 34.288 736.699 34.976 734.619 36.352C732.571 37.696 731.547 39.84 731.547 42.784H719.067C719.067 38.784 720.123 35.408 722.235 32.656C724.379 29.872 727.307 27.76 731.019 26.32C734.731 24.88 738.939 24.16 743.643 24.16C748.027 24.16 752.043 24.816 755.691 26.128C759.339 27.44 762.267 29.424 764.475 32.08C766.683 34.736 767.787 38.048 767.787 42.016C767.787 42.688 767.787 43.36 767.787 44.032C767.787 44.704 767.787 45.376 767.787 46.048V65.248C767.787 66.464 767.819 67.664 767.883 68.848C767.979 70 768.155 71.04 768.411 71.968C768.731 72.992 769.115 73.856 769.563 74.56C770.011 75.264 770.363 75.744 770.619 76H758.139C757.915 75.776 757.595 75.344 757.179 74.704C756.795 74.032 756.443 73.264 756.123 72.4C755.803 71.44 755.563 70.416 755.403 69.328C755.243 68.208 755.163 66.976 755.163 65.632L757.659 67.36C756.699 69.312 755.227 71.024 753.243 72.496C751.291 73.936 748.955 75.056 746.235 75.856C743.515 76.656 740.555 77.056 737.355 77.056ZM740.427 67.12C743.051 67.12 745.483 66.672 747.723 65.776C749.963 64.88 751.771 63.504 753.147 61.648C754.523 59.76 755.211 57.344 755.211 54.4V47.584L758.283 51.04C756.235 51.808 753.771 52.448 750.891 52.96C748.011 53.44 745.099 53.824 742.155 54.112C738.379 54.464 735.531 55.12 733.611 56.08C731.723 57.04 730.779 58.608 730.779 60.784C730.779 62.896 731.579 64.48 733.179 65.536C734.779 66.592 737.195 67.12 740.427 67.12ZM811.188 76V55.312C811.188 53.424 811.188 51.776 811.188 50.368C811.188 48.928 811.188 47.728 811.188 46.768C811.188 45.52 811.108 44.224 810.948 42.88C810.788 41.504 810.436 40.24 809.892 39.088C809.348 37.936 808.5 37.008 807.348 36.304C806.228 35.568 804.676 35.2 802.692 35.2C800.772 35.2 799.14 35.6 797.796 36.4C796.484 37.168 795.396 38.208 794.532 39.52C793.7 40.8 793.092 42.272 792.708 43.936C792.324 45.568 792.132 47.248 792.132 48.976L787.908 46.144C787.908 41.952 788.692 38.208 790.26 34.912C791.828 31.616 794.052 29.008 796.932 27.088C799.844 25.136 803.284 24.16 807.252 24.16C811.348 24.16 814.596 25.024 816.996 26.752C819.396 28.448 821.108 30.752 822.132 33.664C823.188 36.576 823.716 39.84 823.716 43.456C823.716 44.8 823.716 46.592 823.716 48.832C823.716 51.04 823.716 53.648 823.716 56.656V76H811.188ZM779.508 76V25.024H792.132V76H779.508ZM842.676 76V55.36C842.676 53.344 842.676 51.632 842.676 50.224C842.676 48.816 842.676 47.632 842.676 46.672C842.676 45.328 842.596 43.984 842.436 42.64C842.276 41.264 841.924 40.032 841.38 38.944C840.836 37.824 839.988 36.928 838.836 36.256C837.684 35.552 836.116 35.2 834.132 35.2C832.18 35.2 830.532 35.584 829.188 36.352C827.876 37.12 826.82 38.144 826.02 39.424C825.22 40.704 824.628 42.144 824.244 43.744C823.892 45.344 823.716 46.944 823.716 48.544L819.492 45.76C819.492 41.696 820.26 38.032 821.796 34.768C823.332 31.504 825.54 28.928 828.42 27.04C831.3 25.12 834.724 24.16 838.692 24.16C842.692 24.16 845.908 24.976 848.34 26.608C850.772 28.24 852.532 30.48 853.62 33.328C854.74 36.144 855.3 39.36 855.3 42.976C855.3 44.384 855.3 46.176 855.3 48.352C855.3 50.528 855.3 53.104 855.3 56.08V76H842.676ZM884.917 77.056C881.109 77.056 877.765 76.464 874.885 75.28C872.005 74.064 869.749 72.32 868.117 70.048C866.485 67.776 865.669 65.04 865.669 61.84C865.669 58.352 866.613 55.488 868.501 53.248C870.421 50.976 872.997 49.232 876.229 48.016C879.461 46.768 883.045 45.968 886.981 45.616C892.805 45.04 896.869 44.496 899.173 43.984C901.509 43.44 902.677 42.576 902.677 41.392C902.677 41.36 902.677 41.344 902.677 41.344C902.677 41.312 902.677 41.296 902.677 41.296C902.677 39.056 901.669 37.328 899.653 36.112C897.637 34.896 894.789 34.288 891.109 34.288C887.237 34.288 884.261 34.976 882.181 36.352C880.133 37.696 879.109 39.84 879.109 42.784H866.629C866.629 38.784 867.685 35.408 869.797 32.656C871.941 29.872 874.869 27.76 878.581 26.32C882.293 24.88 886.501 24.16 891.205 24.16C895.589 24.16 899.605 24.816 903.253 26.128C906.901 27.44 909.829 29.424 912.037 32.08C914.245 34.736 915.349 38.048 915.349 42.016C915.349 42.688 915.349 43.36 915.349 44.032C915.349 44.704 915.349 45.376 915.349 46.048V65.248C915.349 66.464 915.381 67.664 915.445 68.848C915.541 70 915.717 71.04 915.973 71.968C916.293 72.992 916.677 73.856 917.125 74.56C917.573 75.264 917.925 75.744 918.181 76H905.701C905.477 75.776 905.157 75.344 904.741 74.704C904.357 74.032 904.005 73.264 903.685 72.4C903.365 71.44 903.125 70.416 902.965 69.328C902.805 68.208 902.725 66.976 902.725 65.632L905.221 67.36C904.261 69.312 902.789 71.024 900.805 72.496C898.853 73.936 896.517 75.056 893.797 75.856C891.077 76.656 888.117 77.056 884.917 77.056ZM887.989 67.12C890.613 67.12 893.045 66.672 895.285 65.776C897.525 64.88 899.333 63.504 900.709 61.648C902.085 59.76 902.773 57.344 902.773 54.4V47.584L905.845 51.04C903.797 51.808 901.333 52.448 898.453 52.96C895.573 53.44 892.661 53.824 889.717 54.112C885.941 54.464 883.093 55.12 881.173 56.08C879.285 57.04 878.341 58.608 878.341 60.784C878.341 62.896 879.141 64.48 880.741 65.536C882.341 66.592 884.757 67.12 887.989 67.12ZM948.238 77.056C944.046 77.056 940.158 76.048 936.574 74.032C933.022 71.984 930.174 68.976 928.03 65.008C925.886 61.04 924.814 56.16 924.814 50.368C924.814 44.736 925.902 39.968 928.078 36.064C930.286 32.16 933.166 29.2 936.718 27.184C940.302 25.168 944.142 24.16 948.238 24.16C952.238 24.16 955.934 25.152 959.326 27.136C962.718 29.088 965.438 31.808 967.486 35.296C969.534 38.784 970.558 42.784 970.558 47.296C970.558 47.424 970.558 47.552 970.558 47.68C970.558 47.808 970.558 47.936 970.558 48.064L964.318 48.208C964.318 48.112 964.318 48.016 964.318 47.92C964.318 47.792 964.318 47.68 964.318 47.584C964.318 45.056 963.678 42.848 962.398 40.96C961.15 39.072 959.518 37.6 957.502 36.544C955.518 35.456 953.406 34.912 951.166 34.912C947.486 34.912 944.35 36.16 941.758 38.656C939.166 41.12 937.87 45.024 937.87 50.368C937.87 55.68 939.166 59.6 941.758 62.128C944.35 64.656 947.486 65.92 951.166 65.92C953.502 65.92 955.662 65.36 957.646 64.24C959.63 63.12 961.23 61.584 962.446 59.632C963.694 57.648 964.318 55.376 964.318 52.816L970.558 53.104C970.558 57.584 969.55 61.648 967.534 65.296C965.55 68.912 962.878 71.776 959.518 73.888C956.158 76 952.398 77.056 948.238 77.056ZM964.318 76V0.975996H976.99V76H964.318ZM1014.47 77.008C1009.09 77.008 1004.36 75.888 1000.26 73.648C996.166 71.376 992.95 68.24 990.614 64.24C988.31 60.24 987.158 55.664 987.158 50.512C987.158 45.328 988.31 40.768 990.614 36.832C992.95 32.864 996.166 29.76 1000.26 27.52C1004.36 25.28 1009.09 24.16 1014.47 24.16C1019.85 24.16 1024.58 25.28 1028.68 27.52C1032.77 29.76 1035.97 32.864 1038.28 36.832C1040.61 40.768 1041.78 45.328 1041.78 50.512C1041.78 55.664 1040.61 60.24 1038.28 64.24C1035.97 68.24 1032.77 71.376 1028.68 73.648C1024.58 75.888 1019.85 77.008 1014.47 77.008ZM1014.47 66.688C1017.38 66.688 1019.93 66.016 1022.1 64.672C1024.28 63.328 1025.97 61.456 1027.19 59.056C1028.41 56.624 1029.01 53.776 1029.01 50.512C1029.01 47.248 1028.41 44.432 1027.19 42.064C1025.97 39.664 1024.28 37.808 1022.1 36.496C1019.93 35.184 1017.38 34.528 1014.47 34.528C1011.59 34.528 1009.05 35.184 1006.84 36.496C1004.66 37.808 1002.97 39.664 1001.75 42.064C1000.53 44.432 999.926 47.248 999.926 50.512C999.926 53.776 1000.53 56.624 1001.75 59.056C1002.97 61.456 1004.66 63.328 1006.84 64.672C1009.05 66.016 1011.59 66.688 1014.47 66.688ZM1081.12 54.592V45.616H1116.78L1115.34 48.016C1115.34 47.824 1115.34 47.616 1115.34 47.392C1115.34 47.136 1115.34 46.928 1115.34 46.768C1115.34 44.56 1114.85 42.496 1113.85 40.576C1112.86 38.624 1111.36 37.056 1109.34 35.872C1107.33 34.656 1104.77 34.048 1101.66 34.048C1098.59 34.048 1095.92 34.704 1093.65 36.016C1091.41 37.296 1089.66 39.152 1088.41 41.584C1087.2 44.016 1086.59 46.928 1086.59 50.32C1086.59 53.808 1087.18 56.816 1088.37 59.344C1089.55 61.84 1091.28 63.76 1093.55 65.104C1095.85 66.416 1098.65 67.072 1101.95 67.072C1104.19 67.072 1106.13 66.864 1107.76 66.448C1109.39 66.032 1110.72 65.472 1111.74 64.768C1112.8 64.032 1113.58 63.248 1114.09 62.416C1114.64 61.584 1114.96 60.752 1115.05 59.92H1127.63C1127.44 62.064 1126.72 64.16 1125.47 66.208C1124.25 68.224 1122.54 70.064 1120.33 71.728C1118.13 73.36 1115.44 74.672 1112.27 75.664C1109.13 76.624 1105.55 77.104 1101.52 77.104C1096.05 77.104 1091.26 75.984 1087.17 73.744C1083.07 71.504 1079.87 68.384 1077.57 64.384C1075.29 60.384 1074.16 55.808 1074.16 50.656C1074.16 45.376 1075.31 40.752 1077.61 36.784C1079.95 32.816 1083.18 29.728 1087.31 27.52C1091.44 25.28 1096.17 24.16 1101.52 24.16C1107.02 24.16 1111.77 25.28 1115.77 27.52C1119.81 29.76 1122.91 32.88 1125.09 36.88C1127.26 40.848 1128.35 45.472 1128.35 50.752C1128.35 51.424 1128.33 52.144 1128.3 52.912C1128.27 53.68 1128.22 54.24 1128.16 54.592H1081.12ZM1.79913 174V123.024H14.2791V174H1.79913ZM8.08713 113.616C6.03913 113.616 4.24713 113.072 2.71113 111.984C1.20713 110.864 0.455125 109.312 0.455125 107.328C0.455125 105.376 1.20713 103.856 2.71113 102.768C4.24713 101.68 6.03913 101.136 8.08713 101.136C10.1031 101.136 11.8631 101.68 13.3671 102.768C14.8711 103.856 15.6231 105.376 15.6231 107.328C15.6231 109.312 14.8711 110.864 13.3671 111.984C11.8631 113.072 10.1031 113.616 8.08713 113.616ZM62.8371 174V151.392C62.8371 150.112 62.8371 148.992 62.8371 148.032C62.8371 147.04 62.8371 146.144 62.8371 145.344C62.8371 143.04 62.5011 140.976 61.8291 139.152C61.1891 137.296 60.0691 135.84 58.4691 134.784C56.9011 133.728 54.7251 133.2 51.9411 133.2C49.5091 133.2 47.3491 133.792 45.4611 134.976C43.5731 136.128 42.0851 137.728 40.9971 139.776C39.9411 141.792 39.4131 144.128 39.4131 146.784L35.1411 144.144C35.1411 139.888 36.1011 136.112 38.0211 132.816C39.9731 129.488 42.5811 126.88 45.8451 124.992C49.1091 123.104 52.7251 122.16 56.6931 122.16C60.7891 122.16 64.2291 122.96 67.0131 124.56C69.8291 126.16 71.9411 128.432 73.3491 131.376C74.7891 134.32 75.5091 137.776 75.5091 141.744C75.5091 143.28 75.5091 145.008 75.5091 146.928C75.5091 148.848 75.5091 150.736 75.5091 152.592V174H62.8371ZM26.7891 174V123.024H39.4131V174H26.7891ZM109.838 174.96C108.014 174.96 106.158 174.784 104.27 174.432C102.382 174.08 100.654 173.424 99.0861 172.464C97.5181 171.504 96.2541 170.096 95.2941 168.24C94.3341 166.384 93.8541 163.936 93.8541 160.896C93.8541 160.192 93.8541 159.488 93.8541 158.784C93.8541 158.048 93.8541 157.296 93.8541 156.528V133.104H81.8061V123.024H86.7021C88.3661 123.024 89.6781 122.96 90.6381 122.832C91.5981 122.672 92.3021 122.32 92.7501 121.776C93.1981 121.232 93.4861 120.384 93.6141 119.232C93.7741 118.048 93.8541 116.416 93.8541 114.336V106.224H106.526V123.024H121.694V133.104H106.526V153.552C106.526 154.16 106.526 154.768 106.526 155.376C106.526 155.952 106.526 156.512 106.526 157.056C106.526 159.424 106.814 161.328 107.39 162.768C107.966 164.208 109.326 164.928 111.47 164.928C112.494 164.928 113.454 164.832 114.35 164.64C115.278 164.448 115.966 164.256 116.414 164.064V173.952C115.806 174.176 114.926 174.4 113.774 174.624C112.622 174.848 111.31 174.96 109.838 174.96ZM154.876 175.008C149.5 175.008 144.764 173.888 140.668 171.648C136.572 169.376 133.356 166.24 131.02 162.24C128.716 158.24 127.564 153.664 127.564 148.512C127.564 143.328 128.716 138.768 131.02 134.832C133.356 130.864 136.572 127.76 140.668 125.52C144.764 123.28 149.5 122.16 154.876 122.16C160.252 122.16 164.988 123.28 169.084 125.52C173.18 127.76 176.38 130.864 178.684 134.832C181.02 138.768 182.188 143.328 182.188 148.512C182.188 153.664 181.02 158.24 178.684 162.24C176.38 166.24 173.18 169.376 169.084 171.648C164.988 173.888 160.252 175.008 154.876 175.008ZM154.876 164.688C157.788 164.688 160.332 164.016 162.508 162.672C164.684 161.328 166.38 159.456 167.596 157.056C168.812 154.624 169.42 151.776 169.42 148.512C169.42 145.248 168.812 142.432 167.596 140.064C166.38 137.664 164.684 135.808 162.508 134.496C160.332 133.184 157.788 132.528 154.876 132.528C151.996 132.528 149.452 133.184 147.244 134.496C145.068 135.808 143.372 137.664 142.156 140.064C140.94 142.432 140.332 145.248 140.332 148.512C140.332 151.776 140.94 154.624 142.156 157.056C143.372 159.456 145.068 161.328 147.244 162.672C149.452 164.016 151.996 164.688 154.876 164.688ZM206.058 146.208L205.962 151.968L185.178 123.024H199.002L214.65 145.728L207.066 145.68L222.426 123.024H235.962L216.042 150.336L215.706 145.056L236.25 174H222.426L206.538 151.344L215.082 150.576L197.946 174H184.41L206.058 146.208ZM244.143 174V123.024H256.623V174H244.143ZM250.431 113.616C248.383 113.616 246.591 113.072 245.055 111.984C243.551 110.864 242.799 109.312 242.799 107.328C242.799 105.376 243.551 103.856 245.055 102.768C246.591 101.68 248.383 101.136 250.431 101.136C252.447 101.136 254.207 101.68 255.711 102.768C257.215 103.856 257.967 105.376 257.967 107.328C257.967 109.312 257.215 110.864 255.711 111.984C254.207 113.072 252.447 113.616 250.431 113.616ZM294.333 175.056C288.957 175.056 284.205 173.952 280.077 171.744C275.949 169.536 272.717 166.432 270.381 162.432C268.045 158.432 266.877 153.744 266.877 148.368C266.877 143.024 268.045 138.384 270.381 134.448C272.717 130.512 275.949 127.488 280.077 125.376C284.205 123.232 288.957 122.16 294.333 122.16C298.365 122.16 301.933 122.752 305.037 123.936C308.141 125.12 310.749 126.704 312.861 128.688C315.005 130.64 316.637 132.8 317.757 135.168C318.877 137.504 319.437 139.84 319.437 142.176C319.437 142.24 319.437 142.304 319.437 142.368C319.437 142.432 319.437 142.496 319.437 142.56H306.909C306.909 142.4 306.893 142.224 306.861 142.032C306.829 141.84 306.797 141.648 306.765 141.456C306.509 139.824 305.853 138.352 304.797 137.04C303.741 135.696 302.333 134.624 300.573 133.824C298.813 133.024 296.685 132.624 294.189 132.624C291.533 132.624 289.101 133.216 286.893 134.4C284.717 135.552 282.973 137.296 281.661 139.632C280.381 141.968 279.741 144.88 279.741 148.368C279.741 151.824 280.381 154.768 281.661 157.2C282.941 159.6 284.669 161.44 286.845 162.72C289.053 163.968 291.501 164.592 294.189 164.592C297.037 164.592 299.357 164.16 301.149 163.296C302.973 162.4 304.349 161.216 305.277 159.744C306.205 158.24 306.733 156.608 306.861 154.848H319.437C319.437 157.216 318.893 159.6 317.805 162C316.717 164.368 315.117 166.544 313.005 168.528C310.893 170.512 308.269 172.096 305.133 173.28C302.029 174.464 298.429 175.056 294.333 175.056ZM347.355 175.056C343.547 175.056 340.203 174.464 337.323 173.28C334.443 172.064 332.187 170.32 330.555 168.048C328.923 165.776 328.107 163.04 328.107 159.84C328.107 156.352 329.051 153.488 330.939 151.248C332.859 148.976 335.435 147.232 338.667 146.016C341.899 144.768 345.483 143.968 349.419 143.616C355.243 143.04 359.307 142.496 361.611 141.984C363.947 141.44 365.115 140.576 365.115 139.392C365.115 139.36 365.115 139.344 365.115 139.344C365.115 139.312 365.115 139.296 365.115 139.296C365.115 137.056 364.107 135.328 362.091 134.112C360.075 132.896 357.227 132.288 353.547 132.288C349.675 132.288 346.699 132.976 344.619 134.352C342.571 135.696 341.547 137.84 341.547 140.784H329.067C329.067 136.784 330.123 133.408 332.235 130.656C334.379 127.872 337.307 125.76 341.019 124.32C344.731 122.88 348.939 122.16 353.643 122.16C358.027 122.16 362.043 122.816 365.691 124.128C369.339 125.44 372.267 127.424 374.475 130.08C376.683 132.736 377.787 136.048 377.787 140.016C377.787 140.688 377.787 141.36 377.787 142.032C377.787 142.704 377.787 143.376 377.787 144.048V163.248C377.787 164.464 377.819 165.664 377.883 166.848C377.979 168 378.155 169.04 378.411 169.968C378.731 170.992 379.115 171.856 379.563 172.56C380.011 173.264 380.363 173.744 380.619 174H368.139C367.915 173.776 367.595 173.344 367.179 172.704C366.795 172.032 366.443 171.264 366.123 170.4C365.803 169.44 365.563 168.416 365.403 167.328C365.243 166.208 365.163 164.976 365.163 163.632L367.659 165.36C366.699 167.312 365.227 169.024 363.243 170.496C361.291 171.936 358.955 173.056 356.235 173.856C353.515 174.656 350.555 175.056 347.355 175.056ZM350.427 165.12C353.051 165.12 355.483 164.672 357.723 163.776C359.963 162.88 361.771 161.504 363.147 159.648C364.523 157.76 365.211 155.344 365.211 152.4V145.584L368.283 149.04C366.235 149.808 363.771 150.448 360.891 150.96C358.011 151.44 355.099 151.824 352.155 152.112C348.379 152.464 345.531 153.12 343.611 154.08C341.723 155.04 340.779 156.608 340.779 158.784C340.779 160.896 341.579 162.48 343.179 163.536C344.779 164.592 347.195 165.12 350.427 165.12ZM410.676 175.056C406.484 175.056 402.596 174.048 399.012 172.032C395.46 169.984 392.612 166.976 390.468 163.008C388.324 159.04 387.252 154.16 387.252 148.368C387.252 142.736 388.34 137.968 390.516 134.064C392.724 130.16 395.604 127.2 399.156 125.184C402.74 123.168 406.58 122.16 410.676 122.16C414.676 122.16 418.372 123.152 421.764 125.136C425.156 127.088 427.876 129.808 429.924 133.296C431.972 136.784 432.996 140.784 432.996 145.296C432.996 145.424 432.996 145.552 432.996 145.68C432.996 145.808 432.996 145.936 432.996 146.064L426.756 146.208C426.756 146.112 426.756 146.016 426.756 145.92C426.756 145.792 426.756 145.68 426.756 145.584C426.756 143.056 426.116 140.848 424.836 138.96C423.588 137.072 421.956 135.6 419.94 134.544C417.956 133.456 415.844 132.912 413.604 132.912C409.924 132.912 406.788 134.16 404.196 136.656C401.604 139.12 400.308 143.024 400.308 148.368C400.308 153.68 401.604 157.6 404.196 160.128C406.788 162.656 409.924 163.92 413.604 163.92C415.94 163.92 418.1 163.36 420.084 162.24C422.068 161.12 423.668 159.584 424.884 157.632C426.132 155.648 426.756 153.376 426.756 150.816L432.996 151.104C432.996 155.584 431.988 159.648 429.972 163.296C427.988 166.912 425.316 169.776 421.956 171.888C418.596 174 414.836 175.056 410.676 175.056ZM426.756 174V98.976H439.428V174H426.756ZM476.908 175.008C471.532 175.008 466.796 173.888 462.7 171.648C458.604 169.376 455.388 166.24 453.052 162.24C450.748 158.24 449.596 153.664 449.596 148.512C449.596 143.328 450.748 138.768 453.052 134.832C455.388 130.864 458.604 127.76 462.7 125.52C466.796 123.28 471.532 122.16 476.908 122.16C482.284 122.16 487.02 123.28 491.116 125.52C495.212 127.76 498.412 130.864 500.716 134.832C503.052 138.768 504.22 143.328 504.22 148.512C504.22 153.664 503.052 158.24 500.716 162.24C498.412 166.24 495.212 169.376 491.116 171.648C487.02 173.888 482.284 175.008 476.908 175.008ZM476.908 164.688C479.82 164.688 482.364 164.016 484.54 162.672C486.716 161.328 488.412 159.456 489.628 157.056C490.844 154.624 491.452 151.776 491.452 148.512C491.452 145.248 490.844 142.432 489.628 140.064C488.412 137.664 486.716 135.808 484.54 134.496C482.364 133.184 479.82 132.528 476.908 132.528C474.028 132.528 471.484 133.184 469.276 134.496C467.1 135.808 465.404 137.664 464.188 140.064C462.972 142.432 462.364 145.248 462.364 148.512C462.364 151.776 462.972 154.624 464.188 157.056C465.404 159.456 467.1 161.328 469.276 162.672C471.484 164.016 474.028 164.688 476.908 164.688Z" fill="#009A05"></path></svg>