<svg xmlns="http://www.w3.org/2000/svg" width="619" height="619" viewBox="0 0 619 619" fill="none"><path d="M309.5 619C480.437 619 619 480.437 619 309.5C619 138.563 480.437 0 309.5 0C138.563 0 0 138.563 0 309.5C0 480.437 138.563 619 309.5 619Z" fill="#009A05"></path><path d="M309.5 489.502C408.926 489.502 489.502 408.902 489.502 309.5C489.502 210.098 408.902 129.498 309.5 129.498C210.098 129.498 129.498 210.074 129.498 309.5C129.498 408.926 210.098 489.502 309.5 489.502Z" fill="#C42D00"></path><path d="M416.983 277.282C416.962 285.834 413.538 294.029 407.461 300.071C401.383 306.114 393.148 309.511 384.56 309.518H231.761C231.08 309.531 230.431 309.81 229.953 310.294C229.476 310.779 229.209 311.43 229.209 312.109C229.209 312.788 229.476 313.439 229.954 313.924C230.431 314.408 231.08 314.687 231.761 314.7H343.914C352.141 314.711 360.027 317.972 365.84 323.768C371.654 329.565 374.919 337.422 374.919 345.614C374.919 353.806 371.654 361.664 365.84 367.46C360.027 373.256 352.141 376.518 343.914 376.528H269.492C268.813 376.545 268.167 376.825 267.693 377.309C267.218 377.793 266.953 378.443 266.953 379.12C266.953 379.796 267.218 380.446 267.693 380.93C268.168 381.414 268.813 381.694 269.493 381.711H285.001C294.522 381.721 303.65 385.492 310.382 392.196C317.115 398.9 320.901 407.989 320.911 417.47V435.972C320.881 439.189 319.576 442.264 317.281 444.528C314.986 446.793 311.886 448.063 308.655 448.063C305.424 448.063 302.324 446.792 300.029 444.528C297.734 442.264 296.429 439.189 296.399 435.972V424.156C296.384 420.825 295.046 417.636 292.676 415.285C290.306 412.935 287.097 411.615 283.752 411.614H273.5C265.135 411.614 257.113 408.305 251.199 402.415C245.284 396.525 241.961 388.537 241.961 380.208C241.961 371.878 245.284 363.89 251.199 358C257.113 352.11 265.135 348.802 273.5 348.802H345.32C346 348.787 346.648 348.507 347.123 348.023C347.599 347.539 347.866 346.888 347.866 346.21C347.866 345.533 347.599 344.882 347.123 344.397C346.648 343.913 346 343.634 345.32 343.619H220.467C178.641 342.143 178.559 282.105 220.468 280.599H377.535C378.216 280.585 378.864 280.306 379.341 279.821C379.817 279.337 380.084 278.686 380.084 278.007C380.084 277.329 379.817 276.678 379.34 276.194C378.864 275.709 378.215 275.43 377.534 275.416H273.291C230.048 273.918 230.047 211.917 273.292 210.375H337.773C339.332 210.376 340.875 210.071 342.315 209.477C343.755 208.883 345.063 208.013 346.165 206.916C347.267 205.818 348.141 204.515 348.737 203.081C349.333 201.647 349.64 200.111 349.639 198.559V186.121C349.639 182.781 350.971 179.578 353.343 177.216C355.715 174.854 358.932 173.527 362.286 173.527C365.64 173.527 368.856 174.854 371.228 177.216C373.6 179.578 374.932 182.781 374.932 186.121V206.385C374.928 215.249 371.39 223.749 365.096 230.017C358.802 236.285 350.266 239.808 341.364 239.812H283.752C283.071 239.826 282.422 240.105 281.946 240.589C281.469 241.074 281.201 241.725 281.201 242.404C281.201 243.082 281.469 243.733 281.946 244.218C282.422 244.702 283.071 244.981 283.752 244.995H384.56C393.156 245.005 401.397 248.41 407.476 254.463C413.554 260.515 416.973 268.722 416.983 277.282Z" fill="white"></path><path d="M30.173 283.212C37.7875 283.626 45.4797 284.17 53.1977 284.792C63.4799 285.621 71.5864 286.19 77.4915 286.527C84.329 286.916 91.1406 287.097 97.9263 287.071C98.8587 288.107 99.1954 290.671 98.9623 294.763C98.8328 297.12 98.7033 298.829 98.5738 299.943L98.4184 301.109L98.2112 302.87C98.1335 304.165 98.3148 305.848 98.7033 307.894C93.0572 307.195 87.0485 306.651 80.6772 306.314C78.139 306.185 74.3836 306.029 69.4368 305.874L63.7648 305.667C56.8496 305.537 51.2294 305.356 46.93 305.123C40.481 304.76 34.1615 304.113 27.9197 303.18C27.842 302.326 27.8162 301.419 27.868 300.435C27.8939 299.917 27.9974 299.192 28.1269 298.285C28.2823 297.379 28.36 296.317 28.36 295.074C28.7485 291.707 28.9557 289.013 29.0075 286.967L29.2147 283.16L30.0953 283.212H30.173Z" fill="white"></path><path d="M95.0774 258.866C85.4168 260.964 78.7347 262.259 75.0829 262.803L93.4198 266.817C97.3824 267.672 100.076 268.242 101.552 268.501C101.682 270.34 101.552 272.282 101.086 274.302C100.957 274.95 100.672 275.882 100.257 277.126C99.817 278.498 99.5321 279.508 99.4026 280.13L98.1853 284.766L91.0111 283.186C86.9449 282.305 81.1175 281.088 73.5807 279.56C69.7994 278.809 64.1015 277.592 56.4611 275.908C46.2049 273.655 37.658 271.505 30.8464 269.407C30.7687 267.594 30.9759 265.626 31.4421 263.528C31.7529 262.13 32.245 260.446 32.9443 258.504C33.6436 256.561 34.3169 255.24 34.9903 254.593C36.8551 254.075 39.3933 253.479 42.6307 252.806C45.8682 252.158 49.1056 251.537 52.2913 250.967L61.9259 249.076C57.4453 248.222 52.1618 247.134 46.1272 245.813C41.2321 244.751 37.8652 243.974 36.0263 243.508C36.0781 240.788 36.4407 237.965 37.0882 235.013C37.6321 232.526 38.4868 230.014 39.6523 227.45L107.406 242.291C107.354 242.472 107.38 242.886 107.431 243.508C107.535 244.207 107.431 245.347 107.069 246.927C107.069 247.263 106.603 248.921 105.67 251.925C105.437 252.676 105.152 253.635 104.842 254.8C104.531 255.966 104.375 256.639 104.401 256.846L95.0515 258.815L95.0774 258.866Z" fill="white"></path><path d="M67.8051 177.516C71.2757 179.044 74.28 180.624 76.8441 182.255C75.6268 184.068 74.7462 185.545 74.2541 186.684L72.3116 190.854C71.6382 192.408 71.3792 193.211 71.5605 193.289C72.3375 193.781 74.0728 194.609 76.7664 195.801C82.024 198.132 96.2428 204.166 119.449 213.931C118.983 215.795 118.232 217.893 117.196 220.224L116.056 222.814C114.735 225.793 113.725 228.642 113.052 231.335C112.663 231.387 112.016 231.257 111.032 230.921C110.073 230.61 109.219 230.247 108.467 229.833L104.09 227.89L96.0874 224.239C85.2355 219.447 74.539 214.992 63.9979 210.926C63.4022 211.444 62.8583 212.299 62.3144 213.49L60.8122 217.116C59.9057 219.136 59.1287 220.535 58.4295 221.312C57.9892 221.312 56.9532 221.053 55.2697 220.457C53.5862 219.862 51.7733 219.11 49.7272 218.23C46.7487 216.909 44.5991 215.925 43.33 215.303L45.0394 211.444L46.4898 207.922L48.6912 202.923L50.8927 197.692C54.8294 188.808 58.3518 181.711 61.4856 176.376L62.0036 175.211C64.0756 175.988 66.018 176.765 67.8051 177.568V177.516Z" fill="white"></path><path d="M149.285 168.451C147.628 170.808 145.245 174.304 142.137 178.966L134.859 189.507C131.518 194.247 128.022 198.883 124.37 203.415C122.686 202.172 116.004 197.588 104.272 189.663C97.5896 185.208 92.4874 181.763 88.9651 179.277C81.6614 174.149 74.9793 169.176 68.9447 164.385L73.6584 157.159C78.8901 149.026 82.9564 142.888 85.883 138.718C88.3953 135.144 90.9593 131.777 93.6011 128.591C94.8702 129.161 96.2429 129.99 97.745 131.026C98.5479 131.596 99.817 132.554 101.552 133.953C103.184 135.248 104.479 136.258 105.437 136.931C103.883 140.609 101.708 144.442 98.9364 148.379L91.7104 158.842C94.0414 160.862 96.0097 162.468 97.6673 163.634C98.9364 164.54 100.18 165.162 101.371 165.524L104.453 159.8C104.971 159.049 105.826 157.962 106.965 156.563L107.768 155.579C109.555 156.433 111.394 157.521 113.259 158.842L119.552 163.504C118.827 165.55 117.455 168.011 115.434 170.885L113.88 172.906C113.621 173.268 113.492 173.553 113.544 173.734L117.481 176.972C119.682 178.5 121.547 179.665 123.153 180.468C125.095 177.697 127.063 175.055 129.084 172.543C129.783 171.662 130.612 170.601 131.596 169.306C132.58 168.011 133.72 166.457 134.989 164.644L138.252 159.645C140.79 161.251 142.241 162.209 142.603 162.468C145.323 164.385 147.55 166.379 149.259 168.477L149.285 168.451Z" fill="white"></path><path d="M143.846 111.342C141.515 113.544 139.236 115.201 136.983 116.315C136.62 115.745 136.361 115.383 136.18 115.175C135.144 114.088 133.901 113.57 132.425 113.596C130.948 113.647 129.705 114.139 128.721 115.072C127.996 115.745 127.581 116.574 127.478 117.532C127.348 118.491 127.685 119.475 128.436 120.459C128.695 121.029 128.98 121.469 129.291 121.806L129.964 122.376L130.094 122.531C131.363 123.204 132.502 123.437 133.486 123.23C134.497 122.997 135.507 122.531 136.543 121.832C139.236 119.941 142.448 118.542 146.229 117.688C149.984 116.833 153.507 116.652 156.77 117.17C158.842 117.558 160.836 118.257 162.753 119.242C164.695 120.252 166.327 121.469 167.674 122.894C170.005 125.354 171.714 128.281 172.802 131.622C174.071 135.455 174.123 139.288 172.931 143.173C171.74 147.058 169.642 150.425 166.612 153.3C163.53 156.2 159.956 158.428 155.89 159.956C151.823 161.484 147.835 161.976 143.872 161.38C139.91 160.811 136.646 158.92 134.004 155.76L133.409 155.113C134.574 153.585 135.973 152.031 137.63 150.477C139.055 149.13 140.298 148.016 141.334 147.136C142.292 146.333 143.924 144.83 146.255 142.655C147.654 144.028 149.13 144.727 150.736 144.753C152.315 144.779 153.662 144.287 154.75 143.251C155.708 142.37 156.2 141.308 156.252 140.091C156.304 138.874 155.812 137.682 154.724 136.543C154.31 136.102 153.973 135.817 153.714 135.61C151.823 134.082 149.829 133.616 147.731 134.263C145.633 134.885 143.147 136.102 140.272 137.915L139.003 138.718C136.594 140.272 134.03 141.101 131.311 141.256C128.048 141.205 125.069 140.635 122.427 139.547C119.786 138.459 117.558 136.957 115.771 135.066C112.87 131.984 111.057 128.177 110.358 123.696C109.659 119.19 110.229 114.916 112.067 110.876C113.207 108.364 115.15 105.826 117.895 103.236C121.469 99.8947 125.328 97.486 129.524 96.0357C132.787 95.1292 135.921 94.9738 138.951 95.6213C141.982 96.2687 144.675 97.8486 147.032 100.361C147.938 101.319 148.948 102.666 150.088 104.453L149.233 105.256C147.55 107.457 145.737 109.478 143.794 111.316L143.846 111.342Z" fill="white"></path><path d="M183.939 63.4022C185.959 66.6137 187.565 69.5922 188.756 72.3893C186.736 73.1922 185.182 73.9433 184.146 74.5908L180.209 76.9477C178.759 77.8541 178.111 78.3721 178.215 78.5534C178.578 79.4081 179.562 81.0657 181.116 83.552C184.172 88.4212 192.563 101.397 206.316 122.479C204.892 123.774 203.105 125.069 200.929 126.416L198.52 127.918C195.749 129.653 193.34 131.44 191.268 133.279C190.932 133.098 190.44 132.632 189.818 131.803C189.196 130.974 188.678 130.223 188.29 129.472L185.752 125.406L181.168 117.895C174.874 107.846 168.503 98.1594 162.08 88.8874C161.303 88.991 160.344 89.3795 159.257 90.0787L155.993 92.2284C154.103 93.3939 152.678 94.1191 151.668 94.3522C151.305 94.1191 150.58 93.2903 149.544 91.8658C148.508 90.4413 147.395 88.7838 146.203 86.919C144.468 84.1477 143.251 82.1535 142.551 80.8844L146.125 78.657L149.311 76.5592L153.947 73.6584L158.713 70.5764C166.949 65.4223 173.864 61.5115 179.432 58.8697L180.52 58.1964C181.815 60.0093 182.981 61.7446 184.017 63.4022H183.939Z" fill="white"></path><path d="M208.543 46.2567C211.6 53.2495 214.578 60.346 217.479 67.5461C221.364 77.1031 224.472 84.588 226.829 90.0269C229.548 96.2946 232.449 102.485 235.531 108.545C235.013 109.84 232.889 111.291 229.108 112.948C226.958 113.88 225.352 114.554 224.316 114.916L223.203 115.305L221.545 115.927C220.354 116.445 218.929 117.351 217.272 118.646C215.355 113.285 213.128 107.665 210.589 101.811C209.579 99.4803 208.025 96.0616 205.928 91.5809L203.571 86.4269C200.566 80.1851 198.21 75.1088 196.5 71.1461C193.936 65.2151 191.657 59.2841 189.689 53.3013C190.414 52.8351 191.217 52.4208 192.123 52.0323C192.589 51.8251 193.289 51.592 194.143 51.3071C195.024 51.0222 196.008 50.6078 197.122 50.0639C200.307 48.8984 202.82 47.8624 204.633 47.0077L208.129 45.4797L208.492 46.2826L208.543 46.2567Z" fill="white"></path><path d="M259.462 93.3421C253.272 85.624 249.102 80.2628 246.978 77.2326L251.614 95.44C252.625 99.3508 253.324 102.044 253.764 103.469C252.184 104.401 250.397 105.126 248.377 105.644C247.755 105.8 246.771 105.981 245.476 106.188C244.052 106.421 243.016 106.603 242.394 106.758L237.706 107.742L235.893 100.62C234.857 96.5795 233.329 90.8298 231.309 83.4226C230.299 79.7189 228.823 74.0728 226.906 66.4842C224.316 56.3057 222.426 47.707 221.26 40.6623C222.866 39.7818 224.705 39.0825 226.777 38.5386C228.175 38.176 229.885 37.8911 231.957 37.6321C234.003 37.3731 235.479 37.399 236.36 37.7098C237.655 39.1343 239.338 41.1544 241.384 43.7444C243.43 46.3603 245.424 48.9502 247.367 51.5661L253.376 59.3359C252.132 54.933 250.734 49.7531 249.206 43.7444C247.963 38.8753 247.16 35.5083 246.745 33.6695C249.206 32.504 251.899 31.5457 254.8 30.8205C257.261 30.1989 259.902 29.8363 262.699 29.7327L279.793 96.9421C279.612 96.9939 279.249 97.1752 278.731 97.5119C278.162 97.9263 277.1 98.3407 275.52 98.7292C275.209 98.8587 273.525 99.1954 270.418 99.7134C269.641 99.8429 268.656 100.024 267.491 100.257C266.299 100.49 265.626 100.672 265.445 100.775L259.514 93.3162L259.462 93.3421Z" fill="white"></path><path d="M323.071 49.0538V50.815L323.123 52.5761C323.071 54.7258 323.123 57.8856 323.33 62.0554C323.512 66.6914 323.563 70.2138 323.486 72.6224L323.33 75.8599C323.227 81.1434 322.087 85.7017 319.886 89.509C318.953 90.9075 317.555 92.1766 315.638 93.3162C313.722 94.4299 311.624 95.3882 309.293 96.1134C306.91 96.9421 304.087 97.4083 300.824 97.5378C299.321 97.5896 298.285 97.6155 297.69 97.5637C294.478 97.4342 291.603 96.8644 289.039 95.8285C286.475 94.7925 284.585 93.1867 283.316 91.037C281.632 88.1622 280.622 84.5362 280.311 80.1074L279.974 76.9995C279.897 76.4815 279.819 75.4196 279.741 73.7879C279.197 68.4526 278.809 63.3504 278.602 58.4554C278.472 55.451 278.446 52.4467 278.524 49.4423C278.576 46.179 279.016 42.9674 279.845 39.8336C280.648 36.6997 281.995 33.9285 283.859 31.4939L285.957 30.2248C290.049 28.0233 294.556 26.832 299.503 26.6248C302.637 26.4953 305.589 26.7802 308.412 27.4795C311.209 28.1787 313.696 29.2665 315.845 30.7428C318.202 32.7371 319.808 34.7313 320.585 36.7256C321.466 38.7717 322.087 40.8436 322.502 42.9156C322.786 44.9358 322.968 46.9818 323.045 49.0538H323.071ZM307.817 54.1819L307.221 49.1056C307.014 47.2926 306.496 45.6869 305.693 44.3142C304.89 42.9415 303.88 41.9832 302.688 41.4652C302.17 41.2839 301.627 41.2062 301.109 41.2321C299.555 41.2839 298.026 41.8796 296.576 42.9933C295.825 43.6667 295.1 44.625 294.401 45.8682C293.701 47.1113 293.183 48.3545 292.847 49.5977C292.303 52.4985 292.147 56.1503 292.329 60.5791C292.432 62.8065 292.51 64.4641 292.639 65.5518V65.4482C292.95 66.7432 293.209 68.4526 293.442 70.6023L293.598 71.9749C293.986 75.2124 294.452 77.621 294.97 79.175V79.0714C295.618 80.3405 296.524 81.2988 297.69 81.9463C298.855 82.5938 300.098 82.8787 301.393 82.8269C302.429 82.7751 303.491 82.4902 304.527 81.9722C305.589 81.4283 306.47 80.7031 307.221 79.7448C307.842 78.8642 308.205 78.139 308.36 77.5434C308.49 76.9477 308.542 76.0412 308.49 74.798C308.438 73.6843 308.438 72.8814 308.49 72.3375L308.542 71.0685V69.2037L308.516 67.831V65.9662L308.335 61.2784L307.868 54.6481V54.156L307.817 54.1819Z" fill="white"></path><path d="M377.823 34.6795C376.321 42.1645 374.689 49.6754 372.98 57.264C370.701 67.313 368.965 75.2383 367.8 81.0657C366.453 87.7737 365.288 94.5076 364.329 101.216C363.19 101.993 360.6 101.967 356.56 101.138C354.254 100.672 352.571 100.309 351.483 100.024L350.344 99.6875L348.634 99.2472C347.365 98.9882 345.682 98.9105 343.584 99.04C345.086 93.5493 346.459 87.6701 347.728 81.4024C348.22 78.916 348.893 75.2124 349.748 70.3433L350.784 64.7749C351.898 57.9374 352.882 52.4208 353.711 48.1991C354.98 41.8796 356.534 35.6896 358.347 29.6809C359.201 29.7327 360.108 29.8363 361.066 30.0176C361.584 30.1212 362.257 30.3025 363.138 30.5874C364.019 30.8723 365.055 31.0795 366.298 31.2608C369.587 32.1155 372.229 32.7112 374.223 33.0479L377.953 33.799L377.771 34.6536L377.823 34.6795Z" fill="white"></path><path d="M392.664 102.459C391.99 92.591 391.653 85.8053 391.653 82.1017L385.023 99.6875C383.599 103.469 382.64 106.085 382.174 107.509C380.335 107.38 378.445 106.939 376.502 106.214C375.881 105.981 375 105.567 373.835 104.997C372.54 104.375 371.581 103.935 370.986 103.702L366.557 101.837L369.147 94.9738C370.623 91.0629 372.643 85.4945 375.233 78.2426C376.528 74.6167 378.548 69.1519 381.32 61.8223C385.023 52.0064 388.39 43.848 391.446 37.4249C393.259 37.6321 395.176 38.0983 397.17 38.8494C398.517 39.3674 400.097 40.0926 401.936 41.0508C403.774 42.0091 404.966 42.8897 405.51 43.6408C405.769 45.5574 405.976 48.1473 406.157 51.4625C406.339 54.7776 406.468 58.041 406.572 61.3043L407.064 71.0944C408.54 66.7691 410.379 61.7187 412.58 55.9172C414.342 51.2294 415.611 47.9919 416.336 46.2567C419.029 46.7228 421.775 47.4739 424.572 48.5358C426.955 49.4423 429.311 50.6337 431.668 52.1618L407.219 117.066C407.038 116.988 406.623 116.963 406.028 116.937C405.328 116.937 404.215 116.678 402.687 116.108C402.35 116.056 400.77 115.357 397.947 114.01C397.248 113.673 396.341 113.259 395.228 112.767C394.114 112.275 393.466 112.042 393.259 112.016L392.664 102.485V102.459Z" fill="white"></path><path d="M443.789 111.032C443.194 110.721 442.52 110.358 441.743 109.892C440.966 109.426 440.138 109.037 439.257 108.701L427.473 125.768L425.634 128.643C423.147 127.452 419.729 125.432 415.326 122.609C411.544 120.174 409.446 118.439 409.032 117.403L417.734 104.039L424.65 93.2644C428.405 87.5406 435.242 76.9477 445.188 61.4597C447.804 62.5993 451.43 64.4382 456.118 66.9763C460.805 69.5145 465.208 72.1044 469.326 74.7462C476.086 79.0714 481.137 83.0341 484.503 86.5823L483.493 88.1363C483.364 88.3435 483.079 88.8097 482.665 89.5349C482.25 90.2341 481.318 91.7881 479.867 94.1709C478.624 96.0875 477.459 97.7968 476.371 99.2472L466.995 93.9378L465.467 93.0572L460.857 90.4413C457.646 88.5507 455.211 87.1521 453.502 86.2974L452.88 86.7118C452.388 87.1003 451.844 87.7737 451.248 88.7061C450.679 89.5867 450.187 90.4931 449.746 91.3996C449.306 92.332 449.099 92.9018 449.099 93.1349C450.368 94.1709 451.637 95.1033 452.88 95.9321C455.392 97.5637 457.723 98.8328 459.821 99.7911C459.718 100.568 459.096 101.811 458.008 103.521L456.946 105.178L455.6 107.095L454.512 108.597L453.502 110.151C452.751 111.291 451.999 112.637 451.171 114.114C450.989 114.398 450.42 114.295 449.487 113.855C448.71 113.518 446.794 112.56 443.763 111.006L443.789 111.032Z" fill="white"></path><path d="M480.463 170.134C479.505 171.119 478.754 171.714 478.21 171.973C477.666 172.206 477.174 172.206 476.76 171.973C476.345 171.74 475.724 171.248 474.947 170.471L474.454 170.005L473.393 168.839L471.502 167.13C468.523 164.411 464.198 160.293 458.526 154.776C453.139 149.544 448.892 145.348 445.758 142.215L447.338 140.609C455.159 133.227 462.877 125.613 470.492 117.817C472.719 115.538 476.526 111.524 481.888 105.826L486.032 101.552C486.757 100.723 488.129 99.2731 490.124 97.2011L494.501 92.5651C495.381 92.9795 496.495 93.6529 497.816 94.6371C499.137 95.6213 500.38 96.6572 501.571 97.7968C502.866 99.0659 504.109 100.439 505.223 101.889C506.337 103.339 507.14 104.634 507.632 105.722C504.265 108.985 501.597 111.627 499.655 113.647C496.935 116.445 492.869 120.692 487.508 126.39C484.814 129.239 480.826 133.409 475.49 138.874L471.062 143.432C472.616 144.934 474.429 146.851 476.526 149.182L480.101 152.937C481.939 154.983 483.701 156.848 485.436 158.531C486.653 159.723 487.767 160.707 488.803 161.536C487.767 162.623 487.042 163.297 486.679 163.582L486.757 163.504C485.436 164.67 484.529 165.55 484.037 166.172L482.82 167.57C482.328 168.166 481.551 169.021 480.489 170.083L480.463 170.134Z" fill="white"></path><path d="M495.666 200.903C494.009 198.546 492.532 195.775 491.16 192.589C491.911 191.502 493.646 189.43 496.34 186.347C499.085 183.24 500.846 181.064 501.571 179.821L500.535 178.163L499.499 176.868C498.696 177.101 496.883 177.852 494.035 179.147C491.678 180.235 489.735 181.038 488.155 181.582C486.575 182.126 485.021 182.411 483.467 182.463C482.975 181.996 482.38 181.245 481.629 180.157C481.292 179.665 480.619 178.604 479.608 176.92C476.578 172.129 474.869 169.461 474.48 168.917C474.739 168.736 475.413 168.347 476.475 167.752C477.536 167.156 478.754 166.56 480.126 165.913L491.47 160.603C500.717 156.2 508.875 152.471 515.894 149.441C522.913 146.41 530.553 143.51 538.815 140.738C539.436 141.412 540.213 142.396 541.094 143.665L541.431 144.157C543.865 147.628 546.378 150.943 548.942 154.051C546.87 156.459 544.824 158.764 542.752 160.992C540.68 163.219 538.841 165.239 537.235 167.001C530.993 173.916 526.849 178.5 524.803 180.805L500.043 206.005C498.463 204.555 496.987 202.846 495.614 200.877L495.666 200.903ZM526.823 159.904L527.574 159.257L525.528 160.448C521.41 163.09 518.069 165.084 515.479 166.405L509.6 169.435L511.957 172.802C521.825 164.152 526.772 159.852 526.823 159.904Z" fill="white"></path><path d="M513.485 237.551C513.381 237.318 513.123 236.748 512.708 235.867C512.294 234.987 511.284 232.785 509.678 229.289C512.864 227.761 515.661 226.466 518.121 225.378L537.572 216.132L535.034 215.951C533.039 215.769 531.589 215.562 530.708 215.329C529.828 215.096 529.258 214.708 528.999 214.112C528.481 212.765 529.957 210.279 533.428 206.627C532.806 206.834 532.029 207.145 531.071 207.611C530.139 208.051 529.387 208.388 528.844 208.647L526.59 209.631C520.789 212.169 513.925 215.485 505.974 219.603C504.42 217.22 503.099 214.708 501.934 212.066L499.448 205.902L498.904 204.633C498.826 204.451 498.8 204.322 498.8 204.244C498.8 204.166 498.878 204.115 498.981 204.063L499.94 203.545C502.167 202.431 506.803 200.333 513.848 197.251C522.084 193.651 537.727 186.917 560.752 177.075C561.451 177.852 562.073 178.681 562.617 179.614C563.16 180.546 563.86 181.945 564.663 183.783L566.502 188.212C567.071 189.533 567.538 190.491 567.874 191.139C567.33 192.304 566.476 193.496 565.362 194.687C564.248 195.879 561.917 198.21 558.395 201.68C558.55 201.68 559.224 201.628 560.441 201.473C561.658 201.317 565.776 201.188 572.743 201.058C572.899 201.913 573.261 202.975 573.805 204.218C574.22 205.176 574.997 206.756 576.11 208.984L579.581 216.443L515.79 243.896C515.246 241.85 514.495 239.727 513.537 237.525L513.485 237.551Z" fill="white"></path><path d="M523.301 280.259C522.705 277.462 522.395 274.328 522.369 270.858C523.482 270.159 525.891 268.889 529.569 267.102C533.324 265.289 535.759 263.969 536.924 263.114L536.613 261.171L536.173 259.566C535.344 259.462 533.376 259.462 530.268 259.566C527.678 259.669 525.554 259.643 523.897 259.566C522.239 259.462 520.685 259.125 519.235 258.581C518.976 257.96 518.691 257.027 518.432 255.758C518.302 255.189 518.095 253.92 517.81 251.977C516.878 246.383 516.334 243.249 516.179 242.627C516.489 242.55 517.266 242.472 518.458 242.342C519.675 242.213 521.022 242.135 522.55 242.057L535.059 241.565C545.29 241.099 554.251 240.814 561.891 240.711C569.558 240.633 577.716 240.918 586.392 241.565C586.703 242.42 587.04 243.637 587.377 245.165L587.506 245.735C588.413 249.879 589.423 253.894 590.614 257.779C587.791 259.203 584.994 260.524 582.223 261.793C579.451 263.062 576.991 264.202 574.789 265.212C566.372 269.174 560.778 271.816 557.981 273.137L525.399 286.786C524.518 284.844 523.819 282.694 523.301 280.337V280.259ZM567.874 254.515L568.807 254.204L566.476 254.515C561.658 255.37 557.799 255.888 554.899 256.121L548.294 256.639L549.149 260.653C561.607 256.484 567.822 254.437 567.848 254.515H567.874Z" fill="white"></path><path d="M572.096 326.464H572.199C570.568 327.008 568.47 327.371 565.854 327.552C563.886 327.448 562.435 327.423 561.451 327.448L559.897 327.371C559.431 327.371 557.903 327.345 555.287 327.267C552.671 327.189 550.107 326.905 547.543 326.438C543.865 325.273 540.265 323.641 536.743 321.517C533.221 319.394 529.569 316.881 525.787 313.955C525.554 308.49 525.399 303.983 525.321 300.461L525.088 293.416L524.855 285.776C533.376 284.429 544.124 283.652 557.1 283.393C562.772 283.29 567.02 283.238 569.817 283.238C572.355 283.238 576.732 283.212 582.922 283.082C584.476 283.057 586.833 282.953 589.967 282.746L592.893 282.59L592.997 283.264C593.981 286.708 594.499 290.697 594.603 295.255L594.551 297.793L594.603 300.435C594.551 301.29 594.551 302.585 594.603 304.346C594.654 306.107 594.706 307.402 594.784 308.257C594.188 310.691 593.075 313.022 591.443 315.276C589.837 317.529 587.946 319.316 585.823 320.663L586.6 320.067C581.834 323.227 577.017 325.351 572.148 326.412L572.096 326.464ZM562.694 311.287C565.414 310.717 567.641 310.044 569.351 309.293C571.06 308.542 572.174 307.402 572.666 305.9V306.107C572.769 304.527 572.821 303.362 572.795 302.585C572.795 301.29 572.692 300.435 572.562 300.047C570.205 300.228 568.004 300.332 565.906 300.383L563.368 300.435L560.726 300.383C559.224 300.357 556.971 300.383 553.966 300.409C551.091 300.461 548.916 300.487 547.414 300.435C547.051 301.419 546.87 302.119 546.87 302.507V303.776C546.921 304.812 547.025 305.563 547.232 306.029C547.517 307.065 548.709 308.205 550.832 309.474C553.345 311.054 556.168 311.831 559.301 311.753C560.467 311.753 561.607 311.572 562.72 311.287H562.694Z" fill="white"></path><path d="M562.876 379.144L561.166 378.73L559.431 378.419C557.333 377.901 554.251 377.253 550.133 376.502C545.575 375.648 542.13 374.922 539.799 374.275L536.665 373.394C531.537 372.099 527.341 369.976 524.13 366.997C522.964 365.78 522.032 364.122 521.385 361.998C520.711 359.875 520.271 357.621 520.064 355.187C519.805 352.675 519.96 349.826 520.556 346.614C520.841 345.138 521.048 344.128 521.229 343.558C522.058 340.45 523.275 337.782 524.855 335.529C526.435 333.276 528.429 331.774 530.812 331.023C533.972 330.012 537.753 329.857 542.156 330.53L545.264 330.919C545.782 330.945 546.844 331.126 548.45 331.411C553.759 332.059 558.835 332.836 563.653 333.716C566.605 334.26 569.532 334.907 572.458 335.633C575.618 336.41 578.648 337.549 581.523 339.051C584.398 340.554 586.807 342.47 588.775 344.827L589.526 347.158C590.744 351.639 590.925 356.301 590.018 361.17C589.449 364.252 588.516 367.075 587.195 369.665C585.9 372.229 584.269 374.404 582.352 376.191C579.892 378.056 577.587 379.144 575.463 379.481C573.261 379.869 571.112 380.025 569.014 379.973C566.994 379.791 564.948 379.507 562.902 379.144H562.876ZM561.27 363.138L566.346 363.682C568.159 363.889 569.843 363.76 571.345 363.268C572.847 362.775 574.012 362.024 574.815 360.962C575.1 360.47 575.282 359.978 575.385 359.486C575.67 357.958 575.437 356.352 574.686 354.669C574.194 353.788 573.417 352.856 572.355 351.898C571.293 350.939 570.205 350.162 569.066 349.541C566.372 348.375 562.824 347.391 558.473 346.588C556.297 346.174 554.64 345.915 553.552 345.785H553.655C552.335 345.811 550.599 345.708 548.45 345.423L547.077 345.267C543.814 344.931 541.379 344.853 539.773 345.008H539.877C538.478 345.371 537.339 346.044 536.458 347.029C535.578 348.013 535.008 349.178 534.775 350.447C534.593 351.483 534.619 352.571 534.904 353.711C535.189 354.85 535.707 355.886 536.458 356.844C537.183 357.647 537.805 358.165 538.349 358.45C538.893 358.735 539.773 358.968 540.991 359.201C542.078 359.409 542.881 359.59 543.373 359.745L544.616 360.082L546.429 360.522L547.776 360.781L549.589 361.221L554.199 362.076L560.778 363.086L561.27 363.164V363.138Z" fill="white"></path><path d="M507.787 414.031C517.681 414.523 524.441 414.963 528.118 415.403L511.439 406.779C507.839 404.914 505.379 403.671 504.006 403.049C504.343 401.236 504.99 399.423 505.948 397.559C506.259 396.989 506.751 396.134 507.476 395.046C508.253 393.829 508.797 392.923 509.082 392.353L511.465 388.183L517.992 391.55C521.695 393.466 527.005 396.134 533.894 399.553C537.339 401.262 542.544 403.904 549.486 407.504C558.809 412.321 566.502 416.621 572.536 420.428C572.122 422.189 571.448 424.054 570.438 425.945C569.791 427.214 568.858 428.716 567.693 430.425C566.527 432.135 565.517 433.222 564.689 433.663C562.772 433.689 560.156 433.611 556.841 433.404C553.526 433.196 550.263 432.963 547.025 432.678L537.235 432.031C541.353 433.999 546.17 436.434 551.661 439.257C556.116 441.562 559.172 443.168 560.83 444.1C560.053 446.716 558.991 449.358 557.618 452.025C556.453 454.279 554.976 456.506 553.189 458.656L491.574 426.799C491.652 426.618 491.755 426.229 491.859 425.608C491.937 424.909 492.325 423.847 493.076 422.396C493.18 422.085 494.06 420.583 495.718 417.916C496.132 417.242 496.65 416.388 497.272 415.352C497.894 414.316 498.204 413.694 498.23 413.487L507.761 414.005L507.787 414.031Z" fill="white"></path><path d="M467.902 455.185C469.689 452.932 471.916 450.73 474.61 448.529C475.853 448.943 478.339 450.005 482.069 451.741C485.85 453.502 488.414 454.564 489.813 454.926L491.108 453.45L492.066 452.077C491.626 451.378 490.383 449.85 488.363 447.493C486.653 445.551 485.332 443.893 484.374 442.546C483.416 441.199 482.69 439.775 482.198 438.299C482.509 437.703 483.053 436.9 483.882 435.89C484.244 435.424 485.099 434.491 486.42 433.041C490.175 428.768 492.247 426.385 492.662 425.867C492.921 426.074 493.465 426.592 494.345 427.447C495.2 428.301 496.132 429.311 497.142 430.451L505.43 439.827C512.268 447.467 518.147 454.227 523.042 460.106C527.937 465.985 532.884 472.486 537.857 479.634C537.39 480.437 536.665 481.447 535.681 482.665L535.318 483.131C532.677 486.446 530.216 489.787 527.937 493.154C525.062 491.859 522.239 490.538 519.52 489.191C516.8 487.845 514.34 486.653 512.19 485.591C503.799 481.551 498.204 478.883 495.433 477.588L464.276 460.961C465.234 459.044 466.451 457.154 467.954 455.263L467.902 455.185ZM516.023 473.47L516.852 474.014L515.143 472.408C511.439 469.197 508.59 466.555 506.596 464.457L502.037 459.692L499.473 462.903C510.558 469.922 516.075 473.47 516.049 473.522L516.023 473.47ZM549.511 472.305C550.729 474.118 552.05 476.345 553.474 479.039C554.899 481.706 555.753 483.96 556.038 485.773C556.219 487.327 556.038 488.958 555.546 490.642C555.028 492.325 554.251 493.827 553.189 495.148C551.765 496.935 550.081 498.127 548.165 498.774C547.491 498.981 546.792 499.111 546.041 499.163C545.29 499.189 544.85 499.214 544.668 499.24C543.192 499.318 542.078 499.448 541.379 499.603C540.965 499.707 540.654 499.888 540.395 500.199C539.903 500.82 539.903 501.804 540.395 503.151C540.887 504.498 541.508 505.767 542.234 506.958C541.275 508.461 539.618 510.714 537.209 513.718L535.811 515.609C535.422 515.376 534.878 514.987 534.231 514.469C531.589 512.346 529.698 509.626 528.585 506.337C527.471 503.022 527.626 499.94 529.077 497.091C529.543 496.288 529.931 495.692 530.268 495.278C531.563 493.646 533.117 492.429 534.878 491.626C536.639 490.823 538.426 490.668 540.188 491.186C541.664 491.445 542.752 491.108 543.477 490.201C544.047 489.476 544.202 488.596 543.969 487.534C543.736 486.472 543.166 485.565 542.234 484.84C541.56 484.322 540.913 483.985 540.239 483.882C543.037 480.593 544.824 478.469 545.575 477.511L549.46 472.357L549.511 472.305Z" fill="white"></path><path d="M463.266 521.566L462.204 520.167L461.064 518.82C459.769 517.085 457.749 514.651 455.056 511.491C452.051 507.969 449.824 505.223 448.399 503.281L446.535 500.639C443.349 496.417 441.432 492.118 440.811 487.767C440.655 486.083 440.992 484.219 441.795 482.147C442.598 480.075 443.686 478.029 445.058 476.008C446.431 473.885 448.348 471.787 450.834 469.663C451.974 468.679 452.776 468.031 453.269 467.695C455.859 465.83 458.5 464.483 461.142 463.732C463.784 462.955 466.296 463.033 468.627 463.965C471.735 465.182 474.765 467.436 477.744 470.725L479.919 472.978C480.308 473.341 481.033 474.118 482.095 475.361C485.824 479.22 489.269 483.001 492.455 486.705C494.397 488.984 496.288 491.341 498.075 493.724C500.043 496.34 501.675 499.111 502.97 502.089C504.265 505.068 504.938 508.072 504.964 511.128L504.084 513.407C502.219 517.655 499.422 521.384 495.64 524.622C493.258 526.668 490.745 528.274 488.129 529.439C485.514 530.605 482.872 531.304 480.256 531.459C477.174 531.356 474.688 530.76 472.823 529.698C470.88 528.61 469.093 527.393 467.487 526.021C466.037 524.622 464.613 523.12 463.266 521.514V521.566ZM472.072 508.098L475.672 511.698C476.967 512.993 478.339 513.951 479.816 514.521C481.292 515.091 482.665 515.22 483.96 514.91C484.478 514.728 484.944 514.443 485.332 514.107C486.524 513.097 487.352 511.698 487.819 509.937C488 508.927 487.974 507.735 487.767 506.311C487.56 504.912 487.197 503.617 486.679 502.4C485.306 499.784 483.183 496.806 480.308 493.439C478.857 491.755 477.77 490.512 476.993 489.709L477.044 489.787C476.008 488.958 474.739 487.767 473.237 486.239L472.279 485.255C469.974 482.95 468.109 481.344 466.762 480.463L466.814 480.541C465.519 479.919 464.224 479.738 462.903 479.945C461.582 480.178 460.443 480.696 459.459 481.551C458.656 482.224 458.008 483.105 457.516 484.167C457.024 485.229 456.765 486.368 456.765 487.586C456.817 488.647 456.972 489.476 457.231 490.02C457.49 490.564 458.008 491.315 458.837 492.273C459.562 493.128 460.054 493.75 460.339 494.19L461.09 495.226L462.23 496.702L463.11 497.738L464.25 499.214L467.306 502.789L471.787 507.71L472.098 508.072L472.072 508.098Z" fill="white"></path><path d="M378.056 514.055C380.672 512.889 384.531 511.102 389.607 508.694L401.262 503.384C406.572 501.027 411.959 498.852 417.398 496.832C418.201 498.774 421.567 506.13 427.576 518.976C431.021 526.228 433.611 531.822 435.372 535.759C438.998 543.917 442.184 551.609 444.903 558.835L437.159 562.617C428.509 566.89 421.852 570.076 417.19 572.148C413.202 573.935 409.265 575.489 405.38 576.887C404.577 575.748 403.826 574.323 403.075 572.666C402.687 571.785 402.091 570.283 401.314 568.211C400.589 566.243 399.967 564.74 399.501 563.653C402.738 561.296 406.546 559.12 410.949 557.152L422.526 551.894C421.567 548.968 420.687 546.559 419.858 544.72C419.211 543.296 418.485 542.13 417.657 541.198L412.088 544.539C411.259 544.901 409.964 545.393 408.255 546.041L407.064 546.481C405.976 544.824 404.966 542.959 404.033 540.861L401.029 533.635C402.687 532.236 405.147 530.838 408.359 529.413L410.716 528.455C411.13 528.274 411.363 528.092 411.441 527.911L409.731 523.094C408.644 520.659 407.634 518.665 406.675 517.163C403.567 518.536 400.537 519.805 397.533 520.918C396.497 521.307 395.228 521.799 393.7 522.42C392.197 523.016 390.41 523.767 388.39 524.674L383.029 527.29C381.682 524.596 380.931 523.042 380.75 522.628C379.403 519.597 378.522 516.723 378.108 514.055H378.056Z" fill="white"></path><path d="M341.797 521.643C342.056 521.592 342.651 521.436 343.61 521.203C344.568 520.97 346.899 520.426 350.654 519.546C351.509 522.964 352.234 525.969 352.778 528.585L357.932 549.486L358.606 547.051C359.201 545.134 359.693 543.762 360.082 542.933C360.47 542.104 360.988 541.638 361.636 541.508C363.06 541.275 365.21 543.218 368.085 547.336C368.007 546.688 367.852 545.86 367.593 544.849C367.334 543.839 367.152 543.037 367.023 542.467L366.505 540.084C365.184 533.894 363.319 526.487 360.885 517.862C363.527 516.826 366.272 516.023 369.069 515.428L375.622 514.236L376.968 513.951C377.15 513.9 377.279 513.899 377.357 513.925C377.435 513.925 377.486 514.029 377.512 514.133L377.823 515.169C378.471 517.551 379.584 522.524 381.19 530.061C383.055 538.867 386.499 555.52 391.524 580.073C390.643 580.591 389.685 581.031 388.649 581.394C387.613 581.756 386.111 582.145 384.143 582.559L379.429 583.466C378.03 583.777 376.968 584.01 376.295 584.243C375.259 583.466 374.275 582.404 373.317 581.083C372.358 579.762 370.545 576.991 367.852 572.847C367.826 572.976 367.748 573.676 367.645 574.893C367.541 576.11 366.842 580.151 365.573 587.04C364.692 587.04 363.604 587.169 362.257 587.454C361.247 587.662 359.538 588.102 357.129 588.749L349.126 590.64L335.063 522.628C337.161 522.524 339.414 522.213 341.771 521.695L341.797 521.643Z" fill="white"></path><path d="M298.001 522.809C300.875 522.757 304.009 523.068 307.402 523.741C307.868 524.985 308.645 527.574 309.681 531.537C310.717 535.552 311.546 538.219 312.168 539.514L314.136 539.592L315.794 539.462C316.053 538.685 316.441 536.743 316.985 533.661C317.399 531.123 317.814 529.025 318.254 527.419C318.694 525.813 319.316 524.363 320.145 523.042C320.792 522.913 321.776 522.835 323.071 522.809C323.667 522.809 324.936 522.835 326.879 522.938C332.551 523.12 335.71 523.197 336.384 523.172C336.384 523.508 336.332 524.259 336.228 525.477C336.125 526.694 335.943 528.041 335.71 529.543L333.768 541.897C332.24 552.024 330.764 560.855 329.365 568.392C327.966 575.903 326.076 583.88 323.745 592.246C322.838 592.401 321.595 592.479 320.041 592.505H319.445C315.198 592.582 311.08 592.816 307.04 593.204C306.211 590.148 305.434 587.144 304.734 584.191C304.035 581.238 303.414 578.597 302.844 576.24C300.616 567.201 299.114 561.192 298.337 558.214L291.319 523.586C293.39 523.094 295.644 522.835 298.052 522.783L298.001 522.809ZM314.525 571.578L314.628 572.562L314.784 570.205C314.887 565.31 315.12 561.425 315.483 558.55L316.26 551.972L312.142 552.05C313.799 565.077 314.576 571.578 314.525 571.578Z" fill="white"></path><path d="M250.812 551.816L247.755 551.065L246.124 550.677L246.279 548.631C246.331 547.906 246.486 546.352 246.719 543.995C246.953 541.612 247.212 539.592 247.496 537.934C248.092 534.671 248.921 531.459 250.009 528.351C250.967 525.554 252.521 523.301 254.671 521.643C256.82 519.96 259.358 518.872 262.311 518.328C267.258 517.759 271.713 517.81 275.701 518.536C278.783 519.079 281.503 520.064 283.834 521.462C288.495 524.622 291.111 529.128 291.655 534.982C291.785 536.795 291.785 539.1 291.603 541.923C291.733 541.224 291.06 547.025 289.609 559.353C289.247 561.399 288.91 563.031 288.651 564.248C287.485 569.998 286.423 574.194 285.439 576.784C283.626 581.756 280.855 585.175 277.151 587.04C274.38 588.413 270.832 589.034 266.481 588.931C264.979 588.853 263.451 588.698 261.897 588.413C255.473 587.273 250.501 584.709 246.953 580.746C243.43 576.784 242.187 571.811 243.249 565.828L244 562.772L244.233 561.425C244.699 561.425 245.243 561.503 245.891 561.632C246.538 561.736 247.108 561.84 247.626 561.943L252.262 562.772C254.696 563.212 257.027 563.756 259.229 564.404C259.825 569.946 261.094 572.873 263.036 573.235C263.347 573.287 263.71 573.391 264.072 573.52C264.435 573.65 264.797 573.753 265.108 573.805C266.144 573.987 267.102 573.753 268.009 573.132C268.087 573.08 268.449 572.355 269.097 570.93C271.039 567.097 272.697 561.244 274.121 553.345C274.82 549.434 275.261 546.17 275.468 543.555C275.779 539.177 275.416 536.277 274.328 534.904C273.759 534.412 273.292 534.049 272.93 533.868C272.23 533.687 271.376 533.583 270.34 533.557C269.304 533.557 268.397 533.635 267.569 533.816C266.403 534.075 265.523 534.982 264.901 536.51C264.564 537.235 264.202 538.219 263.787 539.385C263.373 540.576 263.192 541.301 263.192 541.56L265.497 541.975C267.905 542.26 269.692 542.778 270.884 543.529C270.78 544.901 270.547 546.585 270.184 548.579L270.003 549.641C269.951 549.9 269.874 550.34 269.718 550.936C269.589 551.532 269.459 552.723 269.33 554.484C268.812 554.381 267.698 554.329 265.989 554.277C263.347 554.277 261.379 554.147 260.084 553.914C257.312 553.422 254.23 552.749 250.812 551.868V551.816Z" fill="white"></path><path d="M206.29 506.518C205.85 503.384 205.669 500.302 205.772 497.324L207.223 497.919C207.948 498.204 209.605 498.826 212.195 499.732C214.785 500.639 216.831 501.416 218.333 502.037C219.188 502.374 220.431 502.97 222.063 503.773L223.565 504.498C223.824 515.039 224.601 523.172 225.844 528.895L226.803 526.539C228.331 522.783 230.092 517.888 232.112 511.802V511.905C232.19 511.465 232.449 510.714 232.863 509.704C235.298 509.574 238.898 510.481 243.586 512.397L245.709 513.382L250.501 515.35C251.174 515.609 249.258 521.229 244.777 532.133C240.737 542.026 236.748 551.972 232.863 561.995C228.978 571.992 226.803 578.079 226.362 580.202L223.772 579.555C219.965 578.545 216.805 577.69 214.371 576.965C211.91 576.24 209.45 575.385 206.989 574.375C204.322 573.287 202.12 572.251 200.359 571.241C197.044 569.376 194.247 566.838 192.019 563.601C189.792 560.363 188.342 556.919 187.694 553.267C187.047 549.615 187.332 546.248 188.601 543.166C189.818 540.213 192.097 537.365 195.464 534.671C197.562 532.988 199.893 531.848 202.483 531.2C205.073 530.579 207.818 530.657 210.719 531.511C210.279 527.937 209.605 524.156 208.725 520.115C208.595 519.209 208.466 518.613 208.31 518.251C207.404 513.589 206.73 509.678 206.29 506.544V506.518ZM209.165 547.647C208.284 548.424 207.585 549.46 207.041 550.781C206.031 553.267 205.979 555.106 206.886 556.323C207.482 557.126 208.155 557.747 208.906 558.214C209.683 558.654 210.564 559.094 211.6 559.535L215.744 560.493C216.365 558.628 216.935 557.074 217.453 555.805C218.8 552.542 219.499 550.522 219.628 549.719C218.644 549.175 217.401 548.605 215.899 547.983C214.5 547.414 213.179 546.973 211.884 546.662C210.952 546.559 210.02 546.896 209.139 547.647H209.165Z" fill="white"></path><path d="M172.439 473.418C174.796 475.05 178.345 477.381 183.032 480.437L193.651 487.586C198.443 490.875 203.13 494.319 207.689 497.919C206.446 499.603 201.939 506.363 194.169 518.173C189.792 524.907 186.399 530.035 183.965 533.583C178.914 540.965 174.019 547.698 169.306 553.785L162.028 549.149C153.844 544.021 147.654 540.006 143.458 537.131C139.858 534.671 136.439 532.133 133.253 529.543C133.823 528.274 134.6 526.875 135.636 525.373C136.18 524.57 137.138 523.275 138.511 521.54C139.806 519.882 140.764 518.587 141.438 517.603C145.141 519.105 149 521.229 152.963 523.974L163.504 531.071C165.498 528.714 167.078 526.72 168.218 525.062C169.098 523.767 169.72 522.524 170.057 521.333L164.281 518.328C163.53 517.81 162.442 516.982 160.992 515.842L160.008 515.039C160.836 513.252 161.898 511.387 163.193 509.522L167.777 503.177C169.824 503.876 172.31 505.223 175.211 507.192L177.257 508.72C177.645 508.979 177.904 509.082 178.086 509.056L181.271 505.068C182.773 502.866 183.939 500.95 184.716 499.37C181.919 497.453 179.251 495.511 176.739 493.542C175.858 492.869 174.77 492.04 173.45 491.056C172.155 490.072 170.575 488.958 168.736 487.715L163.711 484.503C165.291 481.965 166.224 480.489 166.483 480.126C168.373 477.381 170.342 475.128 172.414 473.393L172.439 473.418Z" fill="white"></path><path d="M127.426 492.869C130.327 490.331 133.227 487.689 136.102 484.944C139.029 482.147 141.386 479.712 143.225 477.692C144.364 476.319 145.219 474.765 145.841 473.004C146.462 471.243 146.566 469.741 146.177 468.472C144.701 466.736 142.733 466.218 140.324 466.918L140.402 466.995C139.107 467.436 137.553 468.498 135.766 470.233C134.367 471.58 133.15 472.564 132.191 473.134C131.259 471.787 130.249 470.57 129.213 469.482L126.027 466.296C124.396 464.613 123.049 462.826 121.987 460.961C123.101 458.811 124.525 456.869 126.312 455.159C128.98 452.569 132.166 450.808 135.869 449.85C139.547 448.892 143.276 448.84 147.058 449.746C150.839 450.653 154.128 452.492 156.977 455.263C157.936 455.962 158.946 456.895 160.034 458.034C163.556 461.712 165.835 465.7 166.845 470.077C167.881 474.429 166.897 478.365 163.918 481.862C159.438 486.627 154.517 491.6 149.104 496.806C144.649 501.105 140.946 504.602 138.045 507.321L134.807 510.299C134.16 511.025 133.279 511.75 132.217 512.475C131.13 513.2 130.12 513.744 129.135 514.133C127.659 514.754 126.027 515.246 124.292 515.583C122.557 515.946 120.977 516.075 119.552 516.023C117.817 515.816 115.719 515.013 113.311 513.615C110.98 512.32 108.882 510.688 106.965 508.72C103.883 505.534 101.734 501.804 100.516 497.557C99.2731 493.309 99.1436 489.114 100.076 484.944C101.008 480.774 102.977 477.252 105.981 474.377C107.768 472.667 109.866 471.269 112.301 470.207C114.632 471.787 116.419 473.211 117.688 474.532C119.397 476.319 121.469 479.091 123.904 482.82L121.417 485.617C119.345 487.793 117.973 489.632 117.299 491.134C116.626 492.636 117.014 494.112 118.465 495.511C118.516 495.563 118.568 495.614 118.672 495.64C118.775 495.692 118.879 495.77 119.009 495.925L118.931 495.848C120.563 497.065 121.832 497.402 122.712 496.832C122.997 496.754 124.577 495.433 127.504 492.921L127.426 492.869Z" fill="white"></path><path d="M118.568 404.344C120.096 406.779 122.401 410.327 125.509 415.015L132.425 425.815C135.507 430.736 138.433 435.735 141.205 440.863C139.417 441.925 132.58 446.327 120.744 454.097C114.062 458.526 108.882 461.893 105.256 464.198C97.6932 468.964 90.5449 473.185 83.7851 476.915L78.9419 469.793C73.4771 461.841 69.385 455.703 66.6655 451.404C64.3346 447.7 62.2108 444.022 60.2942 440.371C61.3043 439.412 62.5993 438.454 64.1533 437.496C64.9821 436.978 66.3806 436.175 68.3231 435.113C70.162 434.103 71.5605 433.3 72.5706 432.678C75.3678 435.527 78.0613 439.024 80.6254 443.09L87.4888 453.812C90.26 452.466 92.4874 451.248 94.1968 450.161C95.5177 449.332 96.5795 448.425 97.3565 447.467L93.2644 442.417C92.7723 441.64 92.0989 440.448 91.2442 438.843L90.6485 437.703C92.1248 436.382 93.8342 435.113 95.7767 433.896L102.511 429.881C104.116 431.332 105.852 433.559 107.742 436.537L109.011 438.739C109.244 439.127 109.478 439.335 109.633 439.386L114.139 437.004C116.393 435.579 118.206 434.284 119.552 433.119C117.739 430.244 116.082 427.395 114.528 424.598C113.984 423.614 113.311 422.422 112.508 421.024C111.705 419.599 110.695 417.967 109.503 416.077L106.162 411.13C108.623 409.421 110.073 408.436 110.436 408.203C113.259 406.442 115.952 405.147 118.542 404.37L118.568 404.344Z" fill="white"></path><path d="M66.536 375.052C72.4293 375.052 77.2067 370.274 77.2067 364.381C77.2067 358.488 72.4293 353.711 66.536 353.711C60.6428 353.711 55.8654 358.488 55.8654 364.381C55.8654 370.274 60.6428 375.052 66.536 375.052Z" fill="white"></path></svg>