<svg xmlns="http://www.w3.org/2000/svg" width="256" height="256" viewBox="0 0 256 256" fill="none"><g clip-path="url(#clip0_174_2972)"><path d="M127.88 255.76C198.506 255.76 255.76 198.506 255.76 127.88C255.76 57.2538 198.506 0 127.88 0C57.2538 0 0 57.2538 0 127.88C0 198.506 57.2538 255.76 127.88 255.76Z" fill="white"></path><path d="M127.851 210.821C173.624 210.821 210.731 173.714 210.731 127.941C210.731 82.1672 173.624 45.0605 127.851 45.0605C82.0773 45.0605 44.9707 82.1672 44.9707 127.941C44.9707 173.714 82.0773 210.821 127.851 210.821Z" fill="white"></path><path fill-rule="evenodd" clip-rule="evenodd" d="M108.2 190.071H102.22V152.721H59.4902V146.741H108.2V190.071ZM196.21 146.741V152.721H153.48V190.071H147.5V146.741H196.21ZM147.5 65.8105H153.48V103.161H196.21V109.141H147.5V65.8105ZM102.22 65.8105H108.2V109.141H59.4902V103.161H102.22V65.8105Z" fill="#009640"></path><path fill-rule="evenodd" clip-rule="evenodd" d="M97.9398 127.941C96.7798 173.791 201.66 179.251 205.61 136.491C186.61 183.491 120.32 151.101 97.9398 127.941ZM157.76 127.941C158.92 82.0914 54.0398 76.6314 50.0898 119.391C69.0898 72.3914 135.38 104.781 157.76 127.941Z" fill="#FFED00"></path><path fill-rule="evenodd" clip-rule="evenodd" d="M127.85 118.84C132.87 118.84 136.95 122.91 136.95 127.94C136.95 132.97 132.88 137.04 127.85 137.04C122.82 137.04 118.75 132.97 118.75 127.94C118.75 122.91 122.82 118.84 127.85 118.84Z" fill="#1D1D1B"></path><mask id="mask0_174_2972" style="mask-type:luminance" maskUnits="userSpaceOnUse" x="118" y="118" width="19" height="20"><path d="M127.85 118.84C132.87 118.84 136.95 122.91 136.95 127.94C136.95 132.97 132.88 137.04 127.85 137.04C122.82 137.04 118.75 132.97 118.75 127.94C118.75 122.91 122.82 118.84 127.85 118.84Z" fill="white"></path></mask><g mask="url(#mask0_174_2972)"><path d="M136.95 118.84H118.75V137.04H136.95V118.84Z" fill="#1D1D1B"></path></g><path d="M12.9004 125.809L13.9304 112.189L20.2404 112.669L19.8004 118.469L20.9104 118.549L21.2704 113.829L26.6804 114.239L26.3204 118.959L33.5704 119.509L32.9804 127.329L12.9004 125.809Z" fill="#16A638"></path><path d="M14.4202 109.141L16.1302 101.491L29.7802 104.541L30.9502 99.3008L36.9502 100.641L34.0702 113.531L14.4102 109.141H14.4202Z" fill="#16A638"></path><path d="M18.1211 93.1605L21.0311 85.8805L33.2111 90.7505C33.6411 90.9205 33.9311 90.8105 34.0911 90.4205C34.2311 90.0705 34.0911 89.8005 33.6611 89.6305L21.4811 84.7605L24.3911 77.4805L35.9011 82.0805C37.2311 82.6105 38.3011 83.2105 39.1311 83.8705C39.9611 84.5405 40.5511 85.3005 40.9111 86.1605C41.2711 87.0205 41.4011 87.9905 41.2911 89.0705C41.1811 90.1505 40.8511 91.3705 40.3111 92.7405C39.1911 95.5405 37.7811 97.3305 36.0811 98.1305C34.3811 98.9205 32.2211 98.7905 29.6111 97.7505L18.1311 93.1605H18.1211Z" fill="#16A638"></path><path d="M26.0098 74.8102L29.8798 67.9902L47.3998 77.9202L43.5298 84.7402L26.0098 74.8102Z" fill="#16A638"></path><path d="M47.1599 66.6903L46.5599 67.4803L52.3699 70.8503L47.4799 77.3203L31.4199 65.1703L36.9099 57.9103C37.7499 56.8003 38.5599 55.9603 39.3499 55.3903C40.1399 54.8103 40.9299 54.4703 41.7199 54.3503C42.5099 54.2303 43.3099 54.3303 44.1199 54.6303C44.9199 54.9403 45.7499 55.4103 46.5999 56.0503C47.6099 56.8103 48.3899 57.6203 48.9399 58.4603C49.4899 59.3003 49.7499 60.2203 49.7299 61.2103L51.5499 62.0603L52.5999 60.6703L57.3599 64.2703L53.0499 69.9703L47.1699 66.6903H47.1599ZM42.9699 63.7803C43.1799 63.5103 43.2399 63.2803 43.1699 63.1003C43.0899 62.9203 42.8999 62.7003 42.5799 62.4603C42.2899 62.2403 42.0599 62.1203 41.8799 62.0803C41.6999 62.0503 41.5099 62.1703 41.2999 62.4403L40.8099 63.0903L42.5199 64.3803L42.9699 63.7803Z" fill="#16A638"></path><path d="M43.4512 50.0605L48.9612 44.4805L63.2912 58.6405L57.7812 64.2205L43.4512 50.0605Z" fill="#16A638"></path><path d="M63.721 57.9309L59.811 52.9109L64.641 49.1509C65.081 48.8009 65.351 48.5509 65.431 48.4009C65.511 48.2509 65.481 48.0709 65.311 47.8609C65.171 47.6909 65.041 47.6109 64.921 47.6309C64.801 47.6509 64.581 47.7809 64.281 48.0109L62.811 49.1609C61.461 50.2109 60.131 50.6109 58.821 50.3709C57.511 50.1309 56.261 49.2409 55.061 47.7009C53.641 45.8809 53.081 44.1609 53.371 42.5409C53.661 40.9209 54.681 39.4409 56.411 38.0909L63.431 32.6309L67.281 37.5809L62.431 41.3609C62.221 41.5209 62.121 41.6709 62.121 41.8209C62.121 41.9609 62.161 42.1009 62.261 42.2209C62.381 42.3809 62.521 42.4509 62.671 42.4309C62.821 42.4109 63.031 42.3009 63.301 42.0909L64.201 41.3909C64.961 40.8009 65.671 40.3809 66.341 40.1409C67.011 39.9009 67.661 39.8409 68.291 39.9609C68.921 40.0809 69.551 40.3909 70.171 40.8809C70.801 41.3709 71.451 42.0609 72.131 42.9309C72.911 43.9309 73.461 44.8409 73.781 45.6609C74.101 46.4809 74.191 47.2809 74.041 48.0609C73.891 48.8409 73.521 49.6009 72.911 50.3609C72.301 51.1209 71.451 51.9209 70.351 52.7709L63.711 57.9409L63.721 57.9309Z" fill="#16A638"></path><path d="M74.4805 26.1212L85.8005 20.9312L88.4405 26.6912L83.1505 29.1212L83.6105 30.1312L87.9105 28.1612L90.1705 33.0912L85.8705 35.0612L86.2605 35.9112L91.5505 33.4912L94.1905 39.2512L82.8705 44.4412L74.4805 26.1312V26.1212ZM82.4605 15.9612L80.5505 21.7112L78.3805 22.7012L77.0505 18.4312L82.4505 15.9512L82.4605 15.9612Z" fill="#16A638"></path><path d="M102.061 22.2307L98.4309 22.9807L97.2109 17.0407L112.151 13.9707L113.371 19.9107L109.741 20.6607L112.571 34.4507L104.891 36.0307L102.061 22.2407V22.2307Z" fill="#16A638"></path><path d="M115.27 13.6802L127.7 12.9902L128.05 19.3102L122.24 19.6302L122.3 20.7402L127.03 20.4802L127.33 25.9002L122.6 26.1602L122.65 27.0902L128.46 26.7702L128.81 33.0902L116.38 33.7802L115.27 13.6702V13.6802Z" fill="#16A638"></path><path d="M129.381 33.0109L129.991 26.6809L136.081 27.2609C136.641 27.3109 137.001 27.3109 137.171 27.2609C137.341 27.2109 137.431 27.0509 137.461 26.7909C137.481 26.5709 137.441 26.4209 137.341 26.3509C137.241 26.2809 136.991 26.2309 136.611 26.1909L134.751 26.0109C133.051 25.8509 131.811 25.2309 131.021 24.1509C130.231 23.0809 129.941 21.5709 130.121 19.6309C130.341 17.3309 131.111 15.6909 132.441 14.7209C133.761 13.7509 135.521 13.3609 137.701 13.5709L146.551 14.4209L145.951 20.6609L139.831 20.0709C139.571 20.0509 139.391 20.0809 139.291 20.1809C139.191 20.2809 139.131 20.4109 139.121 20.5709C139.101 20.7709 139.151 20.9209 139.271 21.0109C139.391 21.1009 139.621 21.1709 139.961 21.2009L141.101 21.3109C142.061 21.4009 142.861 21.5909 143.511 21.8709C144.161 22.1509 144.671 22.5609 145.041 23.0809C145.411 23.6009 145.661 24.2609 145.781 25.0409C145.901 25.8309 145.901 26.7709 145.801 27.8709C145.681 29.1309 145.451 30.1709 145.121 30.9909C144.791 31.8109 144.301 32.4509 143.661 32.9109C143.021 33.3709 142.221 33.6709 141.261 33.8009C140.301 33.9309 139.131 33.9309 137.751 33.8009L129.381 33.0009V33.0109Z" fill="#16A638"></path><path d="M152.161 21.8805L148.581 20.9205L150.141 15.0605L164.881 18.9905L163.321 24.8505L159.741 23.8905L156.111 37.4905L148.541 35.4705L152.171 21.8705L152.161 21.8805Z" fill="#16A638"></path><path d="M168.861 20.5898L178.341 24.7198L173.791 44.6998L166.211 41.3998L168.021 37.0898L166.911 36.6098L164.991 40.8698L157.361 37.5498L168.851 20.5898H168.861ZM169.111 31.8098L170.051 32.2198L171.671 28.3498L170.841 27.9898L169.111 31.8098Z" fill="#16A638"></path><path d="M184.941 27.9707L192.011 32.7507C193.371 33.6707 194.431 34.6107 195.181 35.5507C195.931 36.4907 196.381 37.4907 196.531 38.5607C196.681 39.6207 196.541 40.7707 196.101 41.9907C195.661 43.2107 194.941 44.5607 193.941 46.0407C192.891 47.5907 191.861 48.8007 190.851 49.6907C189.841 50.5707 188.811 51.1507 187.751 51.4207C186.691 51.6907 185.591 51.6507 184.441 51.3107C183.291 50.9707 182.051 50.3507 180.711 49.4507L173.641 44.6707L184.921 27.9907L184.941 27.9707ZM183.421 44.2707C183.671 44.4407 183.921 44.5207 184.161 44.5207C184.401 44.5207 184.671 44.4207 184.951 44.2207C185.231 44.0207 185.541 43.7207 185.881 43.3007C186.221 42.8907 186.611 42.3607 187.051 41.7107C187.861 40.5107 188.331 39.6307 188.471 39.0707C188.611 38.5107 188.441 38.0707 187.981 37.7507L187.811 37.6307L183.351 44.2207L183.431 44.2707H183.421Z" fill="#16A638"></path><path d="M195.091 47.1504C196.411 45.8204 197.671 44.8404 198.871 44.1904C200.081 43.5504 201.251 43.2004 202.401 43.1604C203.541 43.1204 204.661 43.3704 205.741 43.9004C206.821 44.4404 207.881 45.2204 208.931 46.2504C209.971 47.2804 210.761 48.3404 211.311 49.4204C211.851 50.5004 212.111 51.6104 212.081 52.7504C212.051 53.8904 211.711 55.0704 211.081 56.2804C210.451 57.4904 209.471 58.7604 208.151 60.0904C206.831 61.4204 205.571 62.4004 204.371 63.0504C203.161 63.6904 201.991 64.0404 200.841 64.0804C199.701 64.1204 198.581 63.8704 197.501 63.3404C196.421 62.8004 195.361 62.0204 194.311 60.9904C193.271 59.9604 192.481 58.9004 191.931 57.8204C191.391 56.7404 191.131 55.6304 191.161 54.4904C191.191 53.3504 191.521 52.1704 192.161 50.9604C192.791 49.7504 193.771 48.4804 195.091 47.1504ZM200.861 52.8804C200.321 53.4204 199.891 53.8704 199.581 54.2404C199.261 54.6004 199.031 54.9104 198.891 55.1504C198.751 55.3904 198.701 55.5904 198.731 55.7604C198.771 55.9204 198.861 56.0804 199.021 56.2404C199.181 56.4004 199.341 56.4904 199.501 56.5304C199.661 56.5604 199.871 56.5104 200.111 56.3704C200.351 56.2304 200.651 56.0004 201.011 55.6704C201.371 55.3504 201.821 54.9204 202.361 54.3804C202.901 53.8404 203.331 53.3804 203.641 53.0204C203.961 52.6604 204.191 52.3504 204.331 52.1104C204.471 51.8704 204.521 51.6704 204.491 51.5004C204.451 51.3404 204.361 51.1804 204.201 51.0204C204.041 50.8604 203.881 50.7704 203.721 50.7304C203.561 50.7004 203.351 50.7504 203.111 50.8904C202.871 51.0304 202.571 51.2604 202.211 51.5904C201.851 51.9204 201.401 52.3404 200.861 52.8904V52.8804Z" fill="#16A638"></path><path d="M222.66 62.9395L229.15 73.5695L223.75 76.8695L220.72 71.8995L219.77 72.4795L222.24 76.5195L217.61 79.3495L215.14 75.3095L214.34 75.7995L217.37 80.7695L211.97 84.0695L205.48 73.4395L222.67 62.9395H222.66Z" fill="#16A638"></path><path d="M235.61 87.9902L238.76 97.8402L220.73 107.6L218.21 99.7302L222.64 98.2502L222.27 97.1002L217.8 98.4702L215.26 90.5402L235.59 87.9902H235.61ZM227.33 95.5802L227.64 96.5602L231.61 95.2302L231.33 94.3702L227.32 95.5902L227.33 95.5802Z" fill="#16A638"></path><path d="M240.601 104.891L241.821 114.191C242.001 115.561 242.011 116.721 241.841 117.671C241.671 118.611 241.331 119.391 240.821 119.991C240.311 120.591 239.651 121.061 238.831 121.381C238.011 121.701 237.041 121.931 235.931 122.081C234.791 122.231 233.771 122.251 232.851 122.151C231.931 122.051 231.141 121.771 230.471 121.311C229.801 120.851 229.251 120.191 228.831 119.341C228.401 118.481 228.101 117.381 227.921 116.021L227.721 114.501L221.651 115.301L220.631 107.531L240.601 104.901V104.891ZM233.291 114.301C233.341 114.641 233.451 114.851 233.651 114.921C233.841 115.001 234.161 115.011 234.601 114.951C234.961 114.901 235.211 114.831 235.361 114.731C235.511 114.631 235.561 114.411 235.521 114.071L235.431 113.411L233.221 113.701L233.301 114.301H233.291Z" fill="#16A638"></path><path d="M229.07 132.161L229.11 131.171L222.42 131.721L222.73 123.621L242.86 124.401L242.51 133.501C242.46 134.891 242.27 136.041 241.95 136.961C241.63 137.881 241.18 138.621 240.6 139.171C240.01 139.721 239.31 140.101 238.47 140.311C237.64 140.521 236.69 140.601 235.62 140.561C234.35 140.511 233.26 140.301 232.33 139.921C231.4 139.541 230.66 138.941 230.11 138.111L228.13 138.461L228.06 140.211L222.09 139.981L222.37 132.841L229.06 132.161H229.07ZM234.17 132.151C234.16 132.491 234.23 132.711 234.4 132.821C234.57 132.931 234.85 132.991 235.25 133.001C235.61 133.011 235.87 132.981 236.04 132.911C236.2 132.841 236.29 132.631 236.31 132.291L236.34 131.481L234.2 131.401L234.17 132.151Z" fill="#16A638"></path><path d="M232.03 141.97C233.85 142.38 235.36 142.92 236.55 143.6C237.74 144.28 238.65 145.09 239.29 146.04C239.93 146.99 240.31 148.06 240.44 149.26C240.56 150.46 240.46 151.78 240.14 153.21C239.82 154.64 239.35 155.88 238.72 156.91C238.1 157.94 237.29 158.75 236.31 159.33C235.33 159.91 234.15 160.26 232.79 160.36C231.43 160.47 229.83 160.31 228.01 159.91C226.19 159.5 224.68 158.96 223.49 158.28C222.3 157.6 221.39 156.79 220.75 155.84C220.11 154.89 219.72 153.82 219.6 152.62C219.48 151.42 219.58 150.1 219.9 148.67C220.22 147.24 220.69 146.01 221.32 144.97C221.94 143.93 222.75 143.13 223.73 142.54C224.71 141.95 225.89 141.61 227.25 141.51C228.61 141.41 230.21 141.56 232.03 141.96V141.97ZM230.25 149.91C229.5 149.74 228.89 149.62 228.42 149.54C227.94 149.46 227.56 149.43 227.28 149.44C227 149.44 226.8 149.51 226.68 149.63C226.56 149.75 226.48 149.91 226.43 150.13C226.38 150.35 226.39 150.53 226.44 150.69C226.5 150.85 226.65 150.99 226.9 151.12C227.15 151.25 227.51 151.38 227.97 151.51C228.43 151.65 229.04 151.8 229.78 151.96C230.52 152.13 231.14 152.25 231.61 152.32C232.09 152.4 232.47 152.43 232.75 152.42C233.03 152.42 233.23 152.35 233.35 152.23C233.47 152.11 233.55 151.95 233.6 151.73C233.65 151.51 233.64 151.33 233.59 151.17C233.53 151.01 233.38 150.87 233.13 150.74C232.88 150.61 232.52 150.48 232.06 150.35C231.6 150.21 230.99 150.06 230.25 149.9V149.91Z" fill="#16A638"></path><path d="M220.411 167.531L233.351 173.231L230.141 180.841L212.951 169.781L217.211 159.701L237.111 164.341L233.871 172.011L220.761 166.701L220.411 167.531Z" fill="#16A638"></path><path d="M227.931 184.421L222.441 193.181L203.361 185.711L207.751 178.711L211.741 181.141L212.381 180.121L208.451 177.591L212.871 170.541L227.941 184.431L227.931 184.421ZM216.791 183.001L216.251 183.871L219.831 186.041L220.311 185.271L216.791 182.991V183.001Z" fill="#16A638"></path><path d="M218.25 199.2L212.48 205.48C211.36 206.69 210.29 207.6 209.25 208.2C208.21 208.8 207.15 209.1 206.08 209.09C205.01 209.09 203.9 208.78 202.75 208.16C201.61 207.55 200.38 206.64 199.06 205.43C197.68 204.16 196.63 202.97 195.91 201.84C195.19 200.71 194.77 199.61 194.66 198.52C194.55 197.44 194.75 196.35 195.26 195.26C195.77 194.17 196.57 193.03 197.66 191.85L203.43 185.57L218.26 199.19L218.25 199.2ZM202.35 195.29C202.15 195.51 202.03 195.74 202 195.99C201.97 196.23 202.03 196.51 202.18 196.81C202.34 197.12 202.59 197.47 202.95 197.87C203.31 198.27 203.78 198.73 204.35 199.26C205.42 200.24 206.22 200.84 206.75 201.06C207.28 201.28 207.74 201.18 208.12 200.77L208.26 200.61L202.4 195.23L202.34 195.3L202.35 195.29Z" fill="#16A638"></path><path d="M197.771 206.431C198.891 207.931 199.681 209.321 200.131 210.611C200.591 211.901 200.751 213.111 200.621 214.251C200.491 215.391 200.081 216.451 199.391 217.441C198.701 218.431 197.771 219.361 196.591 220.241C195.411 221.121 194.251 221.751 193.111 222.121C191.961 222.501 190.831 222.591 189.701 222.391C188.571 222.191 187.461 221.691 186.351 220.881C185.251 220.071 184.141 218.921 183.021 217.421C181.901 215.921 181.111 214.531 180.661 213.241C180.211 211.951 180.041 210.741 180.171 209.601C180.301 208.461 180.711 207.401 181.401 206.411C182.091 205.421 183.021 204.491 184.201 203.611C185.381 202.731 186.541 202.111 187.681 201.731C188.821 201.351 189.961 201.261 191.091 201.461C192.221 201.661 193.331 202.161 194.441 202.971C195.541 203.781 196.651 204.931 197.771 206.431ZM191.241 211.291C190.781 210.681 190.401 210.191 190.091 209.821C189.781 209.451 189.511 209.181 189.291 209.001C189.071 208.831 188.881 208.741 188.711 208.751C188.541 208.761 188.371 208.831 188.191 208.971C188.011 209.101 187.891 209.251 187.841 209.401C187.781 209.561 187.811 209.771 187.911 210.021C188.021 210.281 188.201 210.611 188.471 211.021C188.731 211.421 189.091 211.931 189.551 212.551C190.011 213.161 190.391 213.651 190.701 214.021C191.011 214.391 191.281 214.661 191.501 214.841C191.721 215.021 191.911 215.101 192.081 215.091C192.251 215.081 192.421 215.011 192.601 214.871C192.781 214.741 192.901 214.591 192.951 214.441C193.001 214.291 192.981 214.071 192.881 213.821C192.781 213.571 192.591 213.231 192.331 212.821C192.071 212.421 191.711 211.911 191.251 211.301L191.241 211.291Z" fill="#16A638"></path><path d="M177.851 231.6L169.141 235.08C167.851 235.59 166.731 235.89 165.771 235.95C164.811 236.02 163.981 235.88 163.271 235.54C162.561 235.2 161.951 234.67 161.431 233.95C160.921 233.24 160.451 232.35 160.041 231.31C159.611 230.25 159.341 229.26 159.211 228.35C159.081 227.44 159.161 226.6 159.441 225.84C159.721 225.08 160.221 224.39 160.951 223.76C161.681 223.13 162.671 222.57 163.941 222.06L165.371 221.49L163.101 215.81L170.381 212.9L177.851 231.61V231.6ZM166.931 226.83C166.611 226.96 166.441 227.12 166.411 227.33C166.381 227.54 166.451 227.84 166.621 228.25C166.751 228.59 166.891 228.81 167.021 228.93C167.161 229.05 167.381 229.05 167.701 228.92L168.321 228.67L167.491 226.6L166.931 226.82V226.83Z" fill="#16A638"></path><path d="M159.73 238.4L147.6 241.2L146.18 235.03L151.85 233.72L151.6 232.63L146.99 233.69L145.77 228.4L150.38 227.34L150.17 226.43L144.5 227.74L143.08 221.57L155.21 218.77L159.74 238.4H159.73Z" fill="#16A638"></path><path d="M144.45 241.711L136.64 242.401L135.41 228.461L130.06 228.931L129.52 222.801L142.68 221.641L144.45 241.701V241.711Z" fill="#16A638"></path><path d="M129.431 233.039C129.301 234.899 128.981 236.469 128.491 237.749C128.001 239.019 127.331 240.049 126.491 240.829C125.651 241.609 124.641 242.139 123.471 242.439C122.301 242.739 120.981 242.839 119.521 242.729C118.061 242.629 116.771 242.339 115.651 241.879C114.531 241.419 113.621 240.74 112.891 239.85C112.161 238.96 111.651 237.849 111.351 236.519C111.041 235.189 110.961 233.589 111.091 231.729C111.221 229.869 111.541 228.299 112.031 227.019C112.531 225.749 113.191 224.719 114.031 223.939C114.871 223.159 115.881 222.629 117.051 222.329C118.221 222.029 119.541 221.929 121.001 222.039C122.461 222.139 123.751 222.429 124.871 222.889C125.991 223.349 126.901 224.029 127.631 224.919C128.361 225.809 128.871 226.919 129.171 228.249C129.481 229.579 129.561 231.179 129.431 233.039ZM121.321 232.449C121.371 231.689 121.401 231.069 121.411 230.579C121.421 230.089 121.391 229.719 121.341 229.439C121.291 229.159 121.201 228.979 121.061 228.879C120.931 228.779 120.751 228.72 120.531 228.71C120.311 228.69 120.131 228.729 119.981 228.809C119.831 228.889 119.721 229.059 119.621 229.329C119.531 229.599 119.451 229.969 119.391 230.449C119.331 230.929 119.271 231.549 119.211 232.309C119.151 233.069 119.131 233.689 119.121 234.179C119.121 234.659 119.141 235.04 119.191 235.32C119.241 235.6 119.331 235.779 119.471 235.879C119.601 235.979 119.781 236.039 120.001 236.049C120.221 236.069 120.401 236.029 120.551 235.949C120.701 235.869 120.821 235.699 120.911 235.429C121.001 235.159 121.081 234.789 121.141 234.309C121.201 233.829 121.261 233.209 121.321 232.449Z" fill="#16A638"></path><path d="M104.59 240.48L94.5703 237.94L95.8403 217.48L103.85 219.51L102.76 224.05L103.93 224.35L105.14 219.83L113.21 221.88L104.61 240.48H104.59ZM102.54 229.44L101.55 229.19L100.58 233.27L101.46 233.49L102.55 229.44H102.54Z" fill="#16A638"></path><path d="M76.3208 230.66L67.3008 225.6L73.8308 206.17L81.0408 210.21L78.8108 214.32L79.8608 214.91L82.2008 210.86L89.4608 214.93L76.3308 230.66H76.3208ZM77.2008 219.47L76.3108 218.97L74.3108 222.66L75.1008 223.1L77.2008 219.47Z" fill="#16A638"></path><path d="M57.6803 206.94L52.9403 214.92L47.5703 210.44L60.4803 194.98L67.4703 200.82L62.9803 208.78L63.7903 209.46L68.4203 201.62L73.9503 206.24L61.0403 221.7L53.9103 215.75L58.4903 207.63L57.6803 206.95V206.94Z" fill="#16A638"></path><path d="M49.9404 191.65L38.9104 200.5L33.6504 194.13L51.4004 183.99L58.3704 192.43L45.0504 207.93L39.7504 201.52L50.5204 192.35L49.9404 191.65Z" fill="#16A638"></path><path d="M32.2609 191.62L28.1309 184.95L45.2609 174.35L49.3909 181.02L32.2609 191.62Z" fill="#16A638"></path><path d="M44.6695 173.771L38.8695 176.381L36.3495 170.801C36.1195 170.291 35.9395 169.971 35.8095 169.851C35.6795 169.731 35.4995 169.731 35.2595 169.831C35.0595 169.921 34.9495 170.031 34.9395 170.151C34.9395 170.281 34.9995 170.511 35.1595 170.861L35.9295 172.571C36.6295 174.131 36.7095 175.511 36.1695 176.731C35.6295 177.951 34.4695 178.951 32.6895 179.751C30.5795 180.701 28.7795 180.841 27.2795 180.171C25.7795 179.501 24.5795 178.171 23.6695 176.171L20.0195 168.061L25.7395 165.481L28.2695 171.091C28.3795 171.331 28.4995 171.471 28.6395 171.501C28.7795 171.541 28.9195 171.521 29.0695 171.461C29.2495 171.381 29.3495 171.261 29.3695 171.111C29.3895 170.961 29.3295 170.731 29.1895 170.411L28.7195 169.371C28.3195 168.491 28.0895 167.701 28.0095 166.991C27.9295 166.281 28.0295 165.641 28.2995 165.061C28.5695 164.481 29.0095 163.941 29.6395 163.451C30.2695 162.961 31.0795 162.481 32.0895 162.031C33.2395 161.511 34.2595 161.191 35.1295 161.071C35.9995 160.951 36.7995 161.061 37.5195 161.381C38.2395 161.711 38.8995 162.251 39.4795 163.021C40.0695 163.791 40.6495 164.811 41.2195 166.071L44.6795 173.741L44.6695 173.771Z" fill="#16A638"></path><path d="M17.9606 161.591L15.3906 151.571L33.9506 142.881L36.0006 150.881L31.4906 152.101L31.7906 153.271L36.3306 152.171L38.4006 160.231L17.9506 161.591H17.9606ZM26.6706 154.501L26.4206 153.511L22.3806 154.611L22.6006 155.491L26.6706 154.511V154.501Z" fill="#16A638"></path></g><defs><clipPath id="clip0_174_2972"><rect width="255.75" height="255.75" fill="white"></rect></clipPath></defs></svg>