<svg xmlns="http://www.w3.org/2000/svg" width="69" height="60" viewBox="0 0 69 60" fill="none"><path d="M61.674 4.89625C50.4458 8.59884 36.1319 18.5011 22.9323 35.4641L15.1325 26.7673C13.9325 25.3896 11.704 25.3896 10.5041 26.7673L4.76136 33.2253C3.64711 34.5169 3.73282 36.4112 4.93278 37.5306L22.5894 54.5797C24.0465 55.9574 26.4465 55.613 27.475 53.8048C36.9033 36.6696 47.0173 23.9258 64.1597 9.28769C66.2167 7.47945 64.3311 4.03519 61.674 4.89625Z" fill="#009A05"></path><path fill-rule="evenodd" clip-rule="evenodd" d="M60.4632 1.19205L60.4727 1.18896C67.36 -1.04298 71.8066 7.75477 66.7328 12.2148L66.7118 12.2333L66.6905 12.2514C49.899 26.5899 40.0869 38.968 30.8896 55.6835L30.8763 55.7077L30.8626 55.7317C28.6024 59.7053 23.2324 60.551 19.9121 57.4116L19.8972 57.3975L2.24524 40.3529C-0.523334 37.741 -0.602354 33.4767 1.81066 30.6797L1.82977 30.6575L7.58131 24.1896C10.3304 21.0552 15.2964 21.0527 18.049 24.1822L22.7748 29.4514C35.5119 14.2076 49.1756 4.91421 60.4537 1.19518L60.4632 1.19205ZM25.4047 32.3838C24.577 33.3835 23.7525 34.4102 22.9324 35.4641L15.1326 26.7674C13.9327 25.3897 11.7042 25.3897 10.5042 26.7674L4.7615 33.2254C3.64725 34.517 3.73296 36.4113 4.93292 37.5307L22.5896 54.5798C24.0467 55.9575 26.4466 55.6131 27.4751 53.8048C36.9034 36.6696 47.0174 23.9259 64.1598 9.28775C66.2169 7.47951 64.3312 4.03525 61.6742 4.89632C51.1435 8.36885 37.8988 17.2946 25.4047 32.3838Z" fill="white"></path></svg>