<svg xmlns="http://www.w3.org/2000/svg" width="290" height="54" viewBox="0 0 290 54" fill="none"><path fill-rule="evenodd" clip-rule="evenodd" d="M288.917 29.2413C288.917 38.3993 286.65 45.6856 279.605 49.7146C276.655 54.2939 250.832 54.4481 246.671 49.6705C239.648 45.6419 237.381 38.3993 237.381 29.2413C237.381 -0.391627 288.917 -0.391627 288.917 29.2413Z" fill="#009A05"></path><path fill-rule="evenodd" clip-rule="evenodd" d="M237.381 29.2411C237.381 18.6078 244.007 11.8045 252.505 8.78906C278.306 24.3538 246.341 54.184 237.381 29.2411Z" fill="#06BF0C"></path><path d="M289.667 29.2418C289.667 33.9087 289.095 38.1133 287.598 41.6801C286.1 45.2681 283.723 48.1738 280.113 50.2655C279.98 50.4634 279.804 50.6614 279.606 50.8381C277.294 52.8409 270.69 53.8976 263.932 53.9423C257.195 53.9864 250.26 53.0389 247.201 51.0801C246.804 50.8162 246.474 50.5516 246.209 50.2655C242.599 48.1526 240.199 45.2462 238.702 41.6572C237.227 38.1133 236.633 33.9087 236.633 29.2418C236.633 18.1898 243.545 11.1454 252.374 8.06301C255.786 6.87376 259.463 6.2793 263.161 6.2793C266.859 6.2793 270.536 6.87409 273.948 8.06301C282.776 11.1454 289.667 18.1898 289.667 29.2415V29.2418ZM286.211 41.1075C287.62 37.7394 288.17 33.7323 288.17 29.2418C288.17 18.9384 281.72 12.3559 273.442 9.47175C270.206 8.32726 266.683 7.75468 263.161 7.75468C259.639 7.75468 256.094 8.32726 252.859 9.47175C244.602 12.3559 238.129 18.9384 238.129 29.2418C238.129 33.7326 238.68 37.7394 240.089 41.0857C241.476 44.4097 243.699 47.0956 247.045 49.0325L247.244 49.1873C247.442 49.4071 247.706 49.6273 248.014 49.8259C250.81 51.6311 257.436 52.4895 263.931 52.4454C270.359 52.4013 276.589 51.476 278.615 49.7151C278.769 49.5832 278.901 49.4512 278.989 49.2971L279.232 49.055C282.6 47.139 284.823 44.4316 286.21 41.1075H286.211Z" fill="#FFEEB2"></path><path fill-rule="evenodd" clip-rule="evenodd" d="M247.089 16.4723C248.586 17.3529 248.895 19.6207 247.772 21.5357C246.649 23.4729 244.535 24.3101 243.016 23.4507C241.52 22.5701 241.211 20.3034 242.335 18.3655C243.457 16.4505 245.593 15.5918 247.089 16.4723H247.089Z" fill="#00F208"></path><path fill-rule="evenodd" clip-rule="evenodd" d="M241.829 24.3082C242.424 24.3961 242.82 25.1 242.71 25.8705C242.578 26.641 242.005 27.1917 241.411 27.0816C240.817 26.9938 240.42 26.3111 240.53 25.5406C240.641 24.7701 241.235 24.2194 241.829 24.3082H241.829Z" fill="#00F208"></path><path d="M275.787 35.7783C274.269 35.7783 273.014 36.571 273.014 37.5836C273.014 38.5961 274.269 39.4767 275.787 39.4767C277.306 39.4767 278.562 38.6402 278.562 37.5836C278.562 36.5269 277.307 35.7783 275.787 35.7783Z" fill="#E34949"></path><path d="M250.16 35.7783C248.641 35.7783 247.387 36.571 247.387 37.5836C247.387 38.5961 248.641 39.4767 250.16 39.4767C251.68 39.4767 252.935 38.6402 252.935 37.5836C252.935 36.5269 251.68 35.7783 250.16 35.7783Z" fill="#E34949"></path><path d="M259.428 32.3889C260.396 29.2193 265.526 29.2193 266.494 32.3889C264.381 30.6277 261.541 30.6277 259.428 32.3889Z" fill="#012504"></path><path fill-rule="evenodd" clip-rule="evenodd" d="M280.85 25.2563C280.409 29.8568 281.179 34.6563 276.512 35.207C274.971 35.383 273.21 35.4268 271.097 35.207C267.2 34.8111 266.452 28.03 266.188 25.2563C265.835 21.4913 281.224 21.0294 280.85 25.2563Z" fill="#FFE481"></path><path fill-rule="evenodd" clip-rule="evenodd" d="M268.391 33.4474C266.806 31.1358 266.387 27.217 266.189 25.2579V25.038C266.189 25.0152 266.212 24.994 266.212 24.9714V24.8613C266.454 23.7168 268.303 22.9022 270.592 22.5276C269.646 24.3335 268.259 27.1951 268.259 27.1951L272.332 22.3078C272.794 22.2856 273.279 22.2637 273.763 22.2637H273.785L273.323 23.563L274.621 22.2859C275.172 22.3519 276.492 22.4838 277.021 22.5727L270.153 32.8092L272.002 27.9659L268.392 33.448L268.391 33.4474Z" fill="white"></path><path fill-rule="evenodd" clip-rule="evenodd" d="M245.099 25.2563C245.518 29.8568 244.769 34.6563 249.437 35.207C250.977 35.383 252.739 35.4268 254.83 35.207C258.749 34.8111 259.475 28.03 259.739 25.2563C260.091 21.4913 244.703 21.0294 245.099 25.2563H245.099Z" fill="#FFE481"></path><path fill-rule="evenodd" clip-rule="evenodd" d="M245.1 25.2579C245.409 28.626 245.078 32.1043 246.729 33.9533L250.758 27.8336L248.953 32.523L255.646 22.5723C255.14 22.4835 253.841 22.3515 253.29 22.2856L252.036 23.5408L252.497 22.2637C252.102 22.2637 251.463 22.2856 251.067 22.3078L247.104 27.0631C247.104 27.0631 248.513 24.2016 249.415 22.4397C246.906 22.7925 244.946 23.7168 245.1 25.2582V25.2579Z" fill="white"></path><path fill-rule="evenodd" clip-rule="evenodd" d="M249.437 35.2074C250.977 35.3834 252.739 35.4272 254.83 35.2074C258.749 34.8115 259.476 28.0304 259.74 25.2567C259.784 24.882 259.651 24.5521 259.432 24.2441H258.595C258.771 24.4862 258.837 24.7279 258.815 25.014C258.551 27.6123 257.868 33.9303 254.213 34.3049C252.254 34.5028 250.625 34.481 249.172 34.3049C248.974 34.283 248.798 34.2608 248.622 34.217C246.574 33.7764 248.908 35.1417 249.437 35.2077V35.2074Z" fill="#FFEEB2"></path><path fill-rule="evenodd" clip-rule="evenodd" d="M276.515 35.2074C274.974 35.3834 273.213 35.4272 271.1 35.2074C267.203 34.8115 266.454 28.0304 266.19 25.2567C266.168 24.882 266.278 24.5521 266.52 24.2441H267.335C267.181 24.4862 267.115 24.7279 267.137 25.014C267.379 27.6123 268.083 33.9303 271.716 34.3049C273.675 34.5028 275.326 34.481 276.758 34.3049C276.956 34.283 277.153 34.2608 277.33 34.217C279.355 33.7764 277.044 35.1417 276.515 35.2077V35.2074Z" fill="#FFEEB2"></path><path d="M247.08 33.226C248.489 35.1192 252.649 34.7445 254.763 34.5244C256.37 34.3483 257.361 32.7632 257.999 30.9142C258.66 28.9544 258.902 26.7095 259.034 25.3442C258.968 24.0671 257.317 23.6712 256.348 23.4292C253.927 22.8125 250.58 22.7465 248.158 23.3851C247.41 23.583 245.737 24.1549 245.825 25.19C246.045 27.6557 245.759 31.4198 247.08 33.2257L247.08 33.226ZM259.122 23.0768C260.377 22.9889 261.632 22.9448 262.931 22.9448C264.23 22.9448 265.506 23.0108 266.806 23.0986C267.444 22.6587 268.28 22.3281 269.249 22.0861C270.57 21.7562 272.155 21.5795 273.718 21.5576C275.281 21.5576 276.844 21.7115 278.143 22.0423C279.904 22.5261 281.688 22.3281 283.207 22.9448C284.396 23.4295 283.207 27.4575 282.106 27.5241C281.864 27.546 281.622 27.546 281.401 27.546L281.379 27.678C281.203 31.7507 281.027 35.3831 276.58 35.9116C274.753 36.1095 272.881 36.0876 271.032 35.9116C268.743 35.6695 267.422 33.666 266.629 31.3323C266.079 29.703 265.792 27.92 265.638 26.5328C264.714 26.4227 263.833 26.3567 262.953 26.3567C262.072 26.3567 261.17 26.4227 260.311 26.5328C260.134 27.92 259.87 29.703 259.32 31.3323C258.528 33.666 257.207 35.6699 254.895 35.9116C253.838 35.9994 252.848 36.0654 251.923 36.0435C250.976 36.0435 250.139 35.9994 249.347 35.9116C244.922 35.3828 244.746 31.7507 244.548 27.678V27.546C244.327 27.546 244.107 27.546 243.865 27.5241C242.786 27.4575 241.576 23.4292 242.764 22.9448C244.239 22.3503 246.022 22.5261 247.806 22.0423C249.082 21.7118 250.646 21.5576 252.209 21.5576C253.772 21.5795 255.357 21.7562 256.677 22.0861C257.646 22.3281 258.483 22.6587 259.121 23.0768H259.122ZM267.399 24.332V24.3539C267.048 24.6178 266.915 24.9696 266.893 25.3445C267.025 26.7098 267.289 28.9547 267.95 30.9145C268.567 32.7635 269.557 34.3487 271.186 34.5247C272.925 34.7008 274.664 34.7226 276.426 34.5247C280.366 34.0622 279.883 29.2193 280.081 26.0713L280.102 25.9612C280.168 24.9039 280.366 24.5299 279.09 23.8695H279.112C276.513 22.5712 269.733 22.6149 267.399 24.332Z" fill="url(#paint0_linear_176_3216)"></path><path fill-rule="evenodd" clip-rule="evenodd" d="M257.23 40.974C256.46 40.7761 253.73 35.9106 258.001 34.1935C259.828 33.6651 261.017 34.4575 261.391 37.2537C261.765 40.0493 262.8 42.1623 262.8 42.1623C259.717 42.1851 258.485 41.5025 257.23 40.9737L257.23 40.974Z" fill="#E34949"></path><path d="M258.748 33.5354C263.372 33.4253 261.544 40.8006 263.393 41.9669C251.571 43.1562 254.412 33.6455 258.748 33.5354ZM257.714 40.8662C258.264 41.152 258.814 41.4829 258.771 41.1742C258.727 40.8662 257.934 39.6551 258.573 38.7526C259.145 40.2499 259.409 41.3062 260.62 41.5711C260.928 41.6371 261.478 41.7909 261.985 41.703C261.259 40.0519 261.522 34.1302 258.815 34.4601C255.359 34.5042 255.249 39.9422 257.714 40.8665L257.714 40.8662Z" fill="#012504"></path><path d="M270.394 38.5311C270.636 38.2453 271.077 38.2012 271.363 38.4432C271.65 38.6852 271.693 39.1259 271.451 39.4117C271.451 39.4117 268.347 43.2646 262.931 43.1107C257.603 42.9781 254.301 39.7638 254.301 39.7638C254.015 39.4999 254.015 39.0599 254.279 38.7731C254.544 38.5092 254.984 38.4873 255.249 38.7512C255.271 38.7512 258.176 41.5916 262.976 41.7235C267.687 41.8555 270.373 38.5533 270.395 38.5311H270.394Z" fill="#012504"></path><path d="M254.079 40.161C253.969 40.535 253.617 39.4346 254.123 38.7738C254.63 38.0693 255.73 38.3119 255.576 38.422C255.048 38.73 254.872 38.7738 254.586 39.1047C254.255 39.5005 254.079 40.1391 254.079 40.1613V40.161Z" fill="#012504"></path><path d="M271.826 40.7325C272.046 41.3482 272.464 39.5432 271.606 38.5307C270.703 37.4741 268.964 37.9581 269.228 38.113C270.087 38.5748 270.417 38.5967 270.879 39.1036C271.473 39.6974 271.826 40.7328 271.826 40.7328V40.7325Z" fill="#012504"></path><path d="M258.306 43.3506C257.03 42.844 259.781 45.0017 262.533 44.9357C265.197 44.8697 268.257 43.1307 267.619 43.3287C265.747 43.9453 263.964 44.2534 262.533 44.2311C259.957 44.187 258.306 43.3506 258.306 43.3506Z" fill="#012504"></path><path fill-rule="evenodd" clip-rule="evenodd" d="M277.373 4.52569C274.268 2.78673 270.35 2.69854 267.07 4.63577C263.79 6.52889 261.94 9.98592 261.918 13.5298C265.022 15.2469 268.919 15.3789 272.221 13.4638C275.48 11.5488 277.329 8.0918 277.373 4.52569Z" fill="#009A05"></path><path fill-rule="evenodd" clip-rule="evenodd" d="M277.373 4.52569C274.269 2.78673 270.351 2.69854 267.07 4.63577C266.3 5.05451 265.595 5.62642 264.979 6.24277L265.353 6.68339C266.079 7.21121 267.29 8.02582 271.517 5.95698C274.093 4.72363 275.282 4.2399 276.162 5.3403C276.778 6.08893 276.448 7.21121 276.294 7.56398C276.228 7.74003 276.404 7.89387 276.712 8.0918C277.131 6.96919 277.373 5.75871 277.373 4.52569H277.373Z" fill="#88D669"></path><path fill-rule="evenodd" clip-rule="evenodd" d="M264.252 7.03797C262.733 8.887 261.94 11.1989 261.918 13.5326C265.022 15.2497 268.919 15.3817 272.221 13.4666C273.96 12.4541 275.26 11.0009 276.14 9.37172C268.017 15.4035 266.013 11.2208 265.749 10.9127C265.507 10.5822 272.793 6.39941 272.793 6.39941C262.623 12.3875 264.252 7.05985 264.252 7.03797Z" fill="#047E08"></path><path fill-rule="evenodd" clip-rule="evenodd" d="M274.422 5.82518C274.18 5.45054 265.22 9.12738 261.654 13.1994C261.522 13.3761 261.61 13.8161 261.764 13.9699C261.896 14.1248 262.513 14.1248 262.689 13.9487C268.897 7.76208 274.687 6.19917 274.422 5.82518Z" fill="#FFEEB2"></path><path fill-rule="evenodd" clip-rule="evenodd" d="M276.889 4.83433C275.457 4.08636 273.828 3.66795 272.199 3.68983C270.526 3.71171 268.853 4.15167 267.334 5.05514C265.771 5.93572 264.559 7.19029 263.745 8.62125C262.953 10.0303 262.49 11.6377 262.424 13.2447C263.856 13.9933 265.463 14.3673 267.092 14.3673C268.765 14.3454 270.438 13.9266 271.979 13.0461C273.498 12.1436 274.709 10.889 275.545 9.45774C276.36 8.02645 276.8 6.46354 276.888 4.83433H276.889ZM272.177 2.72139C274.092 2.6995 275.963 3.20511 277.614 4.10791L277.857 4.26274V4.54853C277.857 6.44166 277.328 8.31357 276.382 9.94246C275.479 11.5269 274.158 12.8919 272.463 13.9044C270.768 14.8735 268.919 15.3357 267.091 15.3357C265.22 15.3576 263.349 14.8958 261.698 13.9492L261.434 13.8166V13.5308C261.434 11.6599 261.961 9.78796 262.909 8.13686C263.811 6.55174 265.132 5.16521 266.827 4.19676C268.522 3.22766 270.35 2.7436 272.177 2.72172L272.177 2.72139Z" fill="#FFEEB2"></path><path fill-rule="evenodd" clip-rule="evenodd" d="M246.682 2.91934C249.874 0.519613 254.211 -0.206804 258.196 1.4002C262.18 3.02942 264.756 6.5743 265.328 10.5585C262.158 12.9582 257.843 13.7069 253.859 12.0776C249.874 10.4706 247.275 6.90419 246.682 2.91934H246.682Z" fill="#009A05"></path><path fill-rule="evenodd" clip-rule="evenodd" d="M246.682 2.91934C249.874 0.519613 254.211 -0.206804 258.196 1.4002C259.142 1.79706 260.023 2.30267 260.793 2.89746L260.44 3.42628C259.737 4.13081 258.503 5.27531 253.462 3.60233C250.402 2.61167 248.971 2.28112 248.179 3.64642C247.606 4.5711 248.157 5.80412 248.355 6.13401C248.465 6.31006 248.311 6.55176 248.002 6.79445C247.32 5.6052 246.88 4.28465 246.682 2.91967L246.682 2.91934Z" fill="#88D669"></path><path fill-rule="evenodd" clip-rule="evenodd" d="M261.764 3.64551C263.7 5.47266 264.956 7.93836 265.33 10.5579C262.16 12.9576 257.845 13.7063 253.861 12.0771C251.769 11.2183 250.074 9.83215 248.818 8.1363C258.858 13.5743 260.421 8.62102 260.663 8.22416C260.883 7.80641 252.099 4.30595 252.099 4.30595C264.405 9.36932 261.764 3.66739 261.764 3.64551Z" fill="#047E08"></path><path fill-rule="evenodd" clip-rule="evenodd" d="M250.183 3.93129C250.403 3.44723 260.992 6.13309 265.572 10.1398C265.77 10.2937 265.748 10.8003 265.572 10.9985C265.44 11.1965 264.757 11.2843 264.558 11.1305C256.678 5.20874 249.963 4.35003 250.183 3.93129Z" fill="#FFEEB2"></path><path fill-rule="evenodd" clip-rule="evenodd" d="M246.374 2.50174C248.047 1.22462 250.095 0.387802 252.186 0.102009C254.211 -0.162564 256.347 0.0801273 258.416 0.916618C260.441 1.73123 262.137 3.05177 263.392 4.68066C264.735 6.35364 265.571 8.3575 265.879 10.4704L265.945 10.7791L265.659 10.9989C263.986 12.2535 261.983 13.09 259.847 13.3768C257.822 13.6626 255.709 13.4209 253.661 12.6063H253.639C251.614 11.7698 249.919 10.4486 248.641 8.81935C247.321 7.12415 246.462 5.14317 246.154 3.02956L246.088 2.69967L246.374 2.50174H246.374ZM252.341 1.20241C250.513 1.42223 248.796 2.12709 247.276 3.1834C247.607 4.98933 248.378 6.68419 249.522 8.13669C250.668 9.61174 252.208 10.801 254.08 11.5708C255.929 12.3201 257.866 12.54 259.716 12.2973C261.521 12.0552 263.26 11.3507 264.757 10.2941C264.426 8.48913 263.679 6.79393 262.534 5.34077C261.389 3.86572 259.848 2.67713 257.977 1.9285C256.149 1.17987 254.19 0.96005 252.341 1.20208L252.341 1.20241Z" fill="#FFEEB2"></path><path fill-rule="evenodd" clip-rule="evenodd" d="M51.9662 29.0627C51.9662 38.1649 49.713 45.4065 42.7109 49.4109C39.7782 53.9623 14.1129 54.1156 9.97737 49.367C2.99742 45.363 0.744141 38.1649 0.744141 29.0627C0.744141 -0.389378 51.9662 -0.389378 51.9662 29.0627Z" fill="#C42D00"></path><path fill-rule="evenodd" clip-rule="evenodd" d="M0.744141 29.0626C0.744141 18.4942 7.3303 11.7324 15.776 8.73535C41.4197 24.2051 9.64949 53.8534 0.744141 29.0626Z" fill="#E3493F"></path><path d="M52.7099 29.0626C52.7099 33.701 52.1417 37.8801 50.6538 41.4249C49.1659 44.9912 46.8026 47.8789 43.2147 49.9581C43.0827 50.1548 42.9079 50.3515 42.7112 50.527C40.4133 52.5177 33.8492 53.5679 27.1322 53.6125C20.437 53.656 13.544 52.7144 10.5032 50.7676C10.1091 50.5055 9.7812 50.2422 9.51794 49.9581C5.92974 47.8581 3.54467 44.9693 2.05688 41.4022C0.590175 37.8801 0 33.701 0 29.0626C0 18.078 6.87022 11.0766 15.6447 8.01307C19.0362 6.83108 22.6906 6.24023 26.3661 6.24023C30.0416 6.24023 33.696 6.83138 37.0874 8.01307C45.8621 11.0766 52.7099 18.0783 52.7099 29.0626ZM49.2752 40.8559C50.6757 37.5083 51.2224 33.5257 51.2224 29.0626C51.2224 18.8221 44.8119 12.2797 36.5849 9.4132C33.3684 8.27569 29.8669 7.7066 26.3664 7.7066C22.8659 7.7066 19.3423 8.27569 16.1268 9.4132C7.92041 12.2797 1.48714 18.8221 1.48714 29.0626C1.48714 33.526 2.03447 37.5083 3.43494 40.834C4.81365 44.1378 7.0231 46.8075 10.349 48.7323L10.5464 48.8863C10.7431 49.105 11.0054 49.3236 11.3122 49.5211C14.0907 51.3154 20.6766 52.1685 27.1316 52.1246C33.5207 52.0808 39.7127 51.1611 41.7261 49.411C41.8789 49.2797 42.0106 49.1489 42.0979 48.9953L42.3389 48.755C45.6866 46.8506 47.8959 44.1597 49.2749 40.8559H49.2752Z" fill="white"></path><path fill-rule="evenodd" clip-rule="evenodd" d="M10.3918 16.3716C11.8799 17.2468 12.1867 19.5007 11.0703 21.4041C9.95447 23.3295 7.85379 24.1615 6.34392 23.3074C4.85679 22.4322 4.54998 20.1792 5.66641 18.2532C6.78219 16.3498 8.90428 15.4964 10.3918 16.3716Z" fill="#FB9292"></path><path fill-rule="evenodd" clip-rule="evenodd" d="M5.16284 24.1617C5.75364 24.249 6.14743 24.9486 6.03806 25.7144C5.9069 26.4802 5.33781 27.0275 4.74764 26.9181C4.1568 26.8308 3.76236 26.1523 3.87174 25.3865C3.98183 24.6207 4.57169 24.0734 5.16284 24.1617Z" fill="#FB9292"></path><path d="M38.9129 35.5596C37.4041 35.5596 36.1562 36.3475 36.1562 37.3538C36.1562 38.3603 37.4038 39.2353 38.9129 39.2353C40.4224 39.2353 41.6704 38.4042 41.6704 37.3538C41.6704 36.3036 40.4228 35.5596 38.9129 35.5596Z" fill="#FB9292"></path><path d="M13.4443 35.5596C11.9344 35.5596 10.6875 36.3475 10.6875 37.3538C10.6875 38.3603 11.9344 39.2353 13.4443 39.2353C14.9542 39.2353 16.2017 38.4042 16.2017 37.3538C16.2017 36.3036 14.9542 35.5596 13.4443 35.5596Z" fill="#FB9292"></path><path d="M22.6562 32.1888C23.6188 29.0386 28.7168 29.0386 29.6793 32.1888C27.5793 30.4384 24.7563 30.4384 22.6562 32.1888Z" fill="#4E0000"></path><path fill-rule="evenodd" clip-rule="evenodd" d="M43.9458 25.1013C43.5077 29.6737 44.2734 34.4439 39.6349 34.9912C38.1032 35.1662 36.3528 35.2097 34.2527 34.9912C30.3795 34.5978 29.6358 27.8581 29.3731 25.1013C29.0225 21.3592 44.3173 20.9002 43.9458 25.1013Z" fill="white"></path><path fill-rule="evenodd" clip-rule="evenodd" d="M31.5614 33.2405C29.9859 30.943 29.5698 27.0481 29.373 25.1009V24.8825C29.373 24.8597 29.3951 24.8386 29.3951 24.8162V24.7068C29.6357 23.5693 31.4741 22.7597 33.7491 22.3873C32.8083 24.1822 31.4296 27.0263 31.4296 27.0263L35.4778 22.1688C35.9374 22.1468 36.4192 22.125 36.9003 22.125H36.9221L36.463 23.4164L37.7534 22.1471C38.3008 22.2127 39.6128 22.3438 40.1386 22.4321L33.3122 32.6061L35.1499 27.7925L31.5617 33.2411L31.5614 33.2405Z" fill="#FFEEB2"></path><path fill-rule="evenodd" clip-rule="evenodd" d="M8.41142 25.1013C8.8276 29.6737 8.08354 34.4439 12.7226 34.9912C14.2535 35.1662 16.0046 35.2097 18.0829 34.9912C21.9778 34.5978 22.7002 27.8581 22.9625 25.1013C23.3121 21.3592 8.01794 20.9002 8.41142 25.1013Z" fill="white"></path><path fill-rule="evenodd" clip-rule="evenodd" d="M8.41272 25.1009C8.71953 28.4485 8.39097 31.9056 10.032 33.7433L14.0364 27.661L12.2421 32.3217L18.8938 22.4318C18.391 22.3435 17.0999 22.2123 16.5526 22.1468L15.3057 23.3943L15.7647 22.125C15.3712 22.125 14.7366 22.1468 14.3431 22.1688L10.4044 26.8952C10.4044 26.8952 11.8042 24.0511 12.7011 22.3C10.207 22.6506 8.25985 23.569 8.41272 25.1009Z" fill="#FFEEB2"></path><path fill-rule="evenodd" clip-rule="evenodd" d="M12.7217 34.9911C14.2527 35.166 16.0038 35.2095 18.0821 34.9911C21.977 34.5976 22.6994 27.8579 22.9616 25.1011C23.0055 24.7287 22.874 24.4009 22.6555 24.0947H21.8241C21.9991 24.3353 22.0647 24.5755 22.0426 24.8599C21.7803 27.4424 21.1018 33.7217 17.4692 34.0941C15.522 34.2908 13.9027 34.2691 12.4585 34.0941C12.2617 34.0723 12.0867 34.0503 11.9121 34.0068C9.87665 33.5689 12.1961 34.9255 12.7217 34.9911Z" fill="white"></path><path fill-rule="evenodd" clip-rule="evenodd" d="M39.6355 34.9911C38.1037 35.166 36.3534 35.2095 34.2534 34.9911C30.3801 34.5976 29.6364 27.8579 29.3738 25.1011C29.3521 24.7287 29.4611 24.4009 29.7017 24.0947H30.5113C30.3584 24.3353 30.2928 24.5755 30.3146 24.8599C30.5552 27.4424 31.2554 33.7217 34.866 34.0941C36.8131 34.2908 38.454 34.2691 39.8768 34.0941C40.0735 34.0723 40.2703 34.0503 40.445 34.0068C42.4584 33.5689 40.1609 34.9255 39.6355 34.9911Z" fill="white"></path><path d="M10.3809 33.022C11.7807 34.9036 15.9162 34.5312 18.017 34.3124C19.6141 34.1375 20.5988 32.562 21.2334 30.7242C21.8898 28.7764 22.1304 26.5452 22.2615 25.1883C22.196 23.919 20.5549 23.5255 19.5924 23.285C17.1855 22.672 13.8597 22.6065 11.4525 23.2411C10.7085 23.4378 9.04568 24.0063 9.13303 25.0351C9.35181 27.4857 9.06743 31.2268 10.3806 33.0217L10.3809 33.022ZM22.3492 22.9347C23.5968 22.8473 24.8437 22.8035 26.1347 22.8035C27.4258 22.8035 28.6948 22.8691 29.9862 22.9564C30.6202 22.5191 31.4516 22.1906 32.4148 21.9501C33.7273 21.6222 35.3027 21.4466 36.8564 21.4248C38.4096 21.4248 39.9633 21.5777 41.2541 21.9065C43.0046 22.3873 44.7773 22.1906 46.2871 22.8035C47.4686 23.2853 46.2871 27.2886 45.1927 27.3549C44.9521 27.3766 44.7119 27.3766 44.4924 27.3766L44.4705 27.5078C44.2957 31.5556 44.1209 35.1659 39.7011 35.6911C37.8845 35.8879 36.0247 35.8661 34.1869 35.6911C31.9113 35.4506 30.5981 33.4593 29.8102 31.1398C29.2635 29.5205 28.9788 27.7483 28.8256 26.3696C27.9069 26.2602 27.0314 26.1946 26.1565 26.1946C25.2816 26.1946 24.3843 26.2602 23.5308 26.3696C23.3552 27.7483 23.0929 29.5205 22.5456 31.1398C21.7587 33.4593 20.4455 35.4509 18.1478 35.6911C17.0976 35.7784 16.1133 35.844 15.1943 35.8223C14.2528 35.8223 13.4214 35.7784 12.6335 35.6911C8.23572 35.1655 8.06075 31.5556 7.86403 27.5078V27.3766C7.64457 27.3766 7.4261 27.3766 7.18553 27.3549C6.11295 27.2886 4.90985 23.285 6.09085 22.8035C7.55692 22.2127 9.32907 22.3873 11.1022 21.9065C12.3709 21.578 13.9246 21.4248 15.4783 21.4248C17.032 21.4466 18.6075 21.6222 19.9196 21.9501C20.8821 22.1906 21.7145 22.5191 22.3485 22.9347H22.3492ZM30.576 24.1822V24.204C30.2264 24.4663 30.0949 24.8159 30.0732 25.1886C30.2043 26.5456 30.4666 28.7768 31.1234 30.7246C31.7363 32.5623 32.7206 34.1378 34.3398 34.3128C36.0682 34.4877 37.7969 34.5095 39.5472 34.3128C43.4638 33.8531 42.9834 29.0397 43.1801 25.9109L43.2016 25.8015C43.2671 24.7507 43.4638 24.379 42.1953 23.7225H42.2169C39.6346 22.4321 32.8955 22.4756 30.576 24.1822Z" fill="#4E0000"></path><path fill-rule="evenodd" clip-rule="evenodd" d="M20.4686 40.7236C19.7028 40.5269 16.9898 35.6912 21.2344 33.9846C23.0504 33.4593 24.2324 34.2469 24.6038 37.0261C24.9754 39.8047 26.0042 41.9047 26.0042 41.9047C22.9406 41.9274 21.7158 41.2491 20.4682 40.7232L20.4686 40.7236Z" fill="#E34949"></path><path d="M21.9774 33.3284C26.5726 33.219 24.7559 40.5491 26.5937 41.7086C14.8443 42.8904 17.6673 33.4378 21.9774 33.3284ZM20.9493 40.6145C21.496 40.8986 22.043 41.2274 21.9995 40.9206C21.9557 40.6145 21.1681 39.4108 21.8028 38.5138C22.3712 40.0017 22.6342 41.0519 23.8373 41.3152C24.144 41.3806 24.6907 41.5334 25.1942 41.4461C24.4723 39.805 24.7345 33.9195 22.0433 34.2474C18.6084 34.2912 18.499 39.696 20.9497 40.6149L20.9493 40.6145Z" fill="#4E0000"></path><path d="M33.5527 38.2943C33.7932 38.0102 34.2312 37.9663 34.5152 38.2069C34.8002 38.4475 34.8437 38.8856 34.6025 39.1697C34.6025 39.1697 31.5179 42.999 26.1351 42.8461C20.8397 42.7141 17.5577 39.5197 17.5577 39.5197C17.2736 39.2571 17.2736 38.8198 17.5359 38.5349C17.7989 38.2727 18.2361 38.2508 18.4994 38.513C18.5212 38.513 21.4091 41.3363 26.1793 41.4672C30.8618 41.5985 33.5309 38.3163 33.5527 38.2943Z" fill="#4E0000"></path><path d="M17.3394 39.9144C17.2304 40.2859 16.8804 39.1922 17.3832 38.5354C17.8868 37.8352 18.9805 38.0765 18.8275 38.1859C18.3023 38.4919 18.1273 38.5354 17.8429 38.8642C17.5144 39.2576 17.3394 39.8924 17.3394 39.9144Z" fill="#4E0000"></path><path d="M34.9759 40.4825C35.1944 41.0946 35.6106 39.3007 34.7574 38.2944C33.8595 37.244 32.1311 37.7251 32.3941 37.879C33.2476 38.3379 33.5755 38.3598 34.0351 38.8637C34.6253 39.4539 34.9759 40.4825 34.9759 40.4825Z" fill="#4E0000"></path><path d="M21.5404 43.0864C20.2717 42.5829 23.0068 44.7275 25.7414 44.6621C28.3895 44.5962 31.4303 42.8681 30.7964 43.0649C28.9359 43.6777 27.1637 43.9838 25.7414 43.9618C23.1814 43.9179 21.5404 43.0864 21.5404 43.0864Z" fill="#4E0000"></path><path fill-rule="evenodd" clip-rule="evenodd" d="M40.4894 4.49905C37.404 2.77071 33.5096 2.68306 30.2494 4.60846C26.9891 6.49002 25.1507 9.92595 25.1289 13.4482C28.2142 15.1548 32.0871 15.286 35.3695 13.3826C38.6077 11.4793 40.4459 8.0434 40.4894 4.49905Z" fill="#E23A20"></path><path fill-rule="evenodd" clip-rule="evenodd" d="M40.4887 4.49905C37.4034 2.77071 33.5092 2.68306 30.2488 4.60846C29.483 5.02464 28.7828 5.59309 28.1699 6.20565L28.5423 6.64358C29.2636 7.16818 30.4673 7.97784 34.6684 5.92161C37.2285 4.69577 38.4102 4.21502 39.2853 5.30871C39.8974 6.05277 39.5694 7.16818 39.4165 7.5188C39.3511 7.69377 39.5259 7.84668 39.8315 8.0434C40.2481 6.92765 40.4887 5.72455 40.4887 4.49905Z" fill="#FB9292"></path><path fill-rule="evenodd" clip-rule="evenodd" d="M27.4484 6.99403C25.9386 8.83178 25.1507 11.1296 25.1289 13.4491C28.2142 15.1556 32.0871 15.2868 35.3695 13.3835C37.0978 12.3771 38.389 10.9328 39.2645 9.31356C31.1905 15.3086 29.1988 11.1513 28.9366 10.8452C28.696 10.5166 35.9379 6.35938 35.9379 6.35938C25.8295 12.3109 27.4484 7.01578 27.4484 6.99403Z" fill="#AE1D07"></path><path fill-rule="evenodd" clip-rule="evenodd" d="M37.557 5.78986C37.3164 5.41753 28.4111 9.07193 24.8667 13.1191C24.7356 13.2947 24.8229 13.732 24.9761 13.8849C25.1073 14.0388 25.7202 14.0388 25.8948 13.8638C32.0655 7.71493 37.8203 6.16159 37.557 5.78986Z" fill="white"></path><path fill-rule="evenodd" clip-rule="evenodd" d="M40.0091 4.80581C38.5866 4.06239 36.9673 3.64654 35.3484 3.66829C33.6856 3.69004 32.0225 4.12731 30.5126 5.02526C28.9589 5.90048 27.7552 7.14739 26.9455 8.56961C26.1587 9.97008 25.6986 11.5676 25.6331 13.1648C27.0556 13.9088 28.6528 14.2806 30.2721 14.2806C31.9348 14.2588 33.5979 13.8426 35.1296 12.9674C36.6388 12.0705 37.8425 10.8235 38.674 9.40099C39.4836 7.97843 39.9213 6.42509 40.0091 4.80581ZM35.3263 2.70576C37.2296 2.68401 39.0894 3.18653 40.7301 4.0838L40.9715 4.2377V4.52177C40.9715 6.40333 40.446 8.26382 39.5052 9.88276C38.6082 11.4576 37.2952 12.8142 35.6103 13.8206C33.9255 14.7837 32.0877 15.2431 30.2717 15.2431C28.4113 15.2649 26.5518 14.8058 24.9108 13.865L24.6484 13.7332V13.4492C24.6484 11.5897 25.173 9.72921 26.1148 8.08817C27.0118 6.51274 28.3242 5.13467 30.0091 4.17214C31.694 3.20894 33.5106 2.72783 35.3266 2.70609L35.3263 2.70576Z" fill="white"></path><path fill-rule="evenodd" clip-rule="evenodd" d="M9.98862 2.9019C13.1613 0.516814 17.4717 -0.20517 21.432 1.39203C25.3925 3.0113 27.9526 6.53457 28.5206 10.4944C25.3704 12.8795 21.0813 13.6236 17.1215 12.0043C13.1609 10.4071 10.5788 6.86241 9.98862 2.9019Z" fill="#E23A20"></path><path fill-rule="evenodd" clip-rule="evenodd" d="M9.98862 2.9019C13.1613 0.516814 17.4717 -0.20517 21.432 1.39203C22.3727 1.78646 23.2479 2.28898 24.0137 2.88015L23.6632 3.40574C22.9636 4.10597 21.7378 5.24347 16.7273 3.58071C13.6855 2.5961 12.264 2.26756 11.4764 3.62454C10.9073 4.54356 11.4547 5.76906 11.6514 6.09694C11.7608 6.27191 11.6076 6.51213 11.3008 6.75334C10.623 5.57135 10.185 4.25888 9.98828 2.90222L9.98862 2.9019Z" fill="#FB9292"></path><path fill-rule="evenodd" clip-rule="evenodd" d="M24.9756 3.62402C26.9006 5.44001 28.1482 7.89067 28.5199 10.4942C25.3697 12.8793 21.0806 13.6234 17.1207 12.0041C15.0418 11.1506 13.3569 9.77291 12.1094 8.08739C22.0876 13.4922 23.6413 8.56917 23.8815 8.17474C24.1004 7.75954 15.3696 4.28042 15.3696 4.28042C27.6009 9.31288 24.9756 3.64577 24.9756 3.62402Z" fill="#AE1D07"></path><path fill-rule="evenodd" clip-rule="evenodd" d="M13.4681 3.90751C13.6866 3.42641 24.2112 6.09588 28.7629 10.0782C28.9596 10.231 28.9378 10.7346 28.7629 10.9316C28.6317 11.1283 27.9533 11.2157 27.7559 11.0627C19.9231 5.17715 13.2496 4.32369 13.4681 3.90751Z" fill="white"></path><path fill-rule="evenodd" clip-rule="evenodd" d="M9.68086 2.48647C11.3436 1.21715 13.3788 0.385433 15.4577 0.101387C17.4704 -0.161572 19.5933 0.0796383 21.6494 0.911023C23.6622 1.72066 25.3477 3.03315 26.5946 4.65208C27.9295 6.31486 28.7609 8.30651 29.067 10.4065L29.1326 10.7133L28.8485 10.9318C27.1854 12.1787 25.1941 13.0101 23.072 13.2951C21.0586 13.5792 18.9586 13.3389 16.9231 12.5293H16.9014C14.8886 11.6979 13.2038 10.3848 11.9345 8.76552C10.622 7.08067 9.76787 5.11176 9.46208 3.01107L9.39648 2.68319L9.68086 2.48647ZM15.611 1.19507C13.795 1.41354 12.0877 2.11411 10.5778 3.16397C10.9064 4.95889 11.6725 6.64339 12.81 8.08702C13.9482 9.55308 15.4791 10.7351 17.3396 11.5002C19.1774 12.2449 21.1028 12.4634 22.9412 12.2222C24.7351 11.9816 26.4638 11.2814 27.9519 10.2312C27.623 8.43733 26.88 6.75245 25.7418 5.30818C24.6043 3.84211 23.0727 2.66079 21.2128 1.91673C19.3962 1.17266 17.449 0.954192 15.6113 1.19474L15.611 1.19507Z" fill="white"></path><path d="M74.2535 12.3052H65.3553C60.7508 12.2557 58.6289 15.6002 58.6289 19.8732V42.2682C58.6289 46.6426 60.8575 48.858 65.2512 48.858C69.6445 48.858 71.8232 46.6426 71.8232 42.2682V33.6704H75.1841C77.3583 33.6704 78.4455 32.5887 78.4455 30.4251C78.4455 28.2615 77.3583 27.182 75.1841 27.182H71.8232V24.5046H74.2535C78.3434 24.5046 80.3613 22.4447 80.3613 18.379C80.3613 14.3133 78.3434 12.3052 74.2535 12.3052Z" fill="#C42D00"></path><path d="M96.7221 36.192H95.2724V18.3809C95.2724 14.0041 93.0983 11.791 88.7004 11.791C84.3022 11.791 82.0781 14.0041 82.0781 18.3809V42.2678C82.0781 46.489 84.096 48.1861 88.1318 48.3416H96.7221C100.807 48.3416 102.825 46.3335 102.825 42.2678C102.825 38.2022 100.807 36.192 96.7221 36.192Z" fill="#C42D00"></path><path d="M127.671 11.791C123.273 11.791 121.048 14.0041 121.048 18.3809V35.6781C121.048 37.17 120.43 37.9407 119.187 37.9407C117.944 37.9407 117.326 37.2196 117.326 35.7277V18.3809C117.326 14.0041 115.151 11.791 110.753 11.791C106.355 11.791 104.131 14.0041 104.131 18.3809V35.5744C104.131 45.101 108.373 48.8576 119.187 48.8576C130.001 48.8576 134.243 44.7401 134.243 35.5744V18.3809C134.243 14.0041 132.069 11.791 127.671 11.791Z" fill="#C42D00"></path><path d="M143.725 11.791C139.332 11.791 137.104 14.0041 137.104 18.3809V42.2678C137.104 46.6422 139.332 48.8576 143.725 48.8576C148.119 48.8576 150.298 46.6422 150.298 42.2678V18.3809C150.298 14.0041 148.124 11.791 143.725 11.791Z" fill="#009A05"></path><path d="M178.695 34.2856H176.109C174.816 34.2856 174.816 32.9987 175.952 32.9987C179.832 32.9987 182.006 29.5483 182.006 23.4227C182.006 15.1358 178.02 11.7891 168.193 11.7891H159.655C155.262 11.7891 153.033 14.0022 153.033 18.3789V41.7521C153.033 46.1265 155.262 48.3419 159.606 48.3419C164.833 48.3419 166.59 45.0968 165.091 41.7521L163.179 37.4791L164.368 36.9135L167.679 42.8318C169.854 46.7443 172.284 48.3419 176.061 48.3419C180.665 48.3419 182.733 45.9215 182.733 40.4133C182.733 36.1404 181.49 34.2879 178.697 34.2879L178.695 34.2856ZM167.933 27.6462H166.228V22.1877H167.987C169.124 22.1877 169.745 22.9089 169.745 24.8651C169.745 26.7177 169.176 27.6462 167.933 27.6462Z" fill="#009A05"></path><path d="M220.211 26.6673L216.954 26.7169C215.763 26.7169 215.142 26.3067 215.142 25.43C215.142 24.5533 215.711 24.1949 217.004 24.1949H222.539C227.093 24.1949 229.054 22.703 229.054 18.2226C229.054 13.4335 226.781 11.786 221.345 11.786H211.362C203.916 11.786 200.186 15.4934 200.186 22.9577C200.186 29.8044 203.291 32.8425 209.394 32.8425H212.035C213.016 32.8425 213.534 33.3586 213.534 34.1293C213.534 34.9001 213.016 35.468 212.035 35.468L198.007 35.432V17.8643C198.007 13.4876 195.833 11.2744 191.435 11.2744C187.037 11.2744 184.812 13.4876 184.812 17.8643V41.7514C184.812 46.1258 187.041 48.3411 191.435 48.3411C191.989 48.3411 192.508 48.3052 192.993 48.2352H218.498C225.483 48.2352 229.256 44.0681 229.256 36.7571C229.256 30.1155 226.101 26.5636 220.204 26.6673H220.211Z" fill="#009A05"></path><defs><linearGradient id="paint0_linear_176_3216" x1="262.988" y1="21.5576" x2="262.988" y2="36.0519" gradientUnits="userSpaceOnUse"><stop stop-color="#005D08"></stop><stop offset="1" stop-color="#002203"></stop></linearGradient></defs></svg>