<svg xmlns="http://www.w3.org/2000/svg" width="48" height="49" viewBox="0 0 48 49" fill="none"><path d="M33.8932 24.5742L46.3296 12.1378C47.4068 11.0606 48 9.62917 48 8.10556C48 6.58194 47.4068 5.15052 46.3296 4.07574L44.5003 2.24643C43.4231 1.16801 41.9917 0.574814 40.4693 0.574814C38.9468 0.574814 37.5142 1.16801 36.4394 2.24521L24.003 14.6816L11.5642 2.24279C10.4882 1.16558 9.05557 0.572388 7.53317 0.572388C6.01077 0.572388 4.57813 1.16558 3.50335 2.24157L1.6704 4.0721C0.593192 5.1493 0 6.58194 0 8.10434C0 9.62675 0.593192 11.0594 1.6704 12.1342L14.1092 24.5742L1.67282 37.0106C0.595618 38.0878 0.00242614 39.5205 0.00242614 41.0429C0.00242614 42.5653 0.595618 43.9979 1.67282 45.0727L3.50214 46.902C4.57934 47.9792 6.01077 48.5724 7.53438 48.5724C9.058 48.5724 10.4894 47.9792 11.5642 46.902L24.0006 34.4656L36.437 46.902C37.5142 47.9792 38.9456 48.5724 40.4693 48.5724C41.9929 48.5724 43.4243 47.9792 44.4991 46.902L46.3284 45.0727C47.4056 43.9955 47.9988 42.564 47.9988 41.0404C47.9988 39.5168 47.4056 38.0854 46.3284 37.0106L33.892 24.5742H33.8932Z" fill="white"></path><path d="M31.1848 24.4713L44.6196 11.0365C46.1042 9.55196 46.1042 7.14521 44.6196 5.66316L42.8284 3.87203C41.3438 2.38744 38.9371 2.38744 37.455 3.87203L24.0203 17.3068L10.5856 3.86949C9.10098 2.38491 6.69423 2.38491 5.21218 3.86949L3.41851 5.66062C1.93393 7.14521 1.93393 9.55196 3.41851 11.034L16.8558 24.4713L3.42105 37.906C1.93646 39.3906 1.93646 41.7974 3.42105 43.2794L5.21218 45.0705C6.69676 46.5551 9.10351 46.5551 10.5856 45.0705L24.0203 31.6358L37.455 45.0705C38.9396 46.5551 41.3464 46.5551 42.8284 45.0705L44.6196 43.2794C46.1042 41.7948 46.1042 39.3881 44.6196 37.906L31.1848 24.4713Z" fill="#C42D00"></path></svg>