<svg xmlns="http://www.w3.org/2000/svg" width="296" height="24" viewBox="0 0 296 24" fill="none"><path fill-rule="evenodd" clip-rule="evenodd" d="M295.56 20.64C295.56 22.22 294.26 23.52 292.68 23.52H263.88C262.3 23.52 261 22.22 261 20.64V3.35998C261 1.77998 262.3 0.47998 263.88 0.47998H292.68C294.26 0.47998 295.56 1.77998 295.56 3.35998V20.64Z" fill="#F5F5F5"></path><path d="M292.68 0.47998H263.88C262.3 0.47998 261 1.77998 261 3.35998V20.64C261 22.22 262.3 23.52 263.88 23.52H292.68C294.26 23.52 295.56 22.22 295.56 20.64V3.35998C295.56 1.77998 294.26 0.47998 292.68 0.47998ZM292.68 1.04998C293.95 1.04998 294.98 2.08998 294.98 3.34998V20.63C294.98 21.9 293.95 22.93 292.68 22.93H263.88C262.61 22.93 261.58 21.89 261.58 20.63V3.34998C261.58 2.07998 262.61 1.04998 263.88 1.04998H292.68Z" fill="#D0D0D0"></path><path d="M285.62 12.8999C285.46 12.1399 285.3 11.3899 285.15 10.6399H285.13C284.86 11.3999 284.58 12.1399 284.31 12.9099H285.62V12.8999ZM281.85 15.0799C281.94 14.8599 282.04 14.6299 282.13 14.4099C282.82 12.7499 283.52 11.0899 284.21 9.42994C284.34 9.10994 284.59 8.93994 284.94 8.93994H286.16C286.24 8.93994 286.27 8.95994 286.29 9.03994C286.7 11.0099 287.11 12.9899 287.52 14.9599C287.52 14.9999 287.52 15.0399 287.54 15.0899H286.07C286.02 14.8199 285.95 14.5599 285.91 14.2999C285.89 14.1999 285.86 14.1699 285.76 14.1699H283.95C283.87 14.1699 283.82 14.1999 283.81 14.2799C283.73 14.5299 283.64 14.7799 283.54 15.0199C283.54 15.0599 283.48 15.0899 283.44 15.0899H281.84H281.87L281.85 15.0799Z" fill="#152884"></path><path fill-rule="evenodd" clip-rule="evenodd" d="M282.22 9.09992C282.13 9.52992 282.04 9.94992 281.94 10.3899C281.77 10.3399 281.6 10.2599 281.43 10.2199C281.05 10.1099 280.67 10.0699 280.29 10.1499C280.16 10.1799 280.01 10.2399 279.89 10.3099C279.64 10.4899 279.63 10.7799 279.87 10.9699C280.06 11.1099 280.28 11.2199 280.48 11.3499C280.73 11.4999 281 11.6399 281.25 11.8199C281.86 12.2699 282.06 12.8899 281.85 13.6099C281.65 14.2899 281.17 14.7099 280.54 14.9499C279.96 15.1699 279.34 15.2099 278.72 15.1599C278.33 15.1199 277.95 15.0599 277.58 14.9399C277.52 14.9199 277.46 14.8899 277.39 14.8699C277.49 14.4199 277.58 13.9799 277.67 13.5399C277.93 13.6299 278.18 13.7399 278.44 13.8099C278.83 13.9199 279.23 13.9499 279.63 13.8599C279.78 13.8199 279.95 13.7499 280.07 13.6599C280.31 13.4899 280.33 13.1599 280.11 12.9699C279.94 12.8299 279.74 12.7099 279.55 12.5899C279.26 12.4099 278.96 12.2699 278.69 12.0699C277.79 11.3999 277.95 10.3899 278.42 9.76992C278.77 9.31992 279.24 9.06992 279.78 8.92992C280.57 8.72992 281.36 8.78992 282.14 9.05992C282.17 9.05992 282.19 9.07992 282.23 9.09992V9.11993L282.22 9.09992Z" fill="#152884"></path><path fill-rule="evenodd" clip-rule="evenodd" d="M277.61 8.95017C277.57 9.15017 277.53 9.35018 277.48 9.54018C277.09 11.3402 276.71 13.1302 276.33 14.9302C276.3 15.0502 276.27 15.0802 276.14 15.0802H274.7C274.74 14.8902 274.78 14.7102 274.82 14.5302C275.22 12.6902 275.6 10.8602 276 9.02017C276 8.97017 276.03 8.93018 276.09 8.93018H277.55C277.55 8.93018 277.58 8.93018 277.6 8.93018L277.61 8.95017Z" fill="#152884"></path><path fill-rule="evenodd" clip-rule="evenodd" d="M267.89 8.93994H270.54C270.98 8.93994 271.26 9.16994 271.34 9.60994C271.56 10.7599 271.77 11.9099 272 13.0699C272 13.0699 272 13.0899 272.02 13.1199C272.05 13.0699 272.06 13.0299 272.07 12.9899C272.59 11.6899 273.1 10.3699 273.62 9.05994C273.66 8.96994 273.7 8.94994 273.78 8.94994H275.33C275.3 9.00994 275.29 9.05994 275.27 9.10994C274.45 11.0699 273.62 13.0299 272.8 15.0099C272.77 15.0799 272.74 15.1099 272.66 15.1099H271.18C271.1 15.1099 271.07 15.0799 271.05 15.0099C270.64 13.3899 270.21 11.7699 269.8 10.1499C269.74 9.90994 269.6 9.73994 269.38 9.62994C268.92 9.40994 268.44 9.26994 267.95 9.14994C267.92 9.14994 267.91 9.14994 267.87 9.12994C267.87 9.09994 267.87 9.06994 267.89 9.03994C267.89 9.00994 267.89 8.98994 267.91 8.94994L267.89 8.93994Z" fill="#152884"></path><path d="M249.3 1.2002H220.5C218.97 1.2002 217.8 2.3702 217.8 3.9002V20.1002C217.8 21.6302 219.06 22.8002 220.5 22.8002H249.3C250.83 22.8002 252 21.6302 252 20.1002V3.9002C252 2.3702 250.74 1.2002 249.3 1.2002Z" fill="#D0D0D0"></path><path d="M249.58 1.72021C250.59 1.72021 251.41 2.57021 251.41 3.59021V20.4302C251.41 21.4602 250.59 22.3002 249.58 22.3002H220.38C219.37 22.3002 218.55 21.4502 218.55 20.4302V3.59021C218.55 2.56021 219.37 1.72021 220.38 1.72021H249.58Z" fill="#F5F5F5"></path><path d="M231.97 15.7903V9.60027C231.97 8.46027 232.92 7.54028 234.11 7.54028H236.01C237.19 7.54028 238.14 8.47027 238.14 9.60027V10.9103C238.14 12.0503 237.19 12.9703 236 12.9703H233.32M238.67 7.53027H239.49C239.98 7.53027 240.37 7.91027 240.37 8.38027V13.0103" stroke="#939598" stroke-linecap="round" stroke-linejoin="round"></path><path d="M240.19 6.81014L239.82 6.45014C239.73 6.36014 239.73 6.22014 239.82 6.13014L240.19 5.77014C240.28 5.68014 240.43 5.68014 240.52 5.77014L240.89 6.13014C240.98 6.22014 240.98 6.36014 240.89 6.45014L240.52 6.81014C240.43 6.90014 240.28 6.90014 240.19 6.81014Z" fill="#32BCAD"></path><path d="M241.95 7.53027H242.77C243.19 7.53027 243.59 7.69028 243.89 7.98028L245.8 9.82027C246.04 10.0503 246.45 10.0503 246.69 9.82027L248.59 7.98028C248.89 7.69028 249.29 7.53027 249.71 7.53027H250.38M241.95 12.9603H242.77C243.19 12.9603 243.59 12.8003 243.89 12.5103L245.8 10.6703C246.04 10.4403 246.45 10.4403 246.69 10.6703L248.59 12.5103C248.89 12.8003 249.29 12.9603 249.71 12.9603H250.38" stroke="#939598" stroke-width="0.75" stroke-linecap="round" stroke-linejoin="round"></path><path d="M227.11 14.1402C226.71 14.1402 226.32 13.9902 226.03 13.7102L224.46 12.2002C224.34 12.0902 224.16 12.0902 224.05 12.2002L222.48 13.7102C222.19 13.9902 221.8 14.1402 221.4 14.1402H221.09L223.07 16.0502C223.7 16.6402 224.68 16.6402 225.31 16.0502L227.3 14.1302H227.1L227.11 14.1402ZM221.39 8.79023C221.79 8.79023 222.18 8.94023 222.47 9.22023L224.04 10.7302C224.16 10.8402 224.34 10.8402 224.45 10.7302L226.02 9.22023C226.31 8.94023 226.69 8.79023 227.1 8.79023H227.29L225.3 6.87023C224.67 6.28023 223.69 6.28023 223.06 6.87023L221.08 8.78023H221.39V8.79023Z" fill="#32BCAD"></path><path d="M228.94 10.39L227.73 9.22998C227.73 9.22998 227.68 9.24998 227.64 9.24998H227.09C226.8 9.24998 226.53 9.35997 226.33 9.55997L224.76 11.07C224.62 11.21 224.43 11.29 224.23 11.29C224.03 11.29 223.84 11.22 223.7 11.07L222.13 9.55997C221.93 9.36997 221.65 9.24998 221.37 9.24998H220.7C220.7 9.24998 220.65 9.24998 220.62 9.22998L219.41 10.39C218.82 10.96 218.79 11.9 219.36 12.5C219.38 12.52 219.4 12.54 219.41 12.55L220.62 13.71C220.62 13.71 220.67 13.69 220.7 13.69H221.37C221.66 13.69 221.93 13.58 222.13 13.38L223.7 11.87C224 11.6 224.47 11.6 224.76 11.87L226.33 13.38C226.53 13.57 226.81 13.69 227.09 13.69H227.64C227.64 13.69 227.7 13.69 227.73 13.71L228.94 12.55C229.53 11.98 229.56 11.04 228.99 10.44C228.97 10.42 228.95 10.4 228.94 10.39Z" fill="#32BCAD"></path><path d="M233.6 15.26C233.51 15.26 233.41 15.28 233.3 15.31V15.69C233.37 15.72 233.45 15.73 233.53 15.73C233.73 15.73 233.82 15.67 233.82 15.5C233.82 15.35 233.75 15.27 233.6 15.27M233.24 15.96V15.21H233.29V15.25C233.39 15.23 233.51 15.2 233.61 15.2C233.68 15.2 233.75 15.2 233.81 15.25C233.88 15.3 233.9 15.39 233.9 15.48C233.9 15.57 233.86 15.67 233.77 15.72C233.7 15.76 233.62 15.77 233.55 15.77C233.47 15.77 233.39 15.77 233.32 15.73V15.95H233.25L233.24 15.96ZM234.39 15.26C234.19 15.26 234.1 15.32 234.1 15.49C234.1 15.66 234.19 15.72 234.39 15.72C234.59 15.72 234.67 15.66 234.67 15.5C234.67 15.34 234.58 15.27 234.39 15.27M234.64 15.72C234.57 15.77 234.48 15.78 234.39 15.78C234.3 15.78 234.21 15.76 234.14 15.72C234.07 15.67 234.04 15.59 234.04 15.49C234.04 15.39 234.07 15.31 234.14 15.26C234.22 15.21 234.3 15.2 234.39 15.21C234.49 15.21 234.58 15.23 234.64 15.26C234.71 15.31 234.74 15.4 234.74 15.49C234.74 15.58 234.71 15.67 234.64 15.72ZM235.57 15.76L235.35 15.31L235.13 15.76H235.07L234.84 15.21H234.91L235.11 15.67L235.32 15.21H235.38L235.6 15.67L235.79 15.21H235.86L235.63 15.76H235.57ZM236.29 15.26C236.11 15.26 236.05 15.34 236.04 15.45H236.55C236.55 15.32 236.48 15.26 236.3 15.26M236.29 15.78C236.18 15.78 236.11 15.76 236.06 15.72C236 15.67 235.97 15.58 235.97 15.5C235.97 15.42 236 15.32 236.08 15.27C236.14 15.23 236.22 15.21 236.3 15.22C236.38 15.22 236.45 15.24 236.53 15.27C236.61 15.32 236.63 15.41 236.63 15.52H236.05C236.05 15.63 236.09 15.73 236.31 15.73C236.41 15.73 236.51 15.71 236.61 15.7V15.75C236.52 15.77 236.41 15.79 236.31 15.79M236.8 15.76V15.21H236.85V15.25C236.98 15.22 237.03 15.2 237.14 15.2V15.26H237.12C237.03 15.26 236.98 15.26 236.85 15.31V15.77H236.79L236.8 15.76ZM237.54 15.26C237.36 15.26 237.3 15.34 237.29 15.45H237.8C237.8 15.32 237.73 15.26 237.55 15.26M237.54 15.78C237.43 15.78 237.36 15.76 237.31 15.72C237.25 15.67 237.22 15.58 237.22 15.5C237.22 15.42 237.25 15.32 237.33 15.27C237.39 15.23 237.47 15.21 237.56 15.22C237.63 15.22 237.71 15.22 237.78 15.27C237.86 15.32 237.88 15.41 237.88 15.52H237.3C237.3 15.64 237.34 15.73 237.56 15.73C237.66 15.73 237.76 15.71 237.85 15.7V15.75C237.76 15.77 237.65 15.79 237.55 15.79M238.58 15.29C238.51 15.26 238.43 15.25 238.35 15.25C238.15 15.25 238.06 15.31 238.06 15.48C238.06 15.64 238.13 15.7 238.28 15.7C238.37 15.7 238.47 15.68 238.58 15.65V15.27V15.29ZM238.6 15.76V15.72C238.5 15.74 238.37 15.77 238.28 15.77C238.21 15.77 238.14 15.75 238.08 15.72C238.01 15.67 237.99 15.58 237.99 15.49C237.99 15.4 238.03 15.3 238.12 15.25C238.19 15.21 238.27 15.2 238.35 15.2C238.43 15.2 238.51 15.2 238.58 15.24V14.99H238.64V15.76H238.59V15.78L238.6 15.76ZM239.62 15.26C239.53 15.26 239.43 15.28 239.32 15.31V15.69C239.39 15.72 239.47 15.73 239.55 15.73C239.75 15.73 239.84 15.67 239.84 15.5C239.84 15.35 239.77 15.27 239.61 15.27M239.79 15.72C239.72 15.76 239.64 15.77 239.57 15.77C239.48 15.77 239.4 15.75 239.32 15.72V15.75H239.28V14.98H239.34V15.24C239.43 15.22 239.56 15.19 239.64 15.19C239.71 15.19 239.78 15.21 239.84 15.24C239.91 15.29 239.93 15.38 239.93 15.47C239.93 15.56 239.89 15.66 239.8 15.71M240 15.97V15.91H240.08C240.16 15.91 240.21 15.89 240.26 15.8L240.28 15.75L239.98 15.2H240.05L240.3 15.67L240.54 15.2H240.61L240.29 15.81C240.23 15.92 240.17 15.96 240.06 15.96H239.98M241.55 15.45H241.32V15.64H241.55C241.7 15.64 241.76 15.62 241.76 15.54C241.76 15.45 241.68 15.45 241.55 15.45ZM241.52 15.14H241.34V15.34H241.52C241.67 15.34 241.73 15.32 241.73 15.24C241.73 15.15 241.66 15.14 241.52 15.14ZM241.86 15.71C241.78 15.76 241.68 15.76 241.5 15.76H241.17V15.02H241.49C241.64 15.02 241.74 15.02 241.81 15.07C241.86 15.11 241.89 15.15 241.89 15.21C241.89 15.29 241.85 15.34 241.77 15.37C241.87 15.4 241.93 15.44 241.93 15.55C241.93 15.62 241.9 15.67 241.85 15.7M242.6 15.53C242.53 15.53 242.47 15.53 242.39 15.53C242.27 15.53 242.24 15.55 242.24 15.6C242.24 15.65 242.28 15.67 242.37 15.67C242.44 15.67 242.53 15.65 242.6 15.63V15.52V15.53ZM242.64 15.76V15.72C242.53 15.75 242.43 15.77 242.32 15.77C242.26 15.77 242.2 15.77 242.15 15.72C242.11 15.69 242.09 15.65 242.09 15.58C242.09 15.51 242.13 15.45 242.18 15.44C242.25 15.41 242.32 15.4 242.4 15.41H242.61C242.61 15.31 242.55 15.28 242.39 15.28C242.33 15.28 242.26 15.28 242.18 15.28V15.17C242.26 15.17 242.34 15.17 242.42 15.17C242.52 15.17 242.62 15.17 242.68 15.22C242.74 15.27 242.76 15.33 242.76 15.41V15.73H242.63L242.64 15.76ZM243.5 15.76V15.45C243.5 15.35 243.45 15.31 243.36 15.31C243.29 15.31 243.21 15.33 243.13 15.35V15.75H242.98V15.2H243.11V15.24C243.22 15.21 243.32 15.19 243.42 15.19C243.49 15.19 243.56 15.19 243.62 15.24C243.66 15.28 243.68 15.33 243.68 15.41V15.74H243.52L243.5 15.76ZM244.11 15.78C244.04 15.78 243.96 15.78 243.9 15.73C243.83 15.68 243.81 15.59 243.81 15.5C243.81 15.41 243.84 15.32 243.93 15.27C244 15.22 244.09 15.21 244.18 15.22C244.24 15.22 244.31 15.22 244.38 15.22V15.34C244.32 15.34 244.26 15.34 244.2 15.34C244.05 15.34 243.97 15.39 243.97 15.51C243.97 15.63 244.02 15.68 244.15 15.68C244.22 15.68 244.3 15.68 244.38 15.65V15.76C244.29 15.78 244.19 15.8 244.1 15.8M244.85 15.31C244.7 15.31 244.63 15.36 244.63 15.48C244.63 15.6 244.69 15.66 244.85 15.66C245.01 15.66 245.07 15.61 245.07 15.49C245.07 15.37 245.01 15.31 244.85 15.31ZM245.12 15.72C245.04 15.77 244.94 15.78 244.85 15.77C244.73 15.77 244.64 15.77 244.58 15.72C244.5 15.67 244.47 15.58 244.47 15.49C244.47 15.4 244.5 15.31 244.58 15.26C244.65 15.21 244.74 15.21 244.85 15.21C244.96 15.21 245.05 15.21 245.12 15.26C245.2 15.31 245.23 15.4 245.23 15.49C245.23 15.58 245.2 15.67 245.12 15.72ZM246.14 15.78C246.04 15.78 245.94 15.76 245.86 15.7C245.77 15.63 245.74 15.51 245.74 15.39C245.74 15.26 245.79 15.15 245.89 15.08C245.99 15.03 246.11 15 246.21 15.01C246.29 15.01 246.38 15.01 246.48 15.01V15.15C246.39 15.15 246.31 15.15 246.22 15.15C246 15.15 245.9 15.23 245.9 15.4C245.9 15.57 245.99 15.65 246.15 15.65C246.26 15.65 246.38 15.63 246.49 15.6V15.74C246.37 15.76 246.25 15.79 246.12 15.79M246.98 15.29C246.85 15.29 246.8 15.34 246.79 15.42H247.17C247.17 15.33 247.12 15.29 246.98 15.29ZM246.95 15.78C246.86 15.78 246.77 15.78 246.71 15.72C246.64 15.67 246.62 15.58 246.62 15.5C246.62 15.42 246.65 15.32 246.73 15.27C246.8 15.22 246.89 15.21 246.98 15.22C247.06 15.22 247.15 15.24 247.22 15.27C247.31 15.33 247.32 15.43 247.32 15.54H246.78C246.78 15.62 246.82 15.68 246.99 15.68C247.09 15.68 247.2 15.68 247.3 15.65V15.76C247.19 15.78 247.08 15.8 246.96 15.8M248.02 15.76V15.45C248.02 15.35 247.97 15.31 247.88 15.31C247.81 15.31 247.73 15.33 247.65 15.35V15.75H247.49V15.2H247.62V15.24C247.73 15.21 247.83 15.19 247.93 15.19C248 15.19 248.07 15.19 248.13 15.24C248.17 15.28 248.19 15.33 248.19 15.41V15.74H248.04L248.02 15.76ZM248.63 15.78C248.56 15.78 248.49 15.76 248.45 15.7C248.42 15.65 248.41 15.59 248.41 15.54V15.33H248.29V15.21H248.41L248.43 15.05H248.56V15.21H248.78V15.33H248.56V15.5C248.56 15.5 248.56 15.58 248.58 15.61C248.6 15.65 248.63 15.66 248.68 15.66C248.72 15.66 248.75 15.66 248.8 15.66V15.77C248.75 15.77 248.69 15.79 248.64 15.79M248.94 15.76V15.21H249.07V15.25C249.18 15.22 249.26 15.2 249.36 15.2H249.38V15.34H249.33C249.25 15.34 249.2 15.34 249.11 15.37V15.77H248.96L248.94 15.76ZM249.95 15.53C249.88 15.53 249.82 15.53 249.74 15.53C249.62 15.53 249.59 15.55 249.59 15.6C249.59 15.65 249.63 15.67 249.72 15.67C249.79 15.67 249.88 15.65 249.95 15.63V15.52V15.53ZM249.98 15.76V15.72C249.87 15.75 249.77 15.77 249.66 15.77C249.6 15.77 249.54 15.77 249.49 15.72C249.45 15.69 249.43 15.65 249.43 15.58C249.43 15.51 249.47 15.45 249.53 15.44C249.6 15.41 249.67 15.4 249.75 15.41H249.96C249.96 15.31 249.91 15.28 249.74 15.28C249.68 15.28 249.61 15.28 249.53 15.28V15.17C249.61 15.17 249.69 15.17 249.77 15.17C249.87 15.17 249.97 15.17 250.03 15.22C250.09 15.27 250.11 15.33 250.11 15.41V15.73H249.98V15.76ZM250.32 14.99H250.48V15.76H250.32V14.99Z" fill="#939598"></path><path fill-rule="evenodd" clip-rule="evenodd" d="M34.56 20.64C34.56 22.22 33.26 23.52 31.68 23.52H2.88C1.3 23.52 0 22.22 0 20.64V3.35998C0 1.77998 1.3 0.47998 2.88 0.47998H31.68C33.26 0.47998 34.56 1.77998 34.56 3.35998V20.64Z" fill="#129AD7"></path><path d="M9.43016 10.6898L10.1102 12.2598H8.69016L9.43016 10.6898ZM22.0102 13.1698H19.6302V12.3198H22.0102V11.5498H19.6302V10.8498H22.0102V10.1898L23.7702 11.9498L22.0102 13.7198V13.1698ZM24.4702 11.3098L23.3002 10.0498H18.6202V13.9398H23.1502L24.4402 12.6598L25.7302 13.9398H26.9402L25.1002 11.9798L27.0002 10.0598H25.7402L24.4902 11.3198L24.4702 11.3098ZM17.7302 10.0498H16.1002L14.8802 12.6498L13.5602 10.0498H11.9302V13.8198L10.2502 10.0498H8.72016L6.92016 13.9398H8.03016L8.40016 13.0598H10.5002L10.9202 13.9398H12.9402V10.7798L14.3802 13.9398H15.3302L16.7602 10.8398V13.9398H17.7602V10.0498H17.7402H17.7302ZM9.07016 13.8598L8.70016 14.7098H5.41016L8.00016 9.25977H14.2002L14.8302 10.4698L15.4102 9.25977H23.7702L24.4802 10.0098L25.2502 9.25977H29.1302L26.3802 11.9798L29.0202 14.7098H25.2702L24.4302 13.9098L23.5902 14.7098H10.1802L9.78016 13.8598H9.07016Z" fill="white"></path><path fill-rule="evenodd" clip-rule="evenodd" d="M78.1201 20.64C78.1201 22.22 76.8201 23.52 75.2401 23.52H46.4401C44.8601 23.52 43.5601 22.22 43.5601 20.64V3.35998C43.5601 1.77998 44.8601 0.47998 46.4401 0.47998H75.2401C76.8201 0.47998 78.1201 1.77998 78.1201 3.35998V20.64Z" fill="#F5F5F5"></path><path d="M75.2401 0.47998H46.4401C44.8601 0.47998 43.5601 1.77998 43.5601 3.35998V20.64C43.5601 22.22 44.8601 23.52 46.4401 23.52H75.2401C76.8201 23.52 78.1201 22.22 78.1201 20.64V3.35998C78.1201 1.77998 76.8201 0.47998 75.2401 0.47998ZM75.2401 1.04998C76.5101 1.04998 77.5401 2.08998 77.5401 3.34998V20.63C77.5401 21.9 76.5001 22.93 75.2401 22.93H46.4401C45.1701 22.93 44.1401 21.89 44.1401 20.63V3.34998C44.1401 2.07998 45.1801 1.04998 46.4401 1.04998H75.2401Z" fill="#D0D0D0"></path><path d="M64.3602 12C64.3802 9.40996 62.2802 7.18997 59.5802 7.15997C56.8802 7.12997 54.6702 9.26996 54.6702 11.99C54.6702 14.71 56.8502 16.8 59.4602 16.83C62.2102 16.86 64.3602 14.62 64.3502 12H64.3602ZM59.6402 17.27C59.6402 17.27 59.1502 17.24 59.1202 17.24C58.7102 17.22 58.3002 17.14 57.9102 17.01C56.9402 16.7 56.1202 16.16 55.4502 15.39C54.7702 14.59 54.3502 13.67 54.2402 12.63C54.2202 12.51 54.2102 12.4 54.2002 12.28V11.77C54.2002 11.77 54.2202 11.7 54.2302 11.66C54.2602 11.43 54.2702 11.19 54.3202 10.97C54.5002 9.95996 54.9402 9.06996 55.6502 8.32996C56.5402 7.40996 57.6302 6.89996 58.9002 6.75996C59.0202 6.75996 59.5602 6.72996 59.6702 6.70996C60.6802 6.70996 62.3502 6.72996 62.4002 6.73996C62.5502 6.75996 62.7102 6.76996 62.8702 6.78996C63.9702 6.95996 64.9402 7.38996 65.7702 8.13996C67.0302 9.27996 67.6102 10.71 67.5002 12.41C67.4602 13 67.3102 13.57 67.0402 14.09C66.1102 15.9 64.6302 16.93 62.6202 17.21C62.5102 17.23 60.6802 17.26 59.6702 17.26L59.6402 17.27Z" fill="#074C95"></path><path fill-rule="evenodd" clip-rule="evenodd" d="M60.6299 14.8199V9.18994C61.4699 9.45994 62.4899 10.4199 62.5699 11.8599C62.6299 13.3599 61.6299 14.4699 60.6299 14.8199Z" fill="#074C95"></path><path fill-rule="evenodd" clip-rule="evenodd" d="M58.4103 14.8199C57.4903 14.4999 56.3903 13.4299 56.4803 11.8099C56.5503 10.4699 57.5003 9.47992 58.4103 9.16992V14.8099V14.8199Z" fill="#074C95"></path><path fill-rule="evenodd" clip-rule="evenodd" d="M121.68 20.64C121.68 22.22 120.38 23.52 118.8 23.52H90.0001C88.4201 23.52 87.1201 22.22 87.1201 20.64V3.35998C87.1201 1.77998 88.4201 0.47998 90.0001 0.47998H118.8C120.38 0.47998 121.68 1.77998 121.68 3.35998V20.64Z" fill="black"></path><path d="M111.38 13.1698C111.19 14.0798 110.39 14.7698 109.42 14.7698C109.2 14.7698 108.99 14.7298 108.78 14.6698L108.34 15.9898C108.69 16.1098 109.05 16.1699 109.42 16.1599C111.07 16.1599 112.43 14.9898 112.75 13.4398L111.38 13.1599V13.1698ZM107.17 15.3098L108.1 14.2698C107.69 13.8998 107.42 13.3698 107.42 12.7798C107.42 12.1898 107.68 11.6498 108.1 11.2898L107.17 10.2498C106.47 10.8698 106.03 11.7799 106.03 12.7999C106.03 13.8199 106.47 14.7298 107.17 15.3498V15.3298V15.3098ZM108.78 10.8699C108.98 10.8099 109.19 10.7698 109.41 10.7698C110.37 10.7698 111.18 11.4499 111.37 12.3699L112.74 12.0898C112.43 10.5398 111.06 9.36985 109.41 9.36985C109.04 9.36985 108.68 9.42985 108.33 9.53985L108.77 10.8598L108.78 10.8699ZM104.68 7.83984V14.3998L105.81 14.8699L105.27 16.1698L104.15 15.6998C103.9 15.5898 103.73 15.4199 103.59 15.2299C103.46 15.0299 103.37 14.7698 103.37 14.4198V7.83984H104.67H104.68ZM99.5003 9.36985C97.6303 9.33985 96.0803 10.8398 96.0503 12.7198C96.0503 13.4198 96.2403 14.0798 96.6003 14.6298L102.76 11.9998C102.42 10.5098 101.1 9.39984 99.5003 9.37984V9.36985ZM97.4603 12.9799C97.4603 12.8999 97.4403 12.8198 97.4603 12.7398C97.4803 11.6298 98.3903 10.7498 99.4903 10.7698C100.09 10.7698 100.62 11.0599 100.98 11.4799L97.4603 12.9799ZM100.85 14.1898C100.48 14.5498 99.9803 14.7698 99.4203 14.7698C99.0403 14.7698 98.6803 14.6498 98.3803 14.4598L97.6303 15.6498C98.1503 15.9798 98.7603 16.1598 99.3803 16.1698C100.33 16.1898 101.18 15.8098 101.8 15.2098L100.83 14.2098V14.1898H100.85Z" fill="white"></path><path fill-rule="evenodd" clip-rule="evenodd" d="M165.24 20.64C165.24 22.22 163.94 23.52 162.36 23.52H133.56C131.98 23.52 130.68 22.22 130.68 20.64V3.35998C130.68 1.77998 131.98 0.47998 133.56 0.47998H162.36C163.94 0.47998 165.24 1.77998 165.24 3.35998V20.64Z" fill="#BE232C"></path><path d="M140.02 10.2401H140.12L140.2 10.2101L140.28 10.1801L140.35 10.1101L140.42 10.0401L140.46 9.94012L140.5 9.84011V9.55012L140.46 9.50011L140.42 9.45011L140.37 9.41012L140.32 9.37012H140.07L139.99 9.41012L139.91 9.45011L139.86 9.50011L139.81 9.55012L139.77 9.64011L139.73 9.73012V9.87012L139.71 10.0101L139.75 10.0801L139.79 10.1501L139.86 10.1901L139.93 10.2201H140.03H140.01L140.02 10.2401ZM155.98 14.2701H156.34V14.0501L156.39 13.7801C156.42 13.6301 156.45 13.3901 156.47 13.2501C156.5 13.1101 156.52 12.9401 156.53 12.8501C156.53 12.7701 156.58 12.6101 156.6 12.4801C156.63 12.3501 156.66 12.2201 156.67 12.1701C156.69 12.1201 156.7 12.0901 156.7 12.0701C156.7 12.0701 156.73 11.9801 156.77 11.9101L156.84 11.7701L156.93 11.6501L157.02 11.5301L157.12 11.4601C157.17 11.4201 157.26 11.3701 157.31 11.3401L157.4 11.2901H157.81L157.89 11.3201L157.97 11.3501H157.99L158.01 11.3301V11.2801C158.01 11.2801 158.03 11.1401 158.05 11.0401L158.09 10.8501L158.04 10.8301C158.04 10.8301 157.96 10.8001 157.91 10.7801L157.83 10.7501H157.52L157.4 10.8001L157.28 10.8501L157.19 10.9001L157.1 10.9501L156.98 11.0801L156.86 11.2101L156.8 11.3101C156.76 11.3601 156.74 11.4001 156.73 11.4001C156.73 11.4001 156.75 11.2801 156.78 11.1601C156.81 11.0201 156.83 10.9101 156.83 10.8801V10.8401H156.22C156.22 10.8401 156.2 10.9701 156.18 11.0801C156.16 11.2101 156.13 11.4401 156.1 11.6101C156.07 11.7801 156.03 12.0501 156 12.2101C155.97 12.3701 155.93 12.6101 155.91 12.7301C155.89 12.8501 155.85 13.0701 155.82 13.2101C155.79 13.3501 155.75 13.5801 155.72 13.7101C155.69 13.8501 155.66 14.0201 155.64 14.1101L155.61 14.2601H155.97L155.98 14.2701ZM147.62 14.2701H147.97V14.1201C147.99 14.0401 148.01 13.8801 148.02 13.7501C148.04 13.6301 148.07 13.3901 148.1 13.2201C148.13 13.0501 148.18 12.7601 148.22 12.5801C148.26 12.4001 148.29 12.2301 148.31 12.1801C148.31 12.1401 148.34 12.1001 148.34 12.0901C148.34 12.0801 148.37 12.0101 148.4 11.9401C148.44 11.8701 148.49 11.7601 148.53 11.7001L148.6 11.5901L148.7 11.5001L148.8 11.4101L148.93 11.3501L149.06 11.2901H149.44L149.53 11.3201C149.58 11.3401 149.63 11.3501 149.63 11.3501C149.63 11.3501 149.63 11.3301 149.63 11.3101C149.63 11.2901 149.65 11.1801 149.68 11.0701C149.71 10.9601 149.73 10.8601 149.73 10.8501C149.73 10.8401 149.68 10.8201 149.61 10.8001C149.55 10.7801 149.46 10.7501 149.41 10.7501H149.22C149.16 10.7501 149.08 10.7901 149.02 10.8001C148.97 10.8201 148.89 10.8501 148.84 10.8901C148.79 10.9301 148.71 10.9801 148.67 11.0301C148.63 11.0801 148.55 11.1701 148.51 11.2301C148.47 11.2901 148.41 11.3601 148.4 11.3801L148.37 11.4201L148.39 11.3601C148.39 11.3601 148.42 11.2101 148.44 11.1001C148.46 10.9901 148.48 10.8901 148.49 10.8801V10.8501H147.87V10.8901C147.87 10.8901 147.85 11.0401 147.82 11.1901C147.8 11.3301 147.76 11.5601 147.74 11.7001C147.71 11.8401 147.68 12.1001 147.65 12.2601C147.62 12.4201 147.58 12.6601 147.56 12.7801C147.53 12.9101 147.5 13.1201 147.47 13.2601C147.44 13.4001 147.4 13.6301 147.37 13.7701C147.34 13.9101 147.31 14.0801 147.3 14.1401C147.3 14.2001 147.27 14.2601 147.27 14.2701V14.2901H147.62V14.2701ZM139.32 14.2701H139.67V14.2401C139.67 14.2401 139.69 14.1901 139.69 14.1601C139.69 14.1301 139.71 13.9601 139.74 13.7901C139.77 13.6201 139.81 13.3501 139.84 13.1801C139.87 13.0101 139.91 12.7701 139.93 12.6401C139.95 12.5001 139.99 12.2901 140.02 12.1501C140.05 12.0101 140.08 11.8001 140.11 11.6801C140.14 11.5601 140.18 11.3301 140.21 11.1601C140.25 11.0001 140.27 10.8501 140.27 10.8501V10.8301H139.56L139.53 11.0501C139.51 11.1701 139.48 11.4001 139.45 11.5701C139.42 11.7401 139.38 11.9901 139.36 12.1401C139.33 12.2801 139.3 12.5201 139.27 12.6601C139.24 12.8001 139.21 13.0201 139.18 13.1401C139.15 13.2701 139.12 13.4801 139.09 13.6201C139.06 13.7601 139.03 13.9401 139.01 14.0301C138.99 14.1201 138.97 14.2001 138.96 14.2301V14.2701H139.31H139.32ZM134.88 14.2701H135.28L135.31 14.0901C135.33 13.9901 135.36 13.8001 135.38 13.6801C135.4 13.5401 135.44 13.3001 135.47 13.1401C135.5 12.9701 135.54 12.7301 135.56 12.5901C135.58 12.4501 135.62 12.2401 135.64 12.1201C135.66 11.9901 135.69 11.8901 135.69 11.8901H136.78H137.87V11.9201V12.0201C137.87 12.0701 137.82 12.2401 137.81 12.3801C137.78 12.5201 137.74 12.7701 137.71 12.9201C137.68 13.0701 137.64 13.2901 137.62 13.4101C137.6 13.5301 137.56 13.7601 137.52 13.9401C137.48 14.1201 137.47 14.2701 137.47 14.2801V14.3001H138.27L138.29 14.2001C138.29 14.1501 138.32 14.0401 138.33 13.9701C138.34 13.9001 138.37 13.7501 138.38 13.6501C138.39 13.5501 138.43 13.3301 138.46 13.1701C138.49 13.0101 138.53 12.7601 138.56 12.5801C138.59 12.4001 138.63 12.1701 138.65 12.0401C138.67 11.9001 138.71 11.6901 138.74 11.5401C138.77 11.3901 138.81 11.1601 138.84 11.0101C138.87 10.8601 138.91 10.6301 138.93 10.5101C138.96 10.3801 138.99 10.1501 139.02 10.0001C139.05 9.85011 139.08 9.67011 139.1 9.60011L139.13 9.48012H138.32V9.56011C138.32 9.56011 138.28 9.72012 138.27 9.83012C138.26 9.94012 138.22 10.1201 138.2 10.2401C138.18 10.3601 138.14 10.6001 138.11 10.7601C138.08 10.9201 138.05 11.1401 138.03 11.2401L138 11.4201H137.41L136.82 11.4501H136.32C136.04 11.4301 135.82 11.4201 135.82 11.4201C135.82 11.4201 135.82 11.3601 135.84 11.2801C135.86 11.2001 135.88 11.0701 135.89 10.9801C135.9 10.8901 135.94 10.7201 135.96 10.6001C135.99 10.4701 136.01 10.3201 136.01 10.2601C136.01 10.2001 136.04 10.0901 136.06 10.0301C136.08 9.97011 136.1 9.82012 136.11 9.72012C136.13 9.61012 136.15 9.52011 136.16 9.50011V9.47012H135.36L135.33 9.61012C135.31 9.69012 135.29 9.80012 135.28 9.86012C135.28 9.92012 135.24 10.1101 135.22 10.2801C135.2 10.4501 135.15 10.7101 135.13 10.8501C135.11 10.9901 135.07 11.2501 135.04 11.4201C135.01 11.5901 134.97 11.8601 134.94 12.0101C134.91 12.1601 134.87 12.3801 134.85 12.5001C134.83 12.6201 134.79 12.8201 134.76 12.9801C134.73 13.1401 134.69 13.3401 134.67 13.4501C134.65 13.5601 134.62 13.6801 134.62 13.7301C134.62 13.7801 134.58 13.9101 134.57 14.0201C134.54 14.1401 134.52 14.2401 134.52 14.2501V14.2801H134.92L134.88 14.2701ZM159.16 13.8801H158.95C158.95 13.8801 158.83 13.8501 158.79 13.8301L158.71 13.7901L158.65 13.7401L158.59 13.6901L158.54 13.5901L158.49 13.4901L158.46 13.3801L158.43 13.2701V12.8401L158.46 12.6501L158.49 12.4601L158.54 12.3201C158.56 12.2501 158.59 12.1801 158.59 12.1701C158.59 12.1601 158.61 12.1001 158.64 12.0301C158.67 11.9701 158.71 11.8801 158.74 11.8201C158.77 11.7701 158.82 11.6801 158.86 11.6301C158.9 11.5801 158.96 11.5001 159 11.4701C159.04 11.4401 159.11 11.3701 159.15 11.3501L159.22 11.3001L159.35 11.2501L159.48 11.2001H160.02L160.17 11.2501C160.26 11.2801 160.35 11.3001 160.38 11.3101L160.43 11.3301V11.3801C160.43 11.3801 160.39 11.5201 160.38 11.6201C160.36 11.7301 160.33 11.9301 160.3 12.0801C160.27 12.2301 160.24 12.4401 160.21 12.5701C160.18 12.7001 160.16 12.8501 160.14 12.9101C160.12 12.9801 160.09 13.0701 160.09 13.1201C160.09 13.1701 160.04 13.2501 160.02 13.3001C160 13.3501 159.95 13.4301 159.92 13.4701C159.89 13.5101 159.84 13.5701 159.81 13.6001C159.78 13.6301 159.71 13.6801 159.67 13.7101L159.58 13.7701L159.45 13.8201L159.32 13.8701H159.19H159.21L159.16 13.8801ZM158.88 14.3501H159.03L159.18 14.3301C159.26 14.3301 159.37 14.2901 159.41 14.2801C159.46 14.2801 159.54 14.2301 159.59 14.2101L159.69 14.1601L159.77 14.0901L159.85 14.0201L159.94 13.9001C159.99 13.8401 160.03 13.7601 160.04 13.7601V13.7301V13.8101C160.04 13.8101 160.02 13.9301 160.01 13.9701C160.01 14.0201 159.99 14.1101 159.98 14.1701V14.2801H160.62V14.0601L160.67 13.6401C160.7 13.4101 160.73 13.1001 160.76 12.9601C160.78 12.8201 160.81 12.6101 160.83 12.5001C160.85 12.3901 160.88 12.1901 160.91 12.0601C160.93 11.9201 160.97 11.7001 161 11.5501C161.03 11.4001 161.07 11.1601 161.1 11.0201C161.13 10.8801 161.16 10.6601 161.19 10.5301C161.22 10.4001 161.25 10.1801 161.28 10.0301C161.31 9.88011 161.35 9.68012 161.37 9.58012C161.39 9.47012 161.41 9.38011 161.41 9.38011H161.06H160.71V9.48012C160.69 9.53012 160.66 9.72011 160.64 9.89011C160.62 10.0601 160.57 10.3401 160.54 10.5001C160.51 10.6601 160.49 10.8201 160.49 10.8501V10.9001H160.45C160.45 10.9001 160.35 10.8601 160.27 10.8401L160.12 10.8001L159.9 10.7801L159.68 10.7601L159.5 10.7801L159.32 10.8001L159.16 10.8501L159 10.9001L158.85 10.9801L158.7 11.0601L158.58 11.1401L158.46 11.2201L158.36 11.3301C158.31 11.3901 158.23 11.4801 158.18 11.5501L158.1 11.6601L158.01 11.8501C157.96 11.9501 157.9 12.0801 157.88 12.1601C157.85 12.2201 157.82 12.3701 157.79 12.4701L157.74 12.6701L157.71 12.9201L157.68 13.1701L157.7 13.3801L157.72 13.5901L157.74 13.6601C157.74 13.6601 157.78 13.7801 157.79 13.8201L157.83 13.9101L157.89 14.0001L157.95 14.0901L158.02 14.1501L158.09 14.2101L158.19 14.2601C158.24 14.2901 158.33 14.3201 158.4 14.3401C158.45 14.3601 158.55 14.3801 158.61 14.3901C158.66 14.3901 158.78 14.4101 158.87 14.4101V14.3701L158.88 14.3501ZM153.51 13.8801H153.38L153.29 13.8601C153.29 13.8601 153.17 13.8201 153.13 13.8001L153.06 13.7601L153.01 13.7101C153.01 13.7101 152.96 13.6301 152.94 13.5901L152.9 13.5201V13.3601L152.88 13.2001L152.91 13.1001C152.93 13.0501 152.96 12.9601 152.99 12.8901L153.04 12.7801L153.14 12.6801L153.24 12.5801L153.35 12.5301L153.46 12.4801L153.59 12.4501L153.72 12.4201H154.57L154.6 12.4401L154.58 12.5701C154.58 12.6401 154.53 12.7701 154.52 12.8601C154.49 12.9501 154.46 13.0801 154.43 13.1401C154.4 13.2101 154.38 13.2701 154.38 13.2801C154.38 13.2801 154.35 13.3301 154.32 13.3901L154.26 13.4901L154.16 13.5901C154.11 13.6401 154.05 13.6901 154.05 13.6901C154.05 13.6901 154 13.7101 153.98 13.7401L153.92 13.7901L153.79 13.8401L153.66 13.8901H153.53V13.9101L153.51 13.8801ZM153.31 14.3401H153.53L153.67 14.2901L153.81 14.2501L153.9 14.2001C153.95 14.1701 154.03 14.1301 154.08 14.0901C154.13 14.0501 154.21 13.9901 154.25 13.9501C154.29 13.9101 154.36 13.8301 154.39 13.7801C154.42 13.7301 154.46 13.7001 154.46 13.7001C154.46 13.7001 154.46 13.7801 154.44 13.8701C154.44 13.9601 154.41 14.0801 154.41 14.1401V14.2401H155.02V14.0101L155.04 13.7801L155.09 13.4701C155.12 13.3001 155.15 13.0601 155.17 12.9201C155.19 12.7801 155.23 12.5501 155.26 12.4101C155.29 12.2701 155.32 12.0401 155.35 11.9101L155.4 11.6701V11.2601L155.35 11.1601L155.3 11.0601L155.24 11.0001L155.18 10.9401L155.07 10.8901L154.96 10.8401L154.81 10.8001L154.66 10.7601L154.44 10.7401L154.22 10.7201L153.94 10.7401C153.79 10.7401 153.58 10.7701 153.46 10.7901L153.26 10.8201H152.99L152.97 10.9201C152.97 10.9701 152.92 11.1001 152.91 11.2001C152.88 11.3001 152.86 11.3801 152.86 11.3901C152.86 11.4001 152.93 11.3901 153.02 11.3501C153.1 11.3201 153.29 11.2901 153.42 11.2701L153.66 11.2201H153.89L154.11 11.2001L154.25 11.2301L154.39 11.2601L154.49 11.3101L154.59 11.3601L154.64 11.4401L154.69 11.5201V11.7701L154.66 11.9101L154.63 12.0501H153.44L153.24 12.1001C153.13 12.1301 153.01 12.1701 152.98 12.1901C152.95 12.2101 152.91 12.2301 152.9 12.2301C152.89 12.2301 152.83 12.2701 152.76 12.3101L152.63 12.3901L152.53 12.4901C152.48 12.5401 152.4 12.6301 152.38 12.6701C152.35 12.7201 152.3 12.8101 152.27 12.8801L152.22 13.0101L152.19 13.1501L152.16 13.2901V13.6001L152.19 13.7301L152.22 13.8601L152.27 13.9401C152.27 13.9401 152.34 14.0501 152.37 14.0801L152.42 14.1401L152.52 14.2001L152.62 14.2601L152.74 14.3001C152.8 14.3201 152.89 14.3401 152.95 14.3501L153.05 14.3701H153.27H153.25L153.31 14.3401ZM150.59 14.3501H150.77L150.98 14.3301C151.1 14.3301 151.24 14.2901 151.31 14.2801C151.38 14.2701 151.5 14.2301 151.56 14.2201C151.62 14.2101 151.69 14.1701 151.7 14.1701C151.71 14.1701 151.73 14.0901 151.75 14.0101C151.77 13.9301 151.79 13.8101 151.8 13.7601C151.8 13.7101 151.82 13.6601 151.8 13.6501C151.8 13.6501 151.78 13.6501 151.77 13.6501C151.76 13.6501 151.68 13.7001 151.59 13.7201L151.43 13.7801L151.2 13.8301L150.98 13.8801H150.6L150.49 13.8301L150.38 13.7901L150.3 13.7201L150.22 13.6501L150.17 13.5501L150.12 13.4501L150.09 13.3101L150.06 13.1701V12.8201L150.1 12.6001L150.14 12.3801L150.18 12.2601C150.2 12.2001 150.22 12.1201 150.23 12.1001C150.23 12.0701 150.27 11.9901 150.29 11.9301C150.32 11.8601 150.37 11.7601 150.41 11.7001L150.47 11.5901L150.55 11.5101L150.63 11.4301L150.71 11.3801L150.79 11.3301L150.9 11.2901C150.96 11.2701 151.06 11.2401 151.13 11.2401L151.26 11.2201H151.44L151.62 11.2401L151.84 11.2901L152.06 11.3401L152.15 11.3801L152.24 11.4201C152.24 11.4201 152.26 11.3601 152.27 11.2801C152.28 11.2001 152.31 11.0801 152.32 11.0101C152.32 10.9401 152.34 10.8701 152.34 10.8701C152.34 10.8701 152.27 10.8501 152.2 10.8501C152.13 10.8501 151.92 10.8201 151.75 10.8101L151.43 10.7901L151.2 10.8101L150.97 10.8301L150.81 10.8701L150.65 10.9101L150.54 10.9601C150.49 10.9901 150.4 11.0201 150.35 11.0501C150.3 11.0801 150.24 11.1101 150.22 11.1301C150.2 11.1501 150.11 11.2201 150.05 11.2801L149.92 11.4101L149.85 11.5101C149.81 11.5601 149.74 11.6801 149.7 11.7701L149.62 11.9301L149.56 12.1001C149.52 12.2001 149.48 12.3501 149.46 12.4401L149.41 12.6101L149.39 12.7601L149.37 12.9101V13.3201L149.39 13.4401L149.41 13.5601L149.46 13.6901L149.51 13.8201L149.56 13.9101L149.61 14.0001L149.7 14.0901L149.79 14.1801L149.89 14.2301L149.99 14.2801L150.12 14.3201C150.19 14.3401 150.29 14.3701 150.35 14.3701C150.41 14.3701 150.53 14.3701 150.63 14.3701L150.6 14.3501H150.59ZM145.66 12.0301H144.83C144.83 12.0301 144.85 11.9701 144.88 11.9001C144.91 11.8301 144.94 11.7401 144.97 11.6801L145.02 11.5801L145.13 11.4701L145.24 11.3601L145.35 11.3101C145.41 11.2801 145.48 11.2501 145.52 11.2401C145.56 11.2401 145.66 11.2201 145.75 11.2101H146.04L146.17 11.2301L146.26 11.2801L146.35 11.3301L146.4 11.3801C146.4 11.3801 146.46 11.4501 146.47 11.4801L146.5 11.5301L146.52 11.6301L146.54 11.7301L146.52 11.8901L146.5 12.0501H145.67V12.0301H145.66ZM145.35 14.3501H145.53L145.71 14.3301C145.81 14.3301 145.97 14.3001 146.07 14.2801C146.17 14.2601 146.34 14.2301 146.46 14.2101L146.66 14.1601V14.0901C146.66 14.0901 146.7 13.9301 146.72 13.8201L146.76 13.6201V13.6001L146.7 13.6301C146.7 13.6301 146.57 13.6801 146.47 13.7201L146.3 13.7701L146.12 13.8101L145.94 13.8501H145.36L145.26 13.8101C145.21 13.7901 145.13 13.7601 145.08 13.7401L145 13.7001L144.94 13.6401L144.88 13.5801L144.83 13.4901L144.78 13.4001L144.74 13.2901L144.7 13.1801V12.7701L144.73 12.5901L144.76 12.4101H145.01L145.26 12.3801H147.1L147.13 12.2701C147.15 12.2101 147.17 12.0701 147.18 11.9701L147.21 11.7901V11.4801L147.18 11.3601L147.15 11.2401L147.1 11.1701C147.1 11.1701 147.04 11.0701 147.01 11.0301C146.98 10.9901 146.93 10.9601 146.9 10.9301C146.86 10.9001 146.8 10.8701 146.76 10.8501L146.68 10.8001L146.54 10.7601L146.4 10.7201L146.22 10.7001L146.04 10.6801H145.88L145.72 10.7001L145.52 10.7401L145.32 10.7801L145.19 10.8301C145.12 10.8601 145.02 10.9101 144.96 10.9401C144.9 10.9801 144.82 11.0301 144.78 11.0601C144.73 11.1001 144.67 11.1601 144.63 11.2001C144.59 11.2401 144.51 11.3301 144.48 11.3801C144.45 11.4301 144.39 11.5301 144.35 11.6001C144.31 11.6701 144.28 11.7501 144.26 11.8001C144.24 11.8501 144.21 11.9401 144.18 12.0101C144.15 12.0801 144.12 12.2101 144.1 12.3001C144.08 12.3901 144.05 12.5401 144.04 12.6301L144.01 12.8001V13.3001L144.04 13.4101C144.06 13.4701 144.08 13.5501 144.1 13.6101C144.12 13.6601 144.15 13.7401 144.17 13.7701C144.2 13.8201 144.24 13.8801 144.28 13.9101C144.32 13.9401 144.39 14.0101 144.43 14.0501C144.47 14.0901 144.56 14.1301 144.61 14.1601L144.71 14.2101L144.84 14.2501C144.91 14.2701 145.03 14.2901 145.09 14.3001C145.15 14.3001 145.29 14.3001 145.39 14.3001L145.37 14.3401L145.35 14.3501ZM141.92 13.9001H141.69L141.6 13.8801L141.51 13.8301L141.42 13.7801L141.36 13.7201L141.3 13.6601L141.26 13.5801C141.26 13.5801 141.21 13.4501 141.21 13.4101L141.19 13.3201V13.1801L141.21 13.0401L141.26 12.8201C141.29 12.6901 141.32 12.4701 141.35 12.3101C141.38 12.1501 141.42 11.9201 141.44 11.8001L141.49 11.5801L141.58 11.5001C141.63 11.4501 141.71 11.4001 141.76 11.3701L141.85 11.3201L141.97 11.2801L142.09 11.2401H142.24L142.39 11.2201L142.51 11.2501L142.63 11.2801L142.71 11.3201L142.79 11.3601L142.86 11.4301L142.93 11.5001L142.97 11.5701C142.97 11.5701 143.02 11.7001 143.03 11.7501L143.06 11.8601V12.1701L143.04 12.4801L142.99 12.6701C142.96 12.7701 142.93 12.9301 142.89 13.0101L142.84 13.1701L142.77 13.3001C142.73 13.3701 142.67 13.4701 142.64 13.5201C142.6 13.5701 142.55 13.6301 142.52 13.6601C142.48 13.6901 142.44 13.7301 142.4 13.7501L142.34 13.8001L142.2 13.8501L142.06 13.9001H141.93V13.9401L141.92 13.9001ZM140.39 15.8101H140.74V15.7801C140.74 15.7801 140.76 15.7301 140.76 15.7101C140.76 15.6901 140.76 15.5801 140.79 15.4901C140.82 15.4001 140.84 15.1801 140.86 15.0101C140.88 14.8401 140.92 14.5901 140.95 14.4501C140.97 14.3101 141 14.1301 141.01 14.0501C141.01 13.9701 141.04 13.9101 141.04 13.9101C141.04 13.9101 141.07 13.9501 141.09 13.9901L141.14 14.0701L141.23 14.1601L141.32 14.2501L141.43 14.3001L141.54 14.3501L141.67 14.3701L141.8 14.3901H141.97L142.14 14.3701L142.32 14.3201L142.5 14.2701L142.6 14.2201C142.65 14.1901 142.75 14.1401 142.82 14.1001L142.94 14.0301L143.05 13.9201C143.11 13.8601 143.19 13.7701 143.24 13.7101C143.29 13.6601 143.32 13.6001 143.32 13.6001C143.32 13.6001 143.34 13.5601 143.37 13.5201C143.4 13.4801 143.45 13.3801 143.49 13.2901C143.53 13.2001 143.59 13.0401 143.62 12.9301L143.68 12.7301L143.72 12.5601C143.74 12.4701 143.77 12.3101 143.77 12.2201L143.79 12.0501V11.9001L143.77 11.7501L143.73 11.6001L143.69 11.4501L143.64 11.3401L143.59 11.2301L143.48 11.1101L143.37 10.9901L143.24 10.9301L143.11 10.8701L142.97 10.8301L142.83 10.7901H142.69L142.55 10.7701L142.4 10.7901L142.25 10.8101L142.12 10.8501L141.99 10.8901L141.88 10.9401C141.82 10.9701 141.73 11.0101 141.68 11.0501C141.63 11.0901 141.58 11.1101 141.57 11.1301C141.57 11.1301 141.52 11.1701 141.51 11.1801L141.46 11.2101L141.49 11.0701C141.51 10.9901 141.52 10.9201 141.52 10.9101V10.8901H140.91L140.86 11.2201C140.83 11.4001 140.79 11.6901 140.76 11.8501C140.73 12.0101 140.69 12.2501 140.67 12.3901C140.64 12.5301 140.61 12.7701 140.58 12.9301C140.55 13.0901 140.51 13.3401 140.48 13.4901C140.45 13.6401 140.41 13.8601 140.39 13.9801C140.37 14.1001 140.33 14.3201 140.3 14.4801C140.27 14.6301 140.23 14.8801 140.2 15.0201C140.17 15.1601 140.13 15.4001 140.1 15.5301C140.07 15.6601 140.05 15.7901 140.05 15.8201V15.8601H140.4V15.8201L140.39 15.8101Z" fill="white"></path><path fill-rule="evenodd" clip-rule="evenodd" d="M208.8 20.64C208.8 22.22 207.5 23.52 205.92 23.52H177.12C175.54 23.52 174.24 22.22 174.24 20.64V3.35998C174.24 1.77998 175.54 0.47998 177.12 0.47998H205.92C207.5 0.47998 208.8 1.77998 208.8 3.35998V20.64Z" fill="#F5F5F5"></path><path d="M205.92 0.47998H177.12C175.54 0.47998 174.24 1.77998 174.24 3.35998V20.64C174.24 22.22 175.54 23.52 177.12 23.52H205.92C207.5 23.52 208.8 22.22 208.8 20.64V3.35998C208.8 1.77998 207.5 0.47998 205.92 0.47998ZM205.92 1.04998C207.19 1.04998 208.22 2.08998 208.22 3.34998V20.63C208.22 21.9 207.19 22.93 205.92 22.93H177.12C175.85 22.93 174.82 21.89 174.82 20.63V3.34998C174.82 2.07998 175.85 1.04998 177.12 1.04998H205.92Z" fill="#D0D0D0"></path><path d="M194.55 16.9601C197.284 16.9601 199.5 14.7439 199.5 12.0101C199.5 9.27625 197.284 7.06006 194.55 7.06006C191.816 7.06006 189.6 9.27625 189.6 12.0101C189.6 14.7439 191.816 16.9601 194.55 16.9601Z" fill="#F79E1B"></path><path d="M188.49 16.94C191.224 16.94 193.44 14.7238 193.44 11.99C193.44 9.25623 191.224 7.04004 188.49 7.04004C185.756 7.04004 183.54 9.25623 183.54 11.99C183.54 14.7238 185.756 16.94 188.49 16.94Z" fill="#EB001B"></path><path fill-rule="evenodd" clip-rule="evenodd" d="M189.6 11.9998C189.6 13.5898 190.35 15.0099 191.51 15.9099C192.68 15.0099 193.44 13.5898 193.44 11.9998C193.44 10.4098 192.69 8.98984 191.53 8.08984C190.36 8.98984 189.6 10.3998 189.6 11.9998Z" fill="#FF5F00"></path></svg>