<svg xmlns="http://www.w3.org/2000/svg" width="140" height="142" viewBox="0 0 140 142" fill="none"><path fill-rule="evenodd" clip-rule="evenodd" d="M137.363 76.8228C137.363 100.883 131.406 120.025 112.898 130.61C105.146 142.641 37.3038 143.046 26.3723 130.494C7.92198 119.91 1.96582 100.883 1.96582 76.8228C1.96582 -1.02884 137.363 -1.02884 137.363 76.8228Z" fill="#C42D00"></path><path fill-rule="evenodd" clip-rule="evenodd" d="M1.96582 76.8226C1.96582 48.8866 19.3753 31.0129 41.7 23.0908C109.485 63.9826 25.5056 142.353 1.96582 76.8226Z" fill="#E3493F"></path><path d="M139.33 76.8233C139.33 89.0841 137.828 100.131 133.895 109.501C129.962 118.928 123.715 126.561 114.231 132.057C113.882 132.577 113.42 133.097 112.9 133.561C106.826 138.823 89.4748 141.599 71.7196 141.717C54.0218 141.832 35.8014 139.343 27.7635 134.197C26.7217 133.504 25.855 132.808 25.1591 132.057C15.6743 126.506 9.36976 118.87 5.43702 109.441C1.56003 100.131 0 89.0841 0 76.8233C0 47.7873 18.1603 29.2803 41.3543 21.1823C50.319 18.0579 59.9788 16.4961 69.6944 16.4961C79.41 16.4961 89.0698 18.0587 98.0345 21.1823C121.229 29.2803 139.33 47.7873 139.33 76.8225V76.8233ZM130.251 107.997C133.953 99.1481 135.398 88.6207 135.398 76.8233C135.398 49.7541 118.453 32.4605 96.7062 24.8833C88.204 21.8765 78.9483 20.3722 69.6953 20.3722C60.4422 20.3722 51.1282 21.8765 42.6286 24.8833C20.9363 32.4605 3.931 49.7541 3.931 76.8233C3.931 88.6216 5.37779 99.1481 9.07971 107.939C12.7241 116.672 18.5644 123.729 27.3558 128.817L27.8776 129.224C28.3976 129.802 29.0909 130.38 29.9019 130.902C37.2465 135.645 54.6551 137.9 71.7178 137.784C88.6064 137.668 104.974 135.237 110.296 130.611C110.7 130.264 111.048 129.918 111.279 129.512L111.916 128.877C120.765 123.843 126.605 116.73 130.25 107.997H130.251Z" fill="white"></path><path fill-rule="evenodd" clip-rule="evenodd" d="M27.4713 43.2769C31.4049 45.5904 32.2159 51.5483 29.2648 56.5794C26.3155 61.6689 20.7626 63.8683 16.7715 61.6106C12.8405 59.2971 12.0296 53.3418 14.9806 48.2506C17.93 43.2194 23.5403 40.9635 27.4722 43.2769H27.4713Z" fill="#FB9292"></path><path fill-rule="evenodd" clip-rule="evenodd" d="M13.6494 63.867C15.2112 64.0978 16.2521 65.947 15.9629 67.9713C15.6162 69.9956 14.1119 71.4424 12.5519 71.1532C10.9901 70.9224 9.94748 69.1289 10.2367 67.1046C10.5276 65.0804 12.0876 63.6336 13.6503 63.867H13.6494Z" fill="#FB9292"></path><path d="M102.861 93.9968C98.8728 93.9968 95.5742 96.0795 95.5742 98.7396C95.5742 101.4 98.872 103.713 102.861 103.713C106.851 103.713 110.15 101.516 110.15 98.7396C110.15 95.9636 106.852 93.9968 102.861 93.9968Z" fill="#FB9292"></path><path d="M35.5361 93.9968C31.545 93.9968 28.249 96.0795 28.249 98.7396C28.249 101.4 31.545 103.713 35.5361 103.713C39.5272 103.713 42.825 101.516 42.825 98.7396C42.825 95.9636 39.5272 93.9968 35.5361 93.9968Z" fill="#FB9292"></path><path d="M59.8896 85.0869C62.434 76.7598 75.9098 76.7598 78.4541 85.0869C72.903 80.4599 65.4408 80.4599 59.8896 85.0869Z" fill="#4E0000"></path><path fill-rule="evenodd" clip-rule="evenodd" d="M116.166 66.3507C115.008 78.4372 117.032 91.0463 104.771 92.4931C100.722 92.9557 96.095 93.0706 90.5439 92.4931C80.3057 91.4531 78.3398 73.6378 77.6456 66.3507C76.7188 56.4592 117.148 55.2458 116.166 66.3507Z" fill="white"></path><path fill-rule="evenodd" clip-rule="evenodd" d="M83.4281 87.8665C79.2637 81.7936 78.1636 71.4979 77.6436 66.351V65.7735C77.6436 65.7134 77.7019 65.6576 77.7019 65.5984V65.3092C78.3378 62.3024 83.1973 60.1622 89.2109 59.178C86.7241 63.9225 83.0797 71.4404 83.0797 71.4404L93.7804 58.6005C94.9955 58.5421 96.269 58.4846 97.5407 58.4846H97.5982L96.3848 61.8982L99.7958 58.543C101.243 58.7163 104.711 59.063 106.1 59.2964L88.0559 86.1897L92.9137 73.4656L83.429 87.8682L83.4281 87.8665Z" fill="#FFEEB2"></path><path fill-rule="evenodd" clip-rule="evenodd" d="M22.2337 66.3507C23.3338 78.4372 21.367 91.0463 33.6295 92.4931C37.6763 92.9557 42.305 93.0706 47.7987 92.4931C58.0944 91.4531 60.0037 73.6378 60.697 66.3507C61.6212 56.4592 21.1946 55.2458 22.2346 66.3507H22.2337Z" fill="white"></path><path fill-rule="evenodd" clip-rule="evenodd" d="M22.2352 66.351C23.0461 75.1998 22.1777 84.3379 26.5154 89.1957L37.1003 73.1181L32.3575 85.438L49.9403 59.2956C48.6111 59.0621 45.1983 58.7154 43.7516 58.5421L40.4555 61.8399L41.6689 58.4846C40.6289 58.4846 38.9513 58.5421 37.9112 58.6005L27.4997 71.0938C27.4997 71.0938 31.1999 63.5758 33.5709 58.9471C26.978 59.8739 21.831 62.3024 22.2352 66.3518V66.351Z" fill="#FFEEB2"></path><path fill-rule="evenodd" clip-rule="evenodd" d="M33.6296 92.4926C37.6764 92.9551 42.3051 93.0701 47.7988 92.4926C58.0944 91.4525 60.0038 73.6372 60.6971 66.3501C60.8129 65.3658 60.4654 64.4991 59.8879 63.6899H57.6903C58.1528 64.3258 58.3261 64.9608 58.2678 65.7125C57.5744 72.5388 55.781 89.1373 46.1786 90.1216C41.0317 90.6416 36.7514 90.5841 32.9336 90.1216C32.4136 90.0641 31.9511 90.0058 31.4894 89.8908C26.109 88.7332 32.2403 92.3201 33.6296 92.4934V92.4926Z" fill="white"></path><path fill-rule="evenodd" clip-rule="evenodd" d="M104.77 92.4926C100.721 92.9551 96.0943 93.0701 90.5432 92.4926C80.305 91.4525 78.3391 73.6372 77.6449 66.3501C77.5874 65.3658 77.8757 64.4991 78.5115 63.6899H80.6517C80.2475 64.3258 80.0742 64.9608 80.1317 65.7125C80.7675 72.5388 82.6185 89.1373 92.1625 90.1216C97.3094 90.6416 101.647 90.5841 105.407 90.1216C105.927 90.0641 106.447 90.0058 106.91 89.8908C112.232 88.7332 106.159 92.3201 104.77 92.4934V92.4926Z" fill="white"></path><path d="M27.4417 87.2879C31.1419 92.2615 42.0734 91.2773 47.6263 90.6989C51.8482 90.2364 54.4509 86.0719 56.1285 81.2141C57.8636 76.0654 58.4995 70.1676 58.8461 66.5807C58.6728 63.2255 54.335 62.1854 51.7907 61.5496C45.4287 59.9294 36.6373 59.7561 30.2743 61.4337C28.3075 61.9537 23.9123 63.4563 24.1431 66.1757C24.7215 72.6536 23.9698 82.5425 27.4409 87.287L27.4417 87.2879ZM59.0778 60.6237C62.3756 60.3928 65.6716 60.277 69.0843 60.277C72.4971 60.277 75.8514 60.4503 79.265 60.6812C80.9409 59.5253 83.1385 58.6569 85.6846 58.021C89.1539 57.1543 93.3184 56.6901 97.4253 56.6326C101.531 56.6326 105.638 57.0367 109.05 57.906C113.677 59.1769 118.363 58.6569 122.354 60.277C125.477 61.5505 122.354 72.1327 119.461 72.3078C118.825 72.3653 118.19 72.3653 117.61 72.3653L117.552 72.7119C117.09 83.4118 116.628 92.9549 104.945 94.3433C100.143 94.8633 95.2268 94.8058 90.369 94.3433C84.3536 93.7074 80.8825 88.4438 78.7999 82.3125C77.3548 78.0322 76.6023 73.3478 76.1972 69.7034C73.7688 69.4142 71.4544 69.2408 69.1418 69.2408C66.8292 69.2408 64.4574 69.4142 62.2014 69.7034C61.7371 73.3478 61.0438 78.0322 59.597 82.3125C57.5169 88.4438 54.0459 93.7083 47.9721 94.3433C45.1961 94.5741 42.5943 94.7475 40.165 94.69C37.6764 94.69 35.4788 94.5741 33.3962 94.3433C21.7713 92.954 21.3087 83.4118 20.7887 72.7119V72.3653C20.2086 72.3653 19.6311 72.3653 18.9953 72.3078C16.16 72.1327 12.9799 61.5496 16.1017 60.277C19.9769 58.7152 24.6614 59.1769 29.3484 57.906C32.7019 57.0376 36.8089 56.6326 40.9158 56.6326C45.0228 56.6901 49.1872 57.1543 52.6557 58.021C55.2 58.6569 57.4002 59.5253 59.0761 60.6237H59.0778ZM80.8242 63.9214V63.9789C79.9 64.6723 79.5525 65.5964 79.495 66.5816C79.8417 70.1685 80.535 76.0663 82.271 81.215C83.8911 86.0728 86.4929 90.2372 90.7732 90.6998C95.3418 91.1623 99.9113 91.2198 104.538 90.6998C114.891 89.4847 113.621 76.7614 114.141 68.4909L114.198 68.2017C114.371 65.424 114.891 64.4414 111.538 62.7063H111.595C104.769 59.2953 86.9554 59.4103 80.8242 63.9214Z" fill="#4E0000"></path><path fill-rule="evenodd" clip-rule="evenodd" d="M54.104 107.645C52.0797 107.125 44.9085 94.3426 56.1283 89.8315C60.9286 88.4431 64.053 90.5249 65.0347 97.8712C66.0172 105.216 68.7366 110.767 68.7366 110.767C60.6386 110.827 57.4009 109.034 54.1032 107.644L54.104 107.645Z" fill="#E34949"></path><path d="M58.0958 88.0982C70.2425 87.809 65.4404 107.185 70.2982 110.25C39.2405 113.374 46.7027 88.3874 58.0958 88.0982ZM55.3782 107.358C56.8233 108.109 58.2692 108.978 58.1542 108.167C58.0384 107.358 55.9566 104.176 57.6342 101.805C59.1367 105.738 59.8318 108.514 63.012 109.21C63.8229 109.383 65.268 109.787 66.5989 109.556C64.6905 105.218 65.3838 89.6608 58.2701 90.5275C49.1904 90.6433 48.9012 104.93 55.3791 107.359L55.3782 107.358Z" fill="#4E0000"></path><path d="M88.692 101.225C89.3279 100.474 90.4855 100.358 91.2363 100.994C91.9898 101.63 92.1048 102.788 91.4672 103.539C91.4672 103.539 83.3134 113.661 69.085 113.257C55.0874 112.908 46.4118 104.464 46.4118 104.464C45.661 103.77 45.661 102.614 46.3543 101.861C47.0494 101.168 48.2053 101.11 48.9013 101.803C48.9588 101.803 56.5925 109.266 69.2017 109.612C81.5791 109.959 88.6354 101.283 88.6929 101.225H88.692Z" fill="#4E0000"></path><path d="M45.8328 105.507C45.5444 106.489 44.6194 103.598 45.9486 101.862C47.2796 100.011 50.1705 100.649 49.7664 100.938C48.3779 101.747 47.9154 101.862 47.1637 102.731C46.2953 103.771 45.8328 105.449 45.8328 105.507V105.507Z" fill="#4E0000"></path><path d="M92.4519 107.01C93.0294 108.628 94.1295 103.886 91.8744 101.226C89.5008 98.4496 84.9322 99.7213 85.6273 100.128C87.8833 101.341 88.75 101.399 89.9651 102.731C91.5251 104.291 92.4519 107.011 92.4519 107.011V107.01Z" fill="#4E0000"></path><path d="M56.9378 113.892C53.5843 112.561 60.8139 118.23 68.0427 118.057C75.0424 117.883 83.0803 113.315 81.4044 113.835C76.4865 115.455 71.8021 116.264 68.0427 116.206C61.2756 116.09 56.9378 113.892 56.9378 113.892Z" fill="#4E0000"></path><path fill-rule="evenodd" clip-rule="evenodd" d="M107.028 11.8937C98.8728 7.32512 88.5789 7.09343 79.9608 12.1829C71.3428 17.1565 66.4833 26.2389 66.4258 35.5494C74.5813 40.0605 84.8186 40.4072 93.495 35.376C102.055 30.3449 106.913 21.2626 107.028 11.8937Z" fill="#E23A20"></path><path fill-rule="evenodd" clip-rule="evenodd" d="M107.027 11.8937C98.8717 7.32512 88.5778 7.09343 79.9597 12.1829C77.9354 13.283 76.0845 14.7856 74.4644 16.4048L75.4486 17.5624C77.3553 18.9491 80.5372 21.0893 91.6421 15.654C98.4092 12.4137 101.533 11.1429 103.846 14.0339C105.464 16.0007 104.597 18.9491 104.193 19.8759C104.02 20.3384 104.482 20.7426 105.29 21.2626C106.391 18.3133 107.026 15.1331 107.026 11.8937H107.027Z" fill="#FB9292"></path><path fill-rule="evenodd" clip-rule="evenodd" d="M72.557 18.4869C68.5659 23.3447 66.4833 29.4185 66.4258 35.5497C74.5813 40.0608 84.8186 40.4075 93.495 35.3764C98.0636 32.7162 101.477 28.8985 103.791 24.6182C82.4485 40.465 77.184 29.476 76.4906 28.6668C75.8548 27.7983 94.9976 16.8093 94.9976 16.8093C68.2776 32.5412 72.557 18.5444 72.557 18.4869Z" fill="#AE1D07"></path><path fill-rule="evenodd" clip-rule="evenodd" d="M99.2767 15.3048C98.6409 14.3206 75.1011 23.9804 65.7322 34.6785C65.3855 35.1427 65.6163 36.2986 66.0214 36.7028C66.368 37.1095 67.9882 37.1095 68.4498 36.647C84.7609 20.3934 99.9727 16.2874 99.2767 15.3048Z" fill="white"></path><path fill-rule="evenodd" clip-rule="evenodd" d="M105.756 12.7021C101.996 10.737 97.7157 9.63778 93.4363 9.69527C89.0411 9.75275 84.6449 10.9086 80.6538 13.2822C76.5469 15.5957 73.365 18.8917 71.2248 22.6511C69.1448 26.353 67.9288 30.5758 67.7555 34.7977C71.5158 36.7645 75.7377 37.7471 80.018 37.7471C84.4132 37.6896 88.8094 36.5894 92.858 34.276C96.8473 31.905 100.029 28.609 102.227 24.8487C104.367 21.0884 105.523 16.9824 105.755 12.7021H105.756ZM93.378 7.15096C98.4091 7.09347 103.325 8.42181 107.662 10.7936L108.3 11.2004V11.9513C108.3 16.9249 106.911 21.8428 104.424 26.1222C102.053 30.2849 98.5824 33.8709 94.1288 36.5311C89.6752 39.0771 84.8174 40.2914 80.0171 40.2914C75.0992 40.3488 70.184 39.1355 65.8462 36.6487L65.1528 36.3003V35.5494C65.1528 30.6342 66.5395 25.7163 69.029 21.3785C71.3999 17.2141 74.8693 13.5714 79.3229 11.0271C83.7765 8.48104 88.5785 7.20932 93.3788 7.15183L93.378 7.15096Z" fill="white"></path><path fill-rule="evenodd" clip-rule="evenodd" d="M26.4017 7.66973C34.7881 1.36516 46.1822 -0.543287 56.6503 3.67864C67.1193 7.95892 73.8864 17.2721 75.3881 27.7393C67.061 34.0439 55.7235 36.0107 45.2562 31.7304C34.7872 27.5085 27.9609 18.1387 26.4009 7.66973H26.4017Z" fill="#E23A20"></path><path fill-rule="evenodd" clip-rule="evenodd" d="M26.4017 7.66973C34.7881 1.36516 46.1822 -0.543287 56.6503 3.67864C59.1371 4.72127 61.4506 6.0496 63.4749 7.61225L62.5481 9.00155C60.6989 10.8525 57.4586 13.8593 44.2145 9.46407C36.1739 6.86141 32.4163 5.99298 30.3345 9.57992C28.8302 12.0092 30.277 15.2486 30.797 16.1153C31.0862 16.5778 30.6812 17.2128 29.8702 17.8504C28.0785 14.726 26.9209 11.2567 26.4009 7.6706L26.4017 7.66973Z" fill="#FB9292"></path><path fill-rule="evenodd" clip-rule="evenodd" d="M66.0204 9.57983C71.109 14.3801 74.4068 20.858 75.3893 27.7401C67.0622 34.0447 55.7248 36.0115 45.2575 31.7312C39.7621 29.4752 35.3085 25.8334 32.0107 21.378C58.3867 35.6648 62.4936 22.6515 63.1286 21.6089C63.707 20.5114 40.6288 11.3149 40.6288 11.3149C72.96 24.6174 66.0204 9.63732 66.0204 9.57983Z" fill="#AE1D07"></path><path fill-rule="evenodd" clip-rule="evenodd" d="M35.5983 10.33C36.1758 9.0583 63.9959 16.1146 76.0275 26.6411C76.5475 27.0452 76.49 28.3762 76.0275 28.8971C75.6808 29.4171 73.8874 29.6479 73.3656 29.2437C52.661 13.6861 35.0208 11.4301 35.5983 10.33Z" fill="white"></path><path fill-rule="evenodd" clip-rule="evenodd" d="M25.5911 6.57257C29.9863 3.21733 35.3659 1.01883 40.8612 0.267999C46.1815 -0.427089 51.7928 0.210511 57.228 2.40814C62.5484 4.54828 67.0037 8.01763 70.2997 12.297C73.8283 16.6923 76.0259 21.9569 76.8351 27.508L77.0085 28.3189L76.2576 28.8964C71.8615 32.1924 66.5978 34.3901 60.9883 35.1435C55.6663 35.8943 50.1151 35.2593 44.7347 33.1192H44.6773C39.357 30.9216 34.9033 27.4505 31.5481 23.1702C28.0787 18.7166 25.821 13.5121 25.0127 7.95927L24.8394 7.09258L25.5902 6.57257H25.5911ZM41.2663 3.15898C36.466 3.73647 31.9531 5.5883 27.962 8.36343C28.8305 13.108 30.8556 17.5607 33.8624 21.3767C36.871 25.252 40.9179 28.3764 45.8357 30.399C50.6935 32.3675 55.783 32.945 60.6425 32.3074C65.3845 31.6715 69.9539 29.8206 73.8875 27.0446C73.0182 22.3027 71.054 17.849 68.0455 14.0313C65.0387 10.156 60.9901 7.03335 56.0739 5.06655C51.2719 3.09974 46.1249 2.52225 41.2671 3.1581L41.2663 3.15898Z" fill="white"></path></svg>