<svg xmlns="http://www.w3.org/2000/svg" width="48" height="49" viewBox="0 0 48 49" fill="none"><path fill-rule="evenodd" clip-rule="evenodd" d="M46.5621 26.0413C46.5621 34.197 44.5432 40.6859 38.2692 44.2739C35.6417 48.352 12.6448 48.4893 8.93931 44.2346C2.68512 40.6469 0.666138 34.197 0.666138 26.0413C0.666138 -0.348401 46.5621 -0.348401 46.5621 26.0413Z" fill="#009A05"></path><path fill-rule="evenodd" clip-rule="evenodd" d="M0.666138 26.0408C0.666138 16.5713 6.56749 10.5125 14.135 7.82715C37.1124 21.6884 8.64552 48.2538 0.666138 26.0408Z" fill="#06BF0C"></path><path d="M47.2294 26.0412C47.2294 30.1972 46.7201 33.9417 45.387 37.1181C44.0536 40.3134 41.9363 42.9011 38.7212 44.7639C38.6031 44.9401 38.4463 45.1164 38.2701 45.2738C36.2112 47.0574 30.3296 47.9984 24.3111 48.0383C18.312 48.0776 12.1358 47.2337 9.4111 45.4893C9.05797 45.2543 8.76419 45.0187 8.52827 44.7639C5.31319 42.8822 3.17611 40.2939 1.84301 37.0977C0.52881 33.9417 0 30.1972 0 26.0412C0 16.1987 6.15586 9.92532 14.018 7.18029C17.0568 6.1212 20.3313 5.5918 23.6246 5.5918C26.9179 5.5918 30.1923 6.12149 33.2312 7.18029C41.0933 9.92532 47.2294 16.1987 47.2294 26.0409V26.0412ZM44.1516 36.6082C45.4065 33.6087 45.8963 30.0402 45.8963 26.0412C45.8963 16.8654 40.1523 11.0033 32.7809 8.43485C29.8989 7.41561 26.7614 6.9057 23.6249 6.9057C20.4884 6.9057 17.3311 7.41561 14.45 8.43485C7.09686 11.0033 1.33251 16.8654 1.33251 26.0412C1.33251 30.0405 1.82293 33.6087 3.07778 36.5887C4.31315 39.549 6.29286 41.9409 9.27292 43.6658L9.44978 43.8037C9.62605 43.9994 9.86108 44.1955 10.136 44.3724C12.6256 45.98 18.5266 46.7445 24.3105 46.7052C30.0353 46.6659 35.5835 45.8419 37.3875 44.2737C37.5245 44.1562 37.6423 44.0387 37.7206 43.9014L37.9367 43.6859C40.9362 41.9796 42.916 39.5685 44.1513 36.6082H44.1516Z" fill="#FFEEB2"></path><path fill-rule="evenodd" clip-rule="evenodd" d="M9.31185 14.6698C10.6452 15.454 10.9201 17.4736 9.91979 19.179C8.92004 20.9042 7.03776 21.6497 5.68488 20.8844C4.35238 20.1002 4.07749 18.0815 5.07783 16.3557C6.07758 14.6503 7.97934 13.8856 9.31215 14.6698H9.31185Z" fill="#00F208"></path><path d="M34.868 31.8633C33.516 31.8633 32.3978 32.5692 32.3978 33.471C32.3978 34.3727 33.5157 35.1569 34.868 35.1569C36.2203 35.1569 37.3387 34.412 37.3387 33.471C37.3387 32.53 36.2208 31.8633 34.868 31.8633Z" fill="#E34949"></path><path d="M12.0458 31.8633C10.6929 31.8633 9.57568 32.5692 9.57568 33.471C9.57568 34.3727 10.6929 35.1569 12.0458 35.1569C13.3987 35.1569 14.5166 34.412 14.5166 33.471C14.5166 32.53 13.3987 31.8633 12.0458 31.8633Z" fill="#E34949"></path><path d="M20.3 28.8441C21.1625 26.0214 25.7305 26.0214 26.5929 28.8441C24.7112 27.2756 22.1817 27.2756 20.3 28.8441Z" fill="#012504"></path><path fill-rule="evenodd" clip-rule="evenodd" d="M39.3767 22.493C38.9843 26.59 39.6704 30.8642 35.5141 31.3546C34.1417 31.5114 32.5733 31.5503 30.6916 31.3546C27.2211 31.002 26.5547 24.9631 26.3194 22.493C26.0053 19.14 39.7097 18.7287 39.3767 22.493Z" fill="#FFE481"></path><path fill-rule="evenodd" clip-rule="evenodd" d="M28.2806 29.7873C26.869 27.7288 26.4961 24.2388 26.3198 22.4941V22.2984C26.3198 22.278 26.3396 22.2591 26.3396 22.239V22.141C26.5551 21.1218 28.2024 20.3963 30.2409 20.0627C29.3979 21.6709 28.1625 24.2193 28.1625 24.2193L31.7898 19.8669C32.2017 19.8471 32.6334 19.8276 33.0644 19.8276H33.0839L32.6726 20.9848L33.8289 19.8474C34.3193 19.9062 35.495 20.0237 35.9659 20.1028L29.8494 29.219L31.496 24.9058L28.2809 29.7879L28.2806 29.7873Z" fill="white"></path><path fill-rule="evenodd" clip-rule="evenodd" d="M7.53679 22.493C7.9097 26.59 7.24301 30.8642 11.3997 31.3546C12.7714 31.5114 14.3405 31.5503 16.2027 31.3546C19.6926 31.002 20.3398 24.9631 20.5749 22.493C20.8881 19.14 7.18454 18.7287 7.53708 22.493H7.53679Z" fill="#FFE481"></path><path fill-rule="evenodd" clip-rule="evenodd" d="M7.53794 22.4941C7.81283 25.4937 7.51846 28.5912 8.98885 30.2379L12.5768 24.788L10.9692 28.9641L16.9293 20.1025C16.4787 20.0234 15.3219 19.9059 14.8314 19.8471L13.7142 20.965L14.1255 19.8276C13.7729 19.8276 13.2043 19.8471 12.8517 19.8669L9.32249 24.1018C9.32249 24.1018 10.5768 21.5534 11.3805 19.9844C9.14563 20.2986 7.40094 21.1218 7.53794 22.4944V22.4941Z" fill="white"></path><path fill-rule="evenodd" clip-rule="evenodd" d="M11.4002 31.3542C12.772 31.5109 14.341 31.5499 16.2032 31.3542C19.6932 31.0016 20.3404 24.9627 20.5754 22.4925C20.6147 22.1589 20.4969 21.8651 20.3011 21.5908H19.5562C19.7129 21.8064 19.7717 22.0216 19.7519 22.2764C19.5169 24.5904 18.909 30.2168 15.654 30.5505C13.9093 30.7267 12.4584 30.7073 11.1643 30.5505C10.988 30.531 10.8312 30.5112 10.6748 30.4722C8.85094 30.0798 10.9293 31.2957 11.4002 31.3545V31.3542Z" fill="#FFEEB2"></path><path fill-rule="evenodd" clip-rule="evenodd" d="M35.515 31.3542C34.1426 31.5109 32.5742 31.5499 30.6925 31.3542C27.222 31.0016 26.5556 24.9627 26.3203 22.4925C26.3008 22.1589 26.3985 21.8651 26.6141 21.5908H27.3395C27.2025 21.8064 27.1438 22.0216 27.1633 22.2764C27.3788 24.5904 28.0062 30.2168 31.2414 30.5505C32.9861 30.7267 34.4565 30.7073 35.7311 30.5505C35.9074 30.531 36.0836 30.5112 36.2404 30.4722C38.0445 30.0798 35.9859 31.2957 35.515 31.3545V31.3542Z" fill="#FFEEB2"></path><path d="M9.30226 29.5901C10.5565 31.276 14.262 30.9424 16.1443 30.7463C17.5754 30.5895 18.4577 29.1779 19.0263 27.5312C19.6145 25.786 19.83 23.7868 19.9475 22.5709C19.8888 21.4335 18.4184 21.081 17.5559 20.8655C15.3994 20.3163 12.4193 20.2575 10.2624 20.8262C9.59575 21.0025 8.10587 21.5118 8.18411 22.4336C8.38016 24.6294 8.12535 27.9815 9.30196 29.5898L9.30226 29.5901ZM20.0261 20.5516C21.1439 20.4734 22.2612 20.4341 23.418 20.4341C24.5748 20.4341 25.7119 20.4929 26.869 20.5711C27.4371 20.1793 28.182 19.8849 29.0451 19.6694C30.2211 19.3756 31.6327 19.2182 33.0249 19.1987C34.4167 19.1987 35.8089 19.3357 36.9654 19.6304C38.5338 20.0612 40.1223 19.8849 41.4752 20.4341C42.5337 20.8658 41.4752 24.4529 40.4944 24.5122C40.2788 24.5317 40.0636 24.5317 39.8669 24.5317L39.8474 24.6492C39.6907 28.2762 39.5342 31.511 35.5739 31.9817C33.9461 32.158 32.2796 32.1385 30.633 31.9817C28.5939 31.7662 27.4173 29.9819 26.7113 27.9036C26.2215 26.4527 25.9664 24.8648 25.8291 23.6294C25.0059 23.5314 24.2214 23.4726 23.4375 23.4726C22.6536 23.4726 21.8496 23.5314 21.0849 23.6294C20.9275 24.8648 20.6925 26.4527 20.2021 27.9036C19.497 29.9819 18.3204 31.7664 16.2615 31.9817C15.3205 32.0599 14.4386 32.1187 13.6151 32.0992C12.7716 32.0992 12.0266 32.0599 11.3207 31.9817C7.38012 31.5108 7.22334 28.2762 7.04707 24.6492V24.5317C6.85042 24.5317 6.65467 24.5317 6.43913 24.5122C5.47806 24.4529 4.40007 20.8655 5.45828 20.4341C6.77188 19.9047 8.35979 20.0612 9.94858 19.6304C11.0853 19.336 12.4775 19.1987 13.8696 19.1987C15.2618 19.2182 16.6734 19.3756 17.8491 19.6694C18.7116 19.8849 19.4574 20.1793 20.0255 20.5516H20.0261ZM27.3975 21.6695V21.6889C27.0843 21.924 26.9664 22.2372 26.947 22.5712C27.0645 23.7871 27.2995 25.7863 27.888 27.5315C28.4371 29.1782 29.3191 30.5898 30.77 30.7466C32.3186 30.9034 33.8675 30.9229 35.436 30.7466C38.9454 30.3347 38.5146 26.0219 38.6909 23.2184L38.7104 23.1204C38.7692 22.1788 38.9454 21.8457 37.8087 21.2576H37.8282C35.5142 20.1013 29.4759 20.1403 27.3975 21.6695Z" fill="url(#paint0_linear_36_738)"></path><path fill-rule="evenodd" clip-rule="evenodd" d="M18.3411 36.49C17.6549 36.3137 15.2241 31.9808 19.0273 30.4516C20.6545 29.981 21.7136 30.6867 22.0463 33.1769C22.3794 35.6665 23.3012 37.5482 23.3012 37.5482C20.5561 37.5686 19.4587 36.9606 18.3408 36.4897L18.3411 36.49Z" fill="#E34949"></path><path d="M19.6931 29.8653C23.8105 29.7673 22.1828 36.3354 23.8294 37.3741C13.3016 38.4332 15.8311 29.9634 19.6931 29.8653ZM18.7719 36.3938C19.2617 36.6483 19.7519 36.943 19.7129 36.6681C19.6736 36.3938 18.968 35.3152 19.5366 34.5115C20.046 35.8449 20.2816 36.7856 21.3596 37.0215C21.6345 37.0803 22.1243 37.2173 22.5754 37.1391C21.9285 35.6687 22.1636 30.395 19.7522 30.6888C16.6744 30.7281 16.5764 35.5709 18.7722 36.3941L18.7719 36.3938Z" fill="#012504"></path><path d="M30.0646 34.3143C30.2801 34.0598 30.6725 34.0205 30.927 34.2361C31.1824 34.4516 31.2214 34.844 31.0053 35.0985C31.0053 35.0985 28.2414 38.5297 23.4183 38.3927C18.6735 38.2746 15.7327 35.4121 15.7327 35.4121C15.4782 35.1771 15.4782 34.7853 15.7132 34.5299C15.9488 34.2948 16.3406 34.2754 16.5766 34.5104C16.596 34.5104 19.1837 37.0399 23.4579 37.1574C27.6535 37.2749 30.0454 34.3341 30.0649 34.3143H30.0646Z" fill="#012504"></path><path d="M15.536 35.7654C15.4383 36.0985 15.1247 35.1185 15.5753 34.53C16.0264 33.9026 17.0064 34.1187 16.8694 34.2168C16.3987 34.4911 16.242 34.53 15.9872 34.8247C15.6928 35.1772 15.536 35.7459 15.536 35.7657V35.7654Z" fill="#012504"></path><path d="M31.3388 36.2744C31.5346 36.8227 31.9075 35.2153 31.1431 34.3135C30.3385 33.3726 28.7898 33.8036 29.0255 33.9415C29.7902 34.3528 30.084 34.3723 30.4959 34.8238C31.0247 35.3526 31.3388 36.2747 31.3388 36.2747V36.2744Z" fill="#012504"></path><path d="M19.3011 38.6063C18.1643 38.1551 20.615 40.0767 23.0654 40.0179C25.4381 39.9592 28.1627 38.4105 27.5946 38.5868C25.9276 39.136 24.3397 39.4103 23.0654 39.3905C20.7715 39.3512 19.3011 38.6063 19.3011 38.6063Z" fill="#012504"></path><path fill-rule="evenodd" clip-rule="evenodd" d="M36.2812 4.03123C33.5167 2.48259 30.0273 2.40405 27.106 4.12925C24.1847 5.81518 22.5374 8.89385 22.5179 12.0499C25.2825 13.579 28.7526 13.6965 31.6937 11.9911C34.5952 10.2857 36.2422 7.20704 36.2812 4.03123Z" fill="#009A05"></path><path fill-rule="evenodd" clip-rule="evenodd" d="M36.2826 4.03123C33.5181 2.48259 30.0287 2.40405 27.1074 4.12925C26.4212 4.50216 25.7938 5.01149 25.2446 5.56037L25.5783 5.95277C26.2246 6.42283 27.3032 7.14828 31.0674 5.30586C33.3613 4.2075 34.4201 3.77671 35.2043 4.75668C35.7526 5.42337 35.4588 6.42283 35.3218 6.73698C35.2631 6.89377 35.4199 7.03077 35.6939 7.20704C36.0668 6.20729 36.2823 5.1293 36.2823 4.03123H36.2826Z" fill="#88D669"></path><path fill-rule="evenodd" clip-rule="evenodd" d="M24.5963 6.2674C23.2434 7.91406 22.5374 9.97291 22.5179 12.0512C25.2825 13.5804 28.7526 13.6979 31.6937 11.9925C33.2424 11.0908 34.3995 9.79664 35.1837 8.34573C27.9492 13.7174 26.1647 9.99239 25.9297 9.7181C25.7141 9.42372 32.203 5.69873 32.203 5.69873C23.1457 11.0314 24.5963 6.28689 24.5963 6.2674Z" fill="#047E08"></path><path fill-rule="evenodd" clip-rule="evenodd" d="M33.6534 5.18753C33.4379 4.85389 25.4585 8.12832 22.2827 11.7547C22.1652 11.9121 22.2434 12.3039 22.3807 12.4409C22.4982 12.5788 23.0474 12.5788 23.2039 12.422C28.7329 6.91244 33.8893 5.52059 33.6534 5.18753Z" fill="#FFEEB2"></path><path fill-rule="evenodd" clip-rule="evenodd" d="M35.8501 4.30466C34.5754 3.63855 33.1245 3.26594 31.6739 3.28542C30.184 3.30491 28.6939 3.69672 27.341 4.5013C25.9488 5.28551 24.8703 6.40277 24.1448 7.67711C23.4397 8.93197 23.0275 10.3634 22.9688 11.7945C24.2434 12.4612 25.6745 12.7943 27.1254 12.7943C28.6153 12.7748 30.1055 12.4019 31.4779 11.6176C32.8302 10.8139 33.9087 9.69669 34.6537 8.42205C35.3791 7.14742 35.7709 5.75556 35.8498 4.30466H35.8501ZM31.6541 2.42297C33.3596 2.40348 35.026 2.85375 36.4961 3.65775L36.7122 3.79563V4.05015C36.7122 5.73608 36.2416 7.40311 35.3986 8.85372C34.5949 10.2648 33.4183 11.4803 31.9086 12.3821C30.399 13.2451 28.7523 13.6567 27.1252 13.6567C25.4581 13.6762 23.792 13.2649 22.3216 12.4219L22.0865 12.3038V12.0493C22.0865 10.3832 22.5566 8.71613 23.4005 7.24574C24.2041 5.8341 25.3802 4.59933 26.8898 3.73688C28.3995 2.87383 30.0273 2.44275 31.6544 2.42327L31.6541 2.42297Z" fill="#FFEEB2"></path><path fill-rule="evenodd" clip-rule="evenodd" d="M8.95122 2.60045C11.794 0.463362 15.6563 -0.183552 19.2047 1.24757C22.7534 2.69848 25.0473 5.85539 25.5563 9.40352C22.7336 11.5406 18.8905 12.2073 15.3424 10.7564C11.7937 9.32528 9.47974 6.14917 8.95093 2.60045H8.95122Z" fill="#009A05"></path><path fill-rule="evenodd" clip-rule="evenodd" d="M8.95122 2.60045C11.794 0.463362 15.6563 -0.183552 19.2047 1.24757C20.0477 1.601 20.8319 2.05127 21.5181 2.58096L21.2039 3.0519C20.5771 3.67933 19.4787 4.69856 14.9893 3.20868C12.2637 2.32645 10.99 2.03207 10.2843 3.24795C9.77441 4.07143 10.2648 5.1695 10.4411 5.46328C10.5391 5.62007 10.4018 5.83531 10.1269 6.05144C9.5196 4.99235 9.1272 3.81633 8.95093 2.60074L8.95122 2.60045Z" fill="#88D669"></path><path fill-rule="evenodd" clip-rule="evenodd" d="M22.3802 3.24658C24.1051 4.87376 25.223 7.0696 25.556 9.40245C22.7333 11.5395 18.8902 12.2062 15.3421 10.7553C13.4793 9.9906 11.9697 8.75612 10.8518 7.24587C19.7926 12.0887 21.1847 7.67754 21.3999 7.32411C21.596 6.95209 13.7731 3.83474 13.7731 3.83474C24.7325 8.34394 22.3802 3.26607 22.3802 3.24658Z" fill="#047E08"></path><path fill-rule="evenodd" clip-rule="evenodd" d="M12.0688 3.5013C12.2645 3.07022 21.6948 5.46212 25.7732 9.03033C25.9495 9.16733 25.93 9.61849 25.7732 9.79505C25.6557 9.97132 25.0478 10.0496 24.8709 9.91256C17.8526 4.63894 11.873 3.87421 12.0688 3.5013Z" fill="#FFEEB2"></path><path fill-rule="evenodd" clip-rule="evenodd" d="M8.67656 2.22793C10.1664 1.09059 11.99 0.345358 13.8528 0.0908448C15.6562 -0.144772 17.5583 0.0713577 19.4007 0.816297C21.2041 1.54175 22.7144 2.71777 23.8316 4.16838C25.0277 5.65826 25.7727 7.4428 26.047 9.32449L26.1057 9.59938L25.8512 9.79514C24.361 10.9124 22.5768 11.6573 20.6753 11.9127C18.8713 12.1673 16.9896 11.952 15.1658 11.2266H15.1463C13.3428 10.4816 11.8332 9.30501 10.6958 7.8541C9.51982 6.34444 8.75451 4.58026 8.48051 2.69799L8.42175 2.4042L8.67627 2.22793H8.67656ZM13.9901 1.07081C12.3629 1.26657 10.8331 1.89429 9.48026 2.83499C9.77463 4.44326 10.4611 5.95263 11.4803 7.24616C12.5002 8.55977 13.8719 9.61887 15.539 10.3045C17.1856 10.9717 18.9108 11.1675 20.5581 10.9514C22.1655 10.7358 23.7144 10.1084 25.0478 9.16741C24.7531 7.56002 24.0873 6.05036 23.0675 4.75624C22.0483 3.44263 20.6759 2.38412 19.0095 1.71743C17.3817 1.05073 15.637 0.854976 13.9903 1.07052L13.9901 1.07081Z" fill="#FFEEB2"></path><defs><linearGradient id="paint0_linear_36_738" x1="23.4686" y1="19.1987" x2="23.4686" y2="32.1067" gradientUnits="userSpaceOnUse"><stop stop-color="#005D08"></stop><stop offset="1" stop-color="#002203"></stop></linearGradient></defs></svg>