<svg xmlns="http://www.w3.org/2000/svg" width="32" height="32" viewBox="0 0 32 32" fill="none"><circle cx="16" cy="16" r="15.5" fill="url(#paint0_linear_151_16)" stroke="#E7E7E7"></circle><path d="M20 8H12C9.792 8 8 9.792 8 12V20C8 22.208 9.792 24 12 24H20C22.208 24 24 22.208 24 20V12C24 9.792 22.208 8 20 8ZM16 20C13.792 20 12 18.208 12 16C12 13.792 13.792 12 16 12C18.208 12 20 13.792 20 16C20 18.208 18.208 20 16 20ZM20.28 12.496C19.84 12.496 19.48 12.136 19.48 11.696C19.48 11.256 19.84 10.896 20.28 10.896C20.72 10.896 21.08 11.256 21.08 11.696C21.08 12.136 20.72 12.496 20.28 12.496Z" fill="#C42D00"></path><path d="M16 18.4C17.3255 18.4 18.4 17.3255 18.4 16C18.4 14.6745 17.3255 13.6 16 13.6C14.6745 13.6 13.6 14.6745 13.6 16C13.6 17.3255 14.6745 18.4 16 18.4Z" fill="#C42D00"></path><defs><linearGradient id="paint0_linear_151_16" x1="0" y1="16" x2="32" y2="16" gradientUnits="userSpaceOnUse"><stop stop-color="#F4F4F4"></stop><stop offset="1" stop-color="#E3E3E3"></stop></linearGradient></defs></svg>