<svg xmlns="http://www.w3.org/2000/svg" width="45" height="45" viewBox="0 0 45 45" fill="none"><g clip-path="url(#clip0_13722_5)"><path d="M35.0153 44.9763L10.0285 45C4.53136 45.005 0.0299884 40.5124 0.0237417 35.0153L4.16507e-06 10.0285C-0.0049932 4.53136 4.48764 0.0299884 9.98473 0.0237417L34.9715 4.16507e-06C40.4686 -0.0049932 44.97 4.48764 44.9763 9.98473L45 34.9715C45.0062 40.4699 40.5124 44.9713 35.0153 44.9763Z" fill="#009A05"></path><path d="M35.0153 44.9763L10.0285 45C4.53136 45.005 0.0299884 40.5124 0.0237417 35.0153L4.16507e-06 10.0285C-0.0049932 4.53136 4.48764 0.0299884 9.98473 0.0237417L34.9715 4.16507e-06C40.4686 -0.0049932 44.97 4.48764 44.9763 9.98473L45 34.9715C45.0062 40.4699 40.5124 44.9713 35.0153 44.9763Z" fill="#009A05"></path><path d="M22.5013 31.2457C17.6801 31.2457 13.7559 27.3228 13.7559 22.5003C13.7559 17.6779 17.6801 13.7549 22.5013 13.7549C27.3225 13.7549 31.2467 17.6779 31.2467 22.5003C31.2467 27.3228 27.3225 31.2457 22.5013 31.2457ZM22.5013 16.2536C19.0569 16.2536 16.2546 19.0559 16.2546 22.5003C16.2546 25.9448 19.0569 28.747 22.5013 28.747C25.9458 28.747 28.748 25.9448 28.748 22.5003C28.748 19.0559 25.9458 16.2536 22.5013 16.2536Z" fill="#FFFEFE"></path><path d="M31.8701 15.0039C32.9051 15.0039 33.7441 14.1649 33.7441 13.1299C33.7441 12.0949 32.9051 11.2559 31.8701 11.2559C30.8351 11.2559 29.9961 12.0949 29.9961 13.1299C29.9961 14.1649 30.8351 15.0039 31.8701 15.0039Z" fill="#FFFEFE"></path><path d="M29.9973 38.7417H15.0052C10.184 38.7417 6.25977 34.8187 6.25977 29.9963V15.0042C6.25977 10.1817 10.184 6.25879 15.0052 6.25879H29.9973C34.8185 6.25879 38.7427 10.1817 38.7427 15.0042V29.9963C38.7427 34.8187 34.8185 38.7417 29.9973 38.7417ZM15.0052 8.75747C11.5608 8.75747 8.75845 11.5598 8.75845 15.0042V29.9963C8.75845 33.4407 11.5608 36.243 15.0052 36.243H29.9973C33.4417 36.243 36.244 33.4407 36.244 29.9963V15.0042C36.244 11.5598 33.4417 8.75747 29.9973 8.75747H15.0052Z" fill="#FFFEFE"></path></g><defs><clipPath id="clip0_13722_5"><rect width="45" height="45" fill="white"></rect></clipPath></defs></svg>