<svg xmlns="http://www.w3.org/2000/svg" width="32" height="32" viewBox="0 0 32 32" fill="none"><circle cx="16" cy="16" r="15.5" fill="url(#paint0_linear_151_13)" stroke="#E7E7E7"></circle><path d="M23.9914 11.507C22.9505 11.507 21.9901 11.1661 21.2188 10.5911C20.3343 9.93198 19.6987 8.9651 19.4743 7.85069C19.4187 7.57534 19.3888 7.29119 19.386 7H16.4125L16.4089 19.4297C16.4089 20.6057 15.6341 21.6029 14.56 21.9536C14.2483 22.0553 13.9117 22.1036 13.5611 22.0846C13.1137 22.0603 12.6944 21.9268 12.33 21.7113C11.5544 21.2529 11.0286 20.4212 11.0144 19.4698C10.9919 17.9829 12.2081 16.7706 13.7115 16.7706C14.0082 16.7706 14.2932 16.8185 14.56 16.9054V13.9213C14.2786 13.8801 13.9922 13.8587 13.7026 13.8587C12.0571 13.8587 10.5181 14.5347 9.41809 15.7526C8.58663 16.6731 8.08789 17.8473 8.01095 19.0786C7.91013 20.6962 8.50897 22.2339 9.6703 23.3683C9.84094 23.5349 10.0201 23.6895 10.2075 23.8321C11.2032 24.5894 12.4205 25 13.7026 25C13.9922 25 14.2786 24.9789 14.56 24.9377C15.7577 24.7623 16.8627 24.2204 17.7348 23.3683C18.8064 22.3215 19.3984 20.9318 19.4049 19.4526L19.3895 12.8837C19.9007 13.2735 20.4597 13.596 21.0596 13.8463C21.9926 14.2354 22.9818 14.4326 24 14.4322V11.5062C24.0007 11.507 23.9921 11.507 23.9914 11.507Z" fill="#C42D00"></path><defs><linearGradient id="paint0_linear_151_13" x1="0" y1="16" x2="32" y2="16" gradientUnits="userSpaceOnUse"><stop stop-color="#F4F4F4"></stop><stop offset="1" stop-color="#E3E3E3"></stop></linearGradient></defs></svg>