<svg xmlns="http://www.w3.org/2000/svg" width="32" height="32" viewBox="0 0 32 32" fill="none"><circle cx="16" cy="16" r="15.5" fill="url(#paint0_linear_151_10)" stroke="#E7E7E7"></circle><path d="M25.7351 11.2912C25.6354 10.4259 24.8513 9.59605 24.031 9.48488C19.0287 8.83837 13.9703 8.83837 8.96965 9.48488C8.14864 9.59581 7.36459 10.4259 7.26486 11.2912C6.91171 14.4628 6.91171 17.5379 7.26486 20.7088C7.36459 21.5741 8.14864 22.4047 8.96965 22.5151C13.9703 23.1616 19.0289 23.1616 24.031 22.5151C24.8513 22.4049 25.6354 21.5741 25.7351 20.7088C26.0883 17.5382 26.0883 14.4628 25.7351 11.2912ZM14.9165 19.2944V12.7066L19.6666 16.0006L14.9165 19.2944Z" fill="#C42D00"></path><defs><linearGradient id="paint0_linear_151_10" x1="0" y1="16" x2="32" y2="16" gradientUnits="userSpaceOnUse"><stop stop-color="#F4F4F4"></stop><stop offset="1" stop-color="#E3E3E3"></stop></linearGradient></defs></svg>